<svg width="185" height="176" viewBox="0 0 185 176" fill="none" xmlns="http://www.w3.org/2000/svg">
<path d="M152.94 81.8135L179.735 97.0764C182.042 98.5483 183.542 100.918 179.735 102.945L81.9191 158.89C78.3632 160.943 75.6835 159.853 70.6356 156.78L29.539 133.147C26.1977 131.229 28.6699 128.571 29.5388 128.09L126.6 72.3624C128.512 71.3602 130.674 68.9652 135.869 71.9757L152.94 81.8135Z" fill="url(#paint0_linear_0_6581)"/>
<path d="M131.077 35.2503L155.456 48.8601C157.365 49.8933 158.853 55.0111 156.488 58.233L84.0612 157.122C78.9737 161.994 73.3593 159.473 68.3117 156.4L30.0575 134.357C26.7162 132.439 29.6854 128.575 30.9075 126.857L104.33 26.6258C105.964 24.3545 108.847 22.4671 114.042 25.4775L131.077 35.2503Z" fill="url(#paint1_linear_0_6581)"/>
<path d="M130.825 33.1581L152.985 45.8961C154.894 46.9293 157.78 50.7623 155.416 53.984L82.7578 152.942C79.2933 158.788 72.1102 156.292 69.2525 154.532L28.6374 131.32C25.2961 129.402 27.4146 125.104 28.6373 123.385L101.3 25.2156C102.934 22.9443 107.208 20.1824 112.979 23.0827L130.825 33.1581Z" fill="url(#paint2_linear_0_6581)"/>
<path opacity="0.848" d="M153.975 46.5807C158.77 49.9846 158.083 52.8045 158.049 54.1201C158.015 55.4357 157.51 56.7141 156.286 58.4951C155.062 60.276 125.726 100.177 125.726 100.177L123.758 97.089L154.801 55.0645C154.801 55.0645 158.232 50.7682 153.975 46.5807Z" fill="url(#paint3_linear_0_6581)"/>
<path opacity="0.499" d="M151.791 59.05C152.795 59.6668 153.719 61.5042 153.719 62.1041L155.421 59.7875C155.421 59.7875 155.488 57.9022 153.439 56.7932C152.517 58.0676 152.774 57.5574 151.791 59.05Z" fill="url(#paint4_linear_0_6581)"/>
<path opacity="0.499" d="M83.8577 151.469C84.8619 152.086 86.1272 153.818 86.1272 154.418L87.8295 152.101C87.8295 152.101 87.8439 149.905 85.7946 148.796C84.8721 150.07 84.8404 149.977 83.8577 151.469Z" fill="url(#paint5_linear_0_6581)"/>
<path opacity="0.499" d="M142.471 73.585C142.072 74.0876 142.985 74.9266 143.489 74.141C143.489 74.141 146.647 69.9706 147.2 69.2732C147.258 69.2111 147.301 69.1374 147.328 69.057C147.355 68.9767 147.364 68.8916 147.354 68.8074C147.345 68.7232 147.318 68.642 147.275 68.5691C147.232 68.4963 147.174 68.4336 147.104 68.3853C147.035 68.3369 146.956 68.304 146.872 68.2889C146.789 68.2737 146.703 68.2766 146.621 68.2973C146.539 68.3181 146.463 68.3562 146.397 68.4091C146.331 68.462 146.277 68.5285 146.238 68.6041C145.315 69.8784 143.72 72.0652 142.471 73.585Z" fill="url(#paint6_linear_0_6581)"/>
<path opacity="0.499" d="M142.644 73.585C142.245 74.0876 143.157 74.9266 143.662 74.141C143.662 74.141 146.82 69.9706 147.373 69.2732C147.43 69.2111 147.474 69.1374 147.501 69.057C147.527 68.9767 147.536 68.8916 147.527 68.8074C147.518 68.7232 147.491 68.642 147.448 68.5691C147.405 68.4963 147.347 68.4336 147.277 68.3853C147.208 68.3369 147.128 68.304 147.045 68.2889C146.962 68.2737 146.876 68.2766 146.794 68.2973C146.712 68.3181 146.635 68.3562 146.569 68.4091C146.503 68.462 146.449 68.5285 146.411 68.6041C145.488 69.8784 143.893 72.0652 142.644 73.585Z" fill="url(#paint7_linear_0_6581)"/>
<path opacity="0.499" d="M136.285 81.9264C135.894 82.4357 136.821 83.2593 137.312 82.4651C137.312 82.4651 140.399 78.241 140.94 77.5342C140.997 77.4711 141.039 77.3967 141.064 77.3159C141.089 77.2351 141.097 77.1498 141.086 77.0659C141.076 76.9819 141.047 76.9012 141.003 76.8292C140.959 76.7571 140.899 76.6955 140.829 76.6483C140.759 76.6012 140.679 76.5697 140.596 76.5559C140.512 76.5421 140.427 76.5465 140.345 76.5685C140.263 76.5906 140.187 76.63 140.122 76.684C140.057 76.7379 140.004 76.8053 139.967 76.8814C139.066 78.1714 137.508 80.3853 136.285 81.9264Z" fill="url(#paint8_linear_0_6581)"/>
<path opacity="0.499" d="M136.457 81.9237C136.067 82.4331 136.993 83.2566 137.485 82.4624C137.485 82.4624 140.572 78.2383 141.113 77.5315C141.169 77.4684 141.212 77.394 141.237 77.3132C141.262 77.2324 141.27 77.1471 141.259 77.0632C141.249 76.9792 141.22 76.8985 141.176 76.8265C141.131 76.7544 141.072 76.6928 141.002 76.6456C140.931 76.5985 140.852 76.567 140.768 76.5532C140.685 76.5395 140.599 76.5438 140.518 76.5659C140.436 76.588 140.36 76.6273 140.295 76.6813C140.23 76.7353 140.177 76.8026 140.14 76.8787C139.239 78.1688 137.681 80.3827 136.457 81.9237Z" fill="url(#paint9_linear_0_6581)"/>
<path opacity="0.848" d="M26.8059 127.888C26.7708 128.532 26.919 129.172 27.2333 129.734C27.5475 130.296 28.0149 130.757 28.5811 131.065C30.5643 132.15 29.0974 131.394 30.9967 132.425C32.8961 133.455 71.5859 155.844 71.5859 155.844L72.1999 158.59L30.41 134.527C30.41 134.527 28.2576 133.421 27.5355 132.081C26.8135 130.742 26.8059 127.888 26.8059 127.888Z" fill="url(#paint10_linear_0_6581)"/>
<path d="M126.546 34.5739L132.539 38.0341C132.606 38.0643 132.665 38.109 132.713 38.1649C132.761 38.2209 132.796 38.2867 132.815 38.3577C132.835 38.4287 132.838 38.5031 132.825 38.5756C132.813 38.6481 132.784 38.7169 132.742 38.777C132.539 39.057 132.253 39.1362 131.991 38.9847L125.962 35.5453C125.898 35.513 125.842 35.4675 125.797 35.4119C125.752 35.3563 125.719 35.2918 125.701 35.2227C125.682 35.1536 125.679 35.0814 125.69 35.0108C125.702 34.9403 125.728 34.8729 125.768 34.8132C125.841 34.6806 125.963 34.5816 126.108 34.537C126.254 34.4924 126.41 34.5057 126.546 34.5739Z" fill="#2536EB"/>
<path d="M126.578 34.5349L132.568 37.9932C132.831 38.1446 132.98 38.4444 132.788 38.7052C132.751 38.765 132.703 38.817 132.647 38.8582C132.59 38.8995 132.526 38.9292 132.458 38.9456C132.39 38.9621 132.32 38.9649 132.25 38.954C132.181 38.9431 132.115 38.9187 132.055 38.8821L126.031 35.4434C125.968 35.4141 125.913 35.3718 125.867 35.3194C125.822 35.2671 125.788 35.2057 125.768 35.1394C125.748 35.0731 125.743 35.0033 125.752 34.9346C125.76 34.866 125.784 34.8 125.82 34.7409C125.895 34.6152 126.016 34.5234 126.158 34.485C126.299 34.4466 126.45 34.4645 126.578 34.5349Z" fill="#303789"/>
<path d="M47.6615 142.738L52.595 145.598C52.6507 145.625 52.7001 145.663 52.7398 145.71C52.7796 145.758 52.8087 145.813 52.8254 145.873C52.842 145.932 52.8457 145.995 52.8363 146.056C52.8268 146.117 52.8045 146.175 52.7706 146.227C52.6093 146.468 52.3782 146.54 52.1623 146.414L47.2002 143.573C47.1473 143.544 47.1006 143.506 47.0632 143.459C47.0257 143.412 46.9982 143.357 46.9824 143.299C46.9666 143.241 46.9627 143.181 46.9711 143.121C46.9794 143.062 46.9999 143.005 47.0311 142.953C47.058 142.897 47.0958 142.847 47.1422 142.806C47.1885 142.765 47.2426 142.734 47.3013 142.714C47.3599 142.694 47.422 142.685 47.4838 142.689C47.5456 142.694 47.606 142.71 47.6615 142.738Z" fill="#2536EB"/>
<path d="M47.4994 142.547L52.5216 145.478C52.7375 145.603 52.9328 145.864 52.7805 146.088C52.6281 146.313 52.5395 146.456 52.3241 146.33L47.2551 143.485C47.0393 143.36 46.7571 142.956 46.8846 142.734C46.9124 142.681 46.9505 142.634 46.9965 142.596C47.0426 142.558 47.0958 142.529 47.153 142.512C47.2102 142.495 47.2703 142.489 47.3297 142.495C47.3892 142.501 47.4469 142.519 47.4994 142.547Z" fill="#1C247B"/>
<path opacity="0.309" d="M137.018 41.4733C137.657 40.9734 137.818 40.1107 137.377 39.5464C136.936 38.9821 136.06 38.9299 135.42 39.4298C134.781 39.9297 134.62 40.7924 135.061 41.3567C135.502 41.921 136.378 41.9732 137.018 41.4733Z" fill="url(#paint11_linear_0_6581)"/>
<path opacity="0.522" d="M136.577 40.9148C136.878 40.6795 136.955 40.2753 136.749 40.012C136.543 39.7487 136.133 39.7259 135.832 39.9612C135.531 40.1965 135.453 40.6007 135.659 40.864C135.865 41.1273 136.276 41.1501 136.577 40.9148Z" fill="url(#paint12_linear_0_6581)"/>
<path opacity="0.309" d="M123.361 33.6942C124 33.1943 124.161 32.3316 123.72 31.7673C123.279 31.2031 122.403 31.1509 121.763 31.6508C121.124 32.1507 120.963 33.0133 121.404 33.5776C121.845 34.1419 122.721 34.1941 123.361 33.6942Z" fill="url(#paint13_linear_0_6581)"/>
<path opacity="0.522" d="M122.92 33.136C123.221 32.9007 123.298 32.4965 123.092 32.2332C122.887 31.9699 122.476 31.9471 122.175 32.1824C121.874 32.4177 121.797 32.8219 122.003 33.0852C122.208 33.3485 122.619 33.3712 122.92 33.136Z" fill="url(#paint14_linear_0_6581)"/>
<path d="M58.8059 149.192L60.2952 150.064C60.3538 150.103 60.5263 150.15 60.3802 150.583C60.234 151.016 60.1385 150.948 60.0796 150.91L58.5337 150.026C58.4754 149.988 58.4333 149.838 58.5119 149.549C58.5906 149.26 58.7473 149.154 58.8059 149.192Z" fill="#1C247B"/>
<path d="M61.3988 150.748L62.8882 151.62C62.9468 151.658 63.1193 151.706 62.9731 152.139C62.827 152.572 62.7314 152.504 62.6725 152.465L61.1267 151.581C61.0684 151.543 61.0262 151.394 61.1049 151.105C61.1836 150.816 61.3402 150.709 61.3988 150.748Z" fill="#1C247B"/>
<path d="M64.1648 152.303L65.6542 153.176C65.7128 153.214 65.8853 153.262 65.7391 153.695C65.593 154.128 65.4974 154.06 65.4385 154.021L63.8926 153.137C63.8343 153.099 63.7922 152.95 63.8709 152.661C63.9496 152.372 64.1062 152.265 64.1648 152.303Z" fill="#1C247B"/>
<path d="M34.258 135.189L35.7474 136.062C35.806 136.1 35.9785 136.148 35.8323 136.581C35.6862 137.014 35.5906 136.946 35.5317 136.907L33.9858 136.023C33.9276 135.985 33.8854 135.836 33.9641 135.547C34.0428 135.258 34.1994 135.151 34.258 135.189Z" fill="#1C247B"/>
<path d="M37.024 136.745L38.5133 137.618C38.5719 137.656 38.7445 137.704 38.5983 138.137C38.4522 138.57 38.3566 138.501 38.2977 138.463L36.7518 137.579C36.6935 137.541 36.6514 137.392 36.7301 137.103C36.8088 136.814 36.9654 136.707 37.024 136.745Z" fill="#1C247B"/>
<path d="M39.7899 138.301L41.2792 139.173C41.3378 139.212 41.5103 139.259 41.3642 139.692C41.218 140.125 41.1225 140.057 41.0636 140.019L39.5177 139.135C39.4594 139.097 39.4173 138.947 39.496 138.658C39.5746 138.369 39.7313 138.262 39.7899 138.301Z" fill="#1C247B"/>
<path d="M80.5388 158.875C81.8056 158.17 83.2146 158.263 86.23 154.236C89.2454 150.21 154.179 61.3983 154.179 61.3983C154.179 61.3983 158.188 56.9734 158.074 53.4397C158.546 53.3889 155.722 57.5819 155.722 57.5819L135.253 86.0845C135.253 86.0845 86.2607 153.223 84.7221 154.597C83.1835 155.97 82.7964 156.749 79.0814 157.913C75.3665 159.076 79.2706 159.579 80.5388 158.875Z" fill="url(#paint15_linear_0_6581)"/>
<path d="M119.826 34.4881C123.319 36.3898 131.821 41.3121 135.724 43.4396C139.627 45.5671 140.895 41.5474 144.664 43.6788C148.433 45.8103 148.091 45.5945 150.958 47.3353C153.825 49.076 154.787 50.7202 152.611 53.6852L82.1823 149.302C78.2645 155.663 74.3992 153.592 69.7539 150.764L31.9333 129.016C28.8585 127.251 31.5908 123.695 32.7162 122.114L103.917 25.6464C104.87 24.4506 107.108 22.2936 111.8 24.6636C111.8 24.6636 111.871 24.7517 116.895 27.743C121.919 30.7343 116.332 32.5867 119.826 34.4881Z" fill="url(#paint16_linear_0_6581)"/>
<g opacity="0.218">
<path d="M137.442 44.282C137.442 44.282 134.909 42.9811 130.624 40.5911C122.976 57.222 110.879 86.8514 119.352 91.5406C120.729 92.2866 122.25 92.7308 123.812 92.8438C135.886 76.3994 147.051 61.2768 147.051 61.2768C147.051 61.2768 144.114 42.2475 140.881 43.3582C137.647 44.4689 137.442 44.282 137.442 44.282Z" fill="url(#paint17_linear_0_6581)"/>
<path d="M64.9498 78.7825C110.377 101.338 70.0246 93.0632 87.7254 61.9737C93.3463 52.1015 95.2675 44.0953 95.2626 37.7387C88.1178 47.2554 68.7703 73.5415 64.9498 78.7825Z" fill="url(#paint18_linear_0_6581)"/>
<path d="M101.149 123.46C96.2217 102.815 83.4552 69.0397 55.524 94.8887C32.1064 116.561 35.9312 128.5 44.7573 136.298C51.1393 139.899 63.6967 147.164 66.8573 149.116C71.7499 149.646 78.386 147.996 84.698 145.758C90.9789 137.332 92.7768 134.92 101.149 123.46Z" fill="url(#paint19_linear_0_6581)"/>
</g>
<path d="M152.688 42.9256C152.377 42.388 151.981 41.8689 151.542 41.4243C151.136 41.0133 150.714 40.6835 150.32 40.4704L150.316 40.468L128.545 27.9537L111.014 18.0563C109.704 17.3983 108.396 17.0057 107.127 16.8895C106.016 16.7877 104.929 16.8965 103.898 17.2129C103.006 17.4866 102.171 17.9088 101.416 18.4677C100.772 18.9439 100.208 19.5068 99.7842 20.0955L99.7827 20.0976L28.3918 116.548C28.2022 116.815 27.9141 117.253 27.6172 117.827C27.3275 118.388 27.0989 118.944 26.9377 119.48C26.7475 120.112 26.6554 120.706 26.6639 121.245C26.6736 121.857 26.8144 122.403 27.0823 122.867C27.3594 123.347 27.7799 123.751 28.3326 124.069L69.8686 148.025L69.9668 148.086C71.769 149.196 74.2373 150.717 76.618 150.13C77.2871 149.965 77.9232 149.637 78.5084 149.154C79.159 148.618 79.7688 147.874 80.3208 146.942L80.3255 146.934L80.3309 146.927L152.645 48.1374C153.239 47.3279 153.52 46.4265 153.479 45.4582C153.444 44.6371 153.17 43.7614 152.688 42.9256ZM152.852 42.8305C153.765 44.4108 154.135 46.4295 152.798 48.2499L80.4843 147.039C77.0804 152.783 72.5765 149.916 69.769 148.187L28.2376 124.233C24.9547 122.349 27.036 118.126 28.2376 116.437L99.6299 19.9845C101.235 17.7529 105.434 15.0393 111.104 17.8886L128.638 27.7882L150.41 40.3032C151.208 40.7346 152.178 41.6629 152.852 42.8305Z" fill="#06D6D5"/>
<path d="M112.463 90.3604C116.757 92.8063 116.778 92.8406 114.116 96.7108L101.988 112.958C98.6511 117.674 97.4678 116.753 93.3986 114.257L53.5561 91.4779C50.4814 89.7126 52.6972 87.3244 53.8227 85.7427L65.8731 69.2188C69.0033 65.2427 68.9803 65.1614 73.3056 67.6891C73.3056 67.6891 108.17 87.9162 112.463 90.3604Z" fill="url(#paint20_linear_0_6581)"/>
<path opacity="0.349" d="M95.6944 121.823C99.9881 124.269 100.009 124.303 97.3476 128.174L85.2199 144.421C81.8825 149.137 80.6993 148.216 76.6301 145.72L36.7876 122.941C33.7128 121.176 35.9286 118.787 37.0541 117.206L49.1046 100.682C52.2348 96.7056 52.2117 96.6243 56.5371 99.152C56.5371 99.152 91.401 119.379 95.6944 121.823Z" fill="url(#paint21_linear_0_6581)"/>
<g opacity="0.309">
<path d="M152.515 40.8506C152.204 40.313 151.808 39.7939 151.369 39.3494C150.963 38.9384 150.541 38.6085 150.147 38.3955L150.143 38.3931L128.372 25.8788L110.841 15.9814C109.531 15.3234 108.223 14.9308 106.954 14.8146C105.843 14.7127 104.756 14.8215 103.725 15.138C102.833 15.4117 101.998 15.8338 101.243 16.3927C100.599 16.869 100.035 17.4319 99.6112 18.0205L99.6097 18.0226L28.2189 114.473C28.0292 114.74 27.7411 115.178 27.4442 115.752C27.1546 116.313 26.9259 116.869 26.7647 117.405C26.5745 118.037 26.4825 118.631 26.491 119.17C26.5006 119.782 26.6414 120.328 26.9093 120.792C27.1864 121.272 27.607 121.677 28.1596 121.994L69.6957 145.95L69.7939 146.011C71.5961 147.121 74.0644 148.642 76.445 148.055C77.1141 147.89 77.7502 147.562 78.3355 147.079C78.9861 146.543 79.5958 145.799 80.1478 144.867L80.1525 144.859L80.1579 144.852L152.472 46.0625C153.066 45.2529 153.347 44.3515 153.306 43.3833C153.271 42.5622 152.997 41.6864 152.515 40.8506ZM152.679 40.7556C153.592 42.3358 153.962 44.3545 152.625 46.175L80.3113 144.964C76.9074 150.708 72.4036 147.841 69.596 146.112L28.0646 122.158C24.7818 120.274 26.8631 116.051 28.0646 114.362L99.4569 17.9095C101.062 15.6779 105.261 12.9644 110.931 15.8136L128.465 25.7132L150.238 38.2283C151.035 38.6596 152.005 39.5879 152.679 40.7556Z" fill="#06D6D5"/>
</g>
<path d="M128.886 58.2061C133.18 60.652 133.201 60.6863 130.539 64.5565L118.411 80.8037C115.074 85.5196 113.891 84.5989 109.822 82.1031L69.9791 59.3236C66.9044 57.5583 69.1202 55.1701 70.2457 53.5884L82.2962 37.0645C85.4263 33.0884 85.4033 33.0071 89.7287 35.5348C89.7287 35.5348 124.593 55.7619 128.886 58.2061Z" fill="url(#paint22_linear_0_6581)"/>
<path d="M68.4204 57.4726C68.7103 51.2587 68.7983 7.68604 68.7983 7.68604C68.7983 7.68604 132.076 17.7893 132.076 29.8613C132.035 34.5132 132.488 60.8119 132.327 61.3337C132.229 61.3002 132.384 62.0859 131.595 63.1167C127.045 69.3037 120.114 78.5864 117.747 81.6419C115.379 84.6974 114.367 85.0213 110.224 82.3072C98.157 75.5756 77.6262 63.7106 70.0219 59.3377C68.3101 58.3727 68.6331 57.6501 68.4204 57.4726Z" fill="url(#paint23_linear_0_6581)"/>
<defs>
<linearGradient id="paint0_linear_0_6581" x1="169.608" y1="78.0091" x2="40.1815" y2="152.734" gradientUnits="userSpaceOnUse">
<stop stop-color="#0BB5E3" stop-opacity="0"/>
<stop offset="1" stop-color="#2AF698" stop-opacity="0.275"/>
</linearGradient>
<linearGradient id="paint1_linear_0_6581" x1="159.031" y1="54.2468" x2="27.2027" y2="130.358" gradientUnits="userSpaceOnUse">
<stop stop-color="#0BB5E3"/>
<stop offset="1" stop-color="#2AF698" stop-opacity="0.275"/>
</linearGradient>
<linearGradient id="paint2_linear_0_6581" x1="157.278" y1="51.5988" x2="25.8296" y2="127.49" gradientUnits="userSpaceOnUse">
<stop stop-color="#0BB5E3"/>
<stop offset="1" stop-color="#2AF698"/>
</linearGradient>
<linearGradient id="paint3_linear_0_6581" x1="164.76" y1="44.3669" x2="100.987" y2="61.8435" gradientUnits="userSpaceOnUse">
<stop stop-color="#BDA0FF"/>
<stop offset="0.286" stop-color="#1A12ED"/>
<stop offset="0.837" stop-color="#1B1786" stop-opacity="0"/>
<stop offset="1"/>
</linearGradient>
<linearGradient id="paint4_linear_0_6581" x1="153.606" y1="56.7932" x2="153.606" y2="62.1041" gradientUnits="userSpaceOnUse">
<stop stop-color="#0BB5E3"/>
<stop offset="1" stop-color="#2AF698"/>
</linearGradient>
<linearGradient id="paint5_linear_0_6581" x1="85.8436" y1="148.796" x2="85.8436" y2="154.418" gradientUnits="userSpaceOnUse">
<stop stop-color="#0BB5E3"/>
<stop offset="1" stop-color="#2AF698"/>
</linearGradient>
<linearGradient id="paint6_linear_0_6581" x1="144.865" y1="68.2793" x2="144.865" y2="74.4625" gradientUnits="userSpaceOnUse">
<stop stop-color="#0BB5E3"/>
<stop offset="1" stop-color="#2AF698"/>
</linearGradient>
<linearGradient id="paint7_linear_0_6581" x1="145.038" y1="68.2793" x2="145.038" y2="74.4625" gradientUnits="userSpaceOnUse">
<stop stop-color="#0BB5E3"/>
<stop offset="1" stop-color="#2AF698"/>
</linearGradient>
<linearGradient id="paint8_linear_0_6581" x1="138.588" y1="76.5804" x2="138.694" y2="82.7631" gradientUnits="userSpaceOnUse">
<stop stop-color="#0BB5E3"/>
<stop offset="1" stop-color="#2AF698"/>
</linearGradient>
<linearGradient id="paint9_linear_0_6581" x1="138.761" y1="76.5777" x2="138.866" y2="82.7605" gradientUnits="userSpaceOnUse">
<stop stop-color="#0BB5E3"/>
<stop offset="1" stop-color="#2AF698"/>
</linearGradient>
<linearGradient id="paint10_linear_0_6581" x1="24.0552" y1="122.188" x2="53.5736" y2="180.83" gradientUnits="userSpaceOnUse">
<stop stop-color="#BDA0FF"/>
<stop offset="0.286" stop-color="#1A12ED"/>
<stop offset="0.837" stop-color="#1B1786" stop-opacity="0"/>
<stop offset="1"/>
</linearGradient>
<linearGradient id="paint11_linear_0_6581" x1="135.42" y1="39.4298" x2="137.018" y2="41.4733" gradientUnits="userSpaceOnUse">
<stop stop-color="#BDA0FF"/>
<stop offset="0.568" stop-color="#1A12ED"/>
<stop offset="1"/>
</linearGradient>
<linearGradient id="paint12_linear_0_6581" x1="135.832" y1="39.9612" x2="136.577" y2="40.9148" gradientUnits="userSpaceOnUse">
<stop stop-color="#BDA0FF"/>
<stop offset="0.568" stop-color="#1A12ED"/>
<stop offset="1"/>
</linearGradient>
<linearGradient id="paint13_linear_0_6581" x1="121.763" y1="31.6508" x2="123.361" y2="33.6942" gradientUnits="userSpaceOnUse">
<stop stop-color="#BDA0FF"/>
<stop offset="0.568" stop-color="#1A12ED"/>
<stop offset="1"/>
</linearGradient>
<linearGradient id="paint14_linear_0_6581" x1="122.175" y1="32.1824" x2="122.92" y2="33.136" gradientUnits="userSpaceOnUse">
<stop stop-color="#BDA0FF"/>
<stop offset="0.568" stop-color="#1A12ED"/>
<stop offset="1"/>
</linearGradient>
<linearGradient id="paint15_linear_0_6581" x1="63.4915" y1="178.869" x2="181.71" y2="87.2009" gradientUnits="userSpaceOnUse">
<stop stop-color="#0BB5E3" stop-opacity="0.431"/>
<stop offset="1" stop-color="#2AF698" stop-opacity="0.243"/>
</linearGradient>
<linearGradient id="paint16_linear_0_6581" x1="15.3843" y1="99.4774" x2="230.709" y2="52.902" gradientUnits="userSpaceOnUse">
<stop stop-color="#37364E"/>
<stop offset="1" stop-color="#0B0B10"/>
</linearGradient>
<linearGradient id="paint17_linear_0_6581" x1="87.0007" y1="84.3789" x2="185.742" y2="72.5121" gradientUnits="userSpaceOnUse">
<stop stop-color="#BDA0FF"/>
<stop offset="0.315" stop-color="#37364E"/>
<stop offset="0.514" stop-color="#262536"/>
<stop offset="1" stop-color="#222222"/>
</linearGradient>
<linearGradient id="paint18_linear_0_6581" x1="32.6098" y1="80.6771" x2="100.025" y2="75.1045" gradientUnits="userSpaceOnUse">
<stop stop-color="#BDA0FF"/>
<stop offset="0.315" stop-color="#37364E"/>
<stop offset="0.65" stop-color="#262536"/>
<stop offset="1" stop-color="#222222"/>
</linearGradient>
<linearGradient id="paint19_linear_0_6581" x1="84.1753" y1="44.384" x2="50.1201" y2="177.687" gradientUnits="userSpaceOnUse">
<stop stop-color="#BDA0FF"/>
<stop offset="0.388" stop-color="#37364E"/>
<stop offset="0.628" stop-color="#262536"/>
<stop offset="1" stop-color="#222222"/>
</linearGradient>
<linearGradient id="paint20_linear_0_6581" x1="52.1846" y1="89.5205" x2="131.702" y2="62.5865" gradientUnits="userSpaceOnUse">
<stop stop-color="#BDA0FF" stop-opacity="0.129"/>
<stop offset="0.151" stop-color="#173586" stop-opacity="0.294"/>
<stop offset="0.736" stop-color="#7A31C3"/>
<stop offset="1"/>
</linearGradient>
<linearGradient id="paint21_linear_0_6581" x1="35.416" y1="120.983" x2="114.933" y2="94.0494" gradientUnits="userSpaceOnUse">
<stop stop-color="#BDA0FF" stop-opacity="0.129"/>
<stop offset="0.151" stop-color="#173586" stop-opacity="0.294"/>
<stop offset="0.736" stop-color="#7A31C3"/>
<stop offset="1"/>
</linearGradient>
<linearGradient id="paint22_linear_0_6581" x1="68.6076" y1="57.3663" x2="148.125" y2="30.4322" gradientUnits="userSpaceOnUse">
<stop stop-color="#BDA0FF"/>
<stop offset="0.41" stop-color="#1A12ED"/>
<stop offset="0.935" stop-color="#1B1786" stop-opacity="0"/>
<stop offset="1"/>
</linearGradient>
<linearGradient id="paint23_linear_0_6581" x1="97.9614" y1="31.1617" x2="81.0237" y2="173.173" gradientUnits="userSpaceOnUse">
<stop stop-color="#F393FF" stop-opacity="0"/>
<stop offset="0.337" stop-color="#6F3FDE" stop-opacity="0.639"/>
<stop offset="0.577" stop-color="#BDA0FF" stop-opacity="0.373"/>
<stop offset="1" stop-color="#BDA0FF"/>
</linearGradient>
</defs>
</svg>
