<svg width="165" height="190" viewBox="0 0 165 190" fill="none" xmlns="http://www.w3.org/2000/svg">
<path opacity="0.996" d="M3.35422 144.061L65.5499 108.281C68.0005 106.866 71.6021 107.005 73.8114 108.281L135.865 144.061C136.548 144.449 137.117 145.011 137.512 145.691C137.908 146.37 138.116 147.142 138.116 147.928C138.116 148.714 137.908 149.486 137.512 150.165C137.117 150.845 136.548 151.407 135.865 151.795L71.8607 188.568C71.1777 188.968 70.4005 189.179 69.609 189.179C68.8175 189.179 68.0403 188.968 67.3573 188.568L3.35422 151.795C0.215259 150.167 0.215259 145.825 3.35422 144.061Z" fill="url(#paint0_radial_0_9433)" stroke="#1F8885" stroke-opacity="0.49"/>
<mask id="mask0_0_9433" style="mask-type:luminance" maskUnits="userSpaceOnUse" x="1" y="107" width="138" height="83">
<path d="M3.35422 144.061L65.5499 108.281C68.0005 106.866 71.6021 107.005 73.8114 108.281L135.865 144.061C136.548 144.449 137.117 145.011 137.512 145.691C137.908 146.37 138.116 147.142 138.116 147.928C138.116 148.714 137.908 149.486 137.512 150.165C137.117 150.845 136.548 151.407 135.865 151.795L71.8607 188.568C71.1777 188.968 70.4005 189.179 69.609 189.179C68.8175 189.179 68.0403 188.968 67.3573 188.568L3.35422 151.795C0.215259 150.167 0.215259 145.825 3.35422 144.061Z" fill="white"/>
</mask>
<g mask="url(#mask0_0_9433)">
<path d="M3.35422 151.213L65.5499 115.433C68.0005 114.018 71.6021 114.157 73.8114 115.433L135.865 151.213C136.548 151.601 137.117 152.163 137.512 152.843C137.908 153.522 138.116 154.294 138.116 155.08C138.116 155.866 137.908 156.638 137.512 157.317C137.117 157.997 136.548 158.559 135.865 158.947L71.8607 195.72C71.1777 196.12 70.4005 196.331 69.609 196.331C68.8175 196.331 68.0403 196.12 67.3573 195.72L3.35422 158.947C0.215259 157.319 0.215259 152.977 3.35422 151.213Z" fill="url(#paint1_linear_0_9433)"/>
</g>
<path opacity="0.996" d="M13.1601 144.622L66.1032 114.165C68.1897 112.96 71.2549 113.079 73.1356 114.165L125.957 144.622C126.539 144.952 127.023 145.431 127.359 146.009C127.696 146.587 127.874 147.245 127.874 147.914C127.874 148.583 127.696 149.24 127.359 149.818C127.023 150.397 126.539 150.875 125.957 151.206L71.4751 182.508C70.8937 182.848 70.2321 183.027 69.5584 183.027C68.8847 183.027 68.2231 182.848 67.6416 182.508L13.1601 151.206C10.4882 149.82 10.4882 146.123 13.1601 144.622Z" fill="url(#paint2_radial_0_9433)" stroke="#1F8885" stroke-opacity="0.49"/>
<mask id="mask1_0_9433" style="mask-type:luminance" maskUnits="userSpaceOnUse" x="11" y="113" width="117" height="71">
<path d="M13.1601 144.622L66.1032 114.165C68.1897 112.96 71.2549 113.079 73.1356 114.165L125.957 144.622C126.539 144.952 127.023 145.431 127.359 146.009C127.696 146.587 127.874 147.245 127.874 147.914C127.874 148.583 127.696 149.24 127.359 149.818C127.023 150.397 126.539 150.875 125.957 151.206L71.4751 182.508C70.8937 182.848 70.2321 183.027 69.5584 183.027C68.8847 183.027 68.2231 182.848 67.6416 182.508L13.1601 151.206C10.4882 149.82 10.4882 146.123 13.1601 144.622Z" fill="white"/>
</mask>
<g mask="url(#mask1_0_9433)">
<path d="M13.1601 138.981L66.1033 108.523C68.1898 107.319 71.255 107.438 73.1357 108.523L125.957 138.981C126.539 139.311 127.023 139.79 127.36 140.368C127.696 140.946 127.874 141.603 127.874 142.272C127.874 142.942 127.696 143.599 127.36 144.177C127.023 144.755 126.539 145.234 125.957 145.564L71.4752 176.866C70.8938 177.207 70.2322 177.386 69.5585 177.386C68.8847 177.386 68.2232 177.207 67.6417 176.866L13.1601 145.564C10.4883 144.178 10.4883 140.482 13.1601 138.981Z" fill="#2B3E5B"/>
</g>
<path opacity="0.769" d="M84.6557 59.7748L136.869 89.0431C139.712 90.9401 139.537 91.2401 139.698 93.9696L139.838 137.042C139.838 139.067 138.157 141.307 136.171 140.279L83.178 110.189C81.1305 108.979 80.8748 108.014 80.8748 105.988V62.5287C81.1199 57.9093 84.6557 59.7748 84.6557 59.7748Z" fill="url(#paint3_linear_0_9433)"/>
<path opacity="0.459" d="M87.6758 58.3724L139.889 87.6407C142.733 89.5378 142.557 89.8377 142.718 92.5673L142.858 135.639C142.858 137.665 141.177 139.905 139.191 138.877L86.1982 108.787C84.1506 107.577 83.8949 106.611 83.8949 104.586V61.1263C84.14 56.5069 87.6758 58.3724 87.6758 58.3724Z" fill="url(#paint4_linear_0_9433)"/>
<path d="M29.8169 142.106L67.2457 120.574C68.7202 119.722 70.8878 119.806 72.2174 120.574L109.56 142.106C109.972 142.339 110.314 142.678 110.552 143.086C110.79 143.495 110.915 143.96 110.915 144.433C110.915 144.906 110.79 145.371 110.552 145.779C110.314 146.188 109.972 146.527 109.56 146.76L71.0436 168.89C70.6326 169.13 70.1649 169.257 69.6886 169.257C69.2123 169.257 68.7446 169.13 68.3335 168.89L29.8169 146.76C27.928 145.78 27.928 143.167 29.8169 142.106Z" fill="url(#paint5_linear_0_9433)"/>
<path d="M36.3868 142.02L67.4795 124.133C68.7046 123.425 70.5051 123.495 71.6096 124.133L102.631 142.02C102.973 142.214 103.257 142.495 103.455 142.834C103.653 143.174 103.757 143.56 103.757 143.953C103.757 144.346 103.653 144.732 103.455 145.072C103.257 145.412 102.973 145.693 102.631 145.887L70.6344 164.27C70.2929 164.469 69.9044 164.575 69.5087 164.575C69.113 164.575 68.7245 164.469 68.383 164.27L36.3868 145.886C34.8177 145.072 34.8177 142.902 36.3868 142.02Z" fill="url(#paint6_linear_0_9433)"/>
<path d="M36.3868 119.704L67.4795 101.817C68.7046 101.11 70.5051 101.18 71.6096 101.817L102.631 119.704C102.973 119.898 103.257 120.18 103.455 120.519C103.653 120.859 103.757 121.245 103.757 121.638C103.757 122.031 103.653 122.417 103.455 122.757C103.257 123.096 102.973 123.378 102.631 123.572L70.6344 141.954C70.2929 142.154 69.9044 142.26 69.5087 142.26C69.113 142.26 68.7245 142.154 68.383 141.954L36.3868 123.571C34.8177 122.757 34.8177 120.586 36.3868 119.704Z" fill="url(#paint7_linear_0_9433)"/>
<path d="M39.0342 119.454L67.6391 102.998C68.7658 102.348 70.4227 102.412 71.4388 102.998L99.9787 119.454C100.293 119.632 100.555 119.891 100.737 120.203C100.919 120.516 101.015 120.871 101.015 121.233C101.015 121.594 100.919 121.949 100.737 122.262C100.555 122.574 100.293 122.833 99.9787 123.011L70.5423 139.925C70.2282 140.108 69.8707 140.205 69.5067 140.205C69.1427 140.205 68.7852 140.108 68.4711 139.925L39.0342 123.011C37.5904 122.263 37.5904 120.266 39.0342 119.454Z" fill="url(#paint8_linear_0_9433)"/>
<path d="M40.0523 118.889L67.7014 102.982C68.7908 102.353 70.3919 102.416 71.3737 102.982L98.9597 118.889C99.2636 119.061 99.5164 119.311 99.6922 119.613C99.8681 119.915 99.9607 120.258 99.9607 120.608C99.9607 120.957 99.8681 121.3 99.6922 121.602C99.5164 121.904 99.2636 122.154 98.9597 122.327L70.5069 138.674C70.2033 138.852 69.8578 138.946 69.506 138.946C69.1541 138.946 68.8086 138.852 68.505 138.674L40.0523 122.327C38.6567 121.603 38.6567 119.673 40.0523 118.889Z" fill="url(#paint9_linear_0_9433)"/>
<path d="M36.3865 99.8211L67.4794 81.9339C68.7045 81.2266 70.505 81.2963 71.6095 81.9339L102.631 99.8211C102.973 100.015 103.257 100.296 103.455 100.636C103.653 100.975 103.757 101.362 103.757 101.755C103.757 102.148 103.653 102.534 103.455 102.873C103.257 103.213 102.973 103.494 102.631 103.688L70.9084 122.071C70.6342 122.374 68.9387 122.478 68.2564 122.071L36.3865 103.91C34.8174 103.095 34.8174 100.703 36.3865 99.8211Z" fill="url(#paint10_linear_0_9433)"/>
<path d="M35.2096 121.5C35.0735 119.98 35.2096 144.199 35.2096 144.199C35.2096 144.199 35.0963 145.217 36.6799 146.099C38.2634 146.981 66.1672 163.004 67.0947 163.481C68.0222 163.958 69.0749 165.388 71.7685 163.614C74.462 161.841 102.422 146.099 102.422 146.099C102.422 146.099 103.869 145.328 103.982 144.199C104.094 143.07 103.787 121.5 103.787 121.5C103.516 122.324 102.969 123.029 102.238 123.496C101.032 124.243 71.5297 141.058 71.5297 141.058C71.5297 141.058 69.8564 142.666 67.2699 141.058C64.6835 139.451 36.6799 123.496 36.6799 123.496C36.2752 123.331 35.924 123.057 35.6647 122.705C35.4054 122.352 35.248 121.936 35.2096 121.5Z" fill="url(#paint11_linear_0_9433)"/>
<path d="M35.2096 121.5C35.0735 119.98 35.2096 144.199 35.2096 144.199C35.2096 144.199 35.0963 145.217 36.6799 146.099C38.2634 146.981 66.1672 163.004 67.0947 163.481C68.0222 163.958 69.0749 165.388 71.7685 163.614C74.462 161.841 102.422 146.099 102.422 146.099C102.422 146.099 103.869 145.328 103.982 144.199C104.094 143.07 103.787 121.5 103.787 121.5C103.516 122.324 102.969 123.029 102.238 123.496C101.032 124.243 71.5297 141.058 71.5297 141.058C71.5297 141.058 69.8564 142.666 67.2699 141.058C64.6835 139.451 36.6799 123.496 36.6799 123.496C36.2752 123.331 35.924 123.057 35.6647 122.705C35.4054 122.352 35.248 121.936 35.2096 121.5Z" fill="url(#paint12_linear_0_9433)"/>
<path d="M35.2096 101.903C35.0735 100.382 35.2096 116.162 35.2096 116.162C35.2096 116.162 35.0963 117.181 36.6799 118.062C38.2634 118.944 66.1673 134.967 67.0951 135.444C68.0229 135.921 69.0753 137.351 71.7689 135.577C74.4624 133.804 102.423 118.062 102.423 118.062C102.423 118.062 103.869 117.291 103.982 116.162C104.095 115.033 103.787 101.903 103.787 101.903C103.517 102.727 102.969 103.432 102.238 103.899C101.033 104.645 71.5301 121.461 71.5301 121.461C71.5301 121.461 69.8568 123.068 67.2704 121.461C64.6839 119.854 36.6803 103.899 36.6803 103.899C36.2756 103.733 35.9244 103.459 35.665 103.107C35.4056 102.755 35.2481 102.338 35.2096 101.903Z" fill="url(#paint13_linear_0_9433)"/>
<g filter="url(#filter0_d_0_9433)">
<g opacity="0.322">
<path d="M69.5738 110.813C77.4849 110.813 83.898 106.577 83.898 101.352C83.898 96.1271 77.4849 91.8914 69.5738 91.8914C61.6627 91.8914 55.2495 96.1271 55.2495 101.352C55.2495 106.577 61.6627 110.813 69.5738 110.813Z" stroke="#3F3C58" stroke-width="10"/>
</g>
</g>
<g filter="url(#filter1_d_0_9433)">
<g opacity="0.322">
<path d="M69.7176 107.867C75.7645 107.867 80.6664 104.758 80.6664 100.923C80.6664 97.0882 75.7645 93.9795 69.7176 93.9795C63.6708 93.9795 58.7688 97.0882 58.7688 100.923C58.7688 104.758 63.6708 107.867 69.7176 107.867Z" stroke="#3F3C58" stroke-width="3"/>
</g>
</g>
<path opacity="0.697" d="M138.896 90.4866C138.473 90.0284 141.5 88.8331 141.5 88.8331C141.5 88.8331 142.654 89.3319 142.701 91.12C142.749 92.9082 142.828 135.056 142.828 135.056C142.828 135.056 143.159 137.08 141.699 138.531C140.239 139.983 137.419 140.627 137.419 140.627C137.419 140.627 138.438 140.313 139.052 139.477C139.665 138.641 139.875 137.284 139.875 137.284L139.68 92.6375C139.68 92.6375 139.318 90.9447 138.896 90.4866Z" fill="url(#paint14_linear_0_9433)"/>
<g filter="url(#filter2_d_0_9433)">
<path opacity="0.085" d="M64.2257 119.317C64.2674 119.359 68.05 122 69.7515 121.904C70.4428 121.866 103.577 103.531 103.613 101.868C103.65 100.205 101.094 99.1315 101.094 99.1315L71.8855 82.4207C71.8855 82.4207 69.7572 80.8194 67.1531 82.4207C59.0255 87.0945 40.6112 97.5744 37.4572 99.3771C33.4038 101.694 36.8957 103.701 36.8957 103.701C36.8957 103.701 64.1664 119.257 64.2257 119.317Z" stroke="#1ABFB4" stroke-width="4" stroke-linecap="round"/>
</g>
<path opacity="0.848" d="M82.933 59.4023C82.3272 59.5502 85.5171 58.1322 85.5171 58.1322C85.5171 58.1322 86.2974 57.7231 87.884 58.5481C89.4706 59.3731 127.683 80.7601 127.683 80.7601L124.993 82.4492L85.5171 60.2239C85.5171 60.2239 83.539 59.2545 82.933 59.4023Z" fill="url(#paint15_linear_0_9433)"/>
<path d="M66.619 85.0929L69.397 83.5149C69.5043 83.4966 69.614 83.4966 69.7213 83.5149L72.4576 85.0929C72.4877 85.11 72.5128 85.1348 72.5302 85.1647C72.5476 85.1947 72.5568 85.2287 72.5568 85.2633C72.5568 85.2979 72.5476 85.3319 72.5302 85.3619C72.5128 85.3918 72.4877 85.4166 72.4576 85.4337L69.6375 87.054C69.6074 87.0716 69.5731 87.0809 69.5382 87.0809C69.5033 87.0809 69.4691 87.0716 69.439 87.054L66.619 85.4337C66.5877 85.4175 66.5615 85.3931 66.5432 85.363C66.5249 85.333 66.5152 85.2985 66.5152 85.2633C66.5152 85.2281 66.5249 85.1936 66.5432 85.1636C66.5615 85.1335 66.5877 85.1091 66.619 85.0929Z" fill="url(#paint16_linear_0_9433)"/>
<path d="M66.619 85.093L69.3593 83.5164C69.4155 83.4872 69.4779 83.4719 69.5413 83.4719C69.6047 83.4719 69.6671 83.4872 69.7233 83.5164L72.4576 85.093C72.4877 85.1101 72.5128 85.1349 72.5302 85.1648C72.5476 85.1947 72.5568 85.2287 72.5568 85.2634C72.5568 85.298 72.5476 85.332 72.5302 85.362C72.5128 85.3919 72.4877 85.4167 72.4576 85.4338L69.6375 87.054C69.6074 87.0717 69.5731 87.081 69.5382 87.081C69.5034 87.081 69.4691 87.0717 69.439 87.054L66.619 85.4338C66.5877 85.4176 66.5615 85.3932 66.5432 85.3631C66.5249 85.3331 66.5153 85.2986 66.5153 85.2634C66.5153 85.2282 66.5249 85.1937 66.5432 85.1636C66.5615 85.1336 66.5877 85.1091 66.619 85.093Z" fill="url(#paint17_linear_0_9433)"/>
<path opacity="0.399" d="M72.5535 85.29C72.5581 85.3874 72.4296 85.4497 72.4296 85.4497C72.4296 85.4497 71.9588 85.72 71.4038 86.0399C70.7107 86.4384 69.8826 86.9147 69.7449 86.9944C69.6834 87.0365 69.6107 87.0591 69.5362 87.0591C69.4617 87.0591 69.389 87.0365 69.3276 86.9944L66.5793 85.4054C66.5793 85.4054 66.5191 85.3807 66.517 85.2725" stroke="white" stroke-linecap="round" stroke-linejoin="round"/>
<path d="M67.3731 85.1407L69.4596 83.9777C69.4819 83.9646 69.5073 83.9578 69.5331 83.9578C69.5589 83.9578 69.5843 83.9646 69.6065 83.9777L71.6931 85.1407C71.7154 85.1534 71.7339 85.1717 71.7468 85.1938C71.7597 85.216 71.7665 85.2412 71.7665 85.2668C71.7665 85.2924 71.7597 85.3176 71.7468 85.3398C71.7339 85.3619 71.7154 85.3803 71.6931 85.3929L69.6065 86.592C69.5843 86.605 69.5589 86.6119 69.5331 86.6119C69.5073 86.6119 69.4819 86.605 69.4596 86.592L67.3731 85.3929C67.35 85.3809 67.3306 85.3628 67.3171 85.3406C67.3036 85.3184 67.2964 85.2928 67.2964 85.2668C67.2964 85.2408 67.3036 85.2153 67.3171 85.193C67.3306 85.1708 67.35 85.1527 67.3731 85.1407Z" fill="url(#paint18_linear_0_9433)"/>
<path d="M68.3293 85.1443L69.4785 84.4905C69.523 84.483 69.5684 84.483 69.6128 84.4905L70.7446 85.1443C70.7571 85.1514 70.7675 85.1616 70.7747 85.174C70.7819 85.1864 70.7857 85.2005 70.7857 85.2148C70.7857 85.2292 70.7819 85.2433 70.7747 85.2556C70.7675 85.268 70.7571 85.2783 70.7446 85.2854L69.578 85.955C69.5656 85.9623 69.5514 85.9661 69.537 85.9661C69.5225 85.9661 69.5084 85.9623 69.4959 85.955L68.3293 85.2848C68.3165 85.2781 68.3057 85.268 68.2982 85.2556C68.2907 85.2432 68.2868 85.229 68.2868 85.2146C68.2868 85.2001 68.2907 85.1859 68.2982 85.1735C68.3057 85.1611 68.3165 85.151 68.3293 85.1443Z" fill="url(#paint19_linear_0_9433)"/>
<path d="M68.3293 85.1438L69.463 84.4916C69.4862 84.4795 69.5121 84.4731 69.5383 84.4731C69.5645 84.4731 69.5904 84.4795 69.6136 84.4916L70.7447 85.1438C70.7571 85.1509 70.7675 85.1611 70.7747 85.1735C70.7819 85.1859 70.7857 85.2 70.7857 85.2143C70.7857 85.2287 70.7819 85.2427 70.7747 85.2551C70.7675 85.2675 70.7571 85.2778 70.7447 85.2848L69.578 85.955C69.5656 85.9623 69.5514 85.9662 69.537 85.9662C69.5226 85.9662 69.5084 85.9623 69.4959 85.955L68.3293 85.2847C68.3164 85.278 68.3055 85.2679 68.298 85.2555C68.2904 85.2431 68.2864 85.2288 68.2864 85.2143C68.2864 85.1997 68.2904 85.1854 68.298 85.173C68.3055 85.1606 68.3164 85.1505 68.3293 85.1438Z" fill="url(#paint20_linear_0_9433)"/>
<path opacity="0.399" d="M70.7838 85.2258C70.7855 85.2661 70.7326 85.2917 70.7326 85.2917C70.7326 85.2917 70.5385 85.403 70.3075 85.5359C70.0211 85.7008 69.6787 85.8975 69.6221 85.9309C69.5966 85.9484 69.5664 85.9578 69.5354 85.9578C69.5045 85.9578 69.4743 85.9484 69.4488 85.9309L68.312 85.2737C68.312 85.2737 68.2873 85.2634 68.2868 85.218" stroke="white" stroke-linecap="round" stroke-linejoin="round"/>
<path d="M68.6409 85.1637L69.5047 84.6826C69.5139 84.6772 69.5244 84.6743 69.5351 84.6743C69.5458 84.6743 69.5563 84.6772 69.5655 84.6826L70.4289 85.1637C70.4381 85.1689 70.4458 85.1765 70.4512 85.1857C70.4565 85.1949 70.4593 85.2053 70.4593 85.2159C70.4593 85.2265 70.4565 85.2369 70.4512 85.2461C70.4458 85.2552 70.4381 85.2628 70.4289 85.268L69.5655 85.7641C69.5563 85.7695 69.5458 85.7723 69.5351 85.7723C69.5244 85.7723 69.5139 85.7695 69.5047 85.7641L68.6409 85.268C68.6313 85.2631 68.6233 85.2556 68.6177 85.2464C68.6121 85.2372 68.6091 85.2267 68.6091 85.2159C68.6091 85.2051 68.6121 85.1945 68.6177 85.1853C68.6233 85.1761 68.6313 85.1687 68.6409 85.1637Z" fill="url(#paint21_linear_0_9433)"/>
<path d="M69.5744 104.213C72.6554 104.213 75.1532 102.483 75.1532 100.35C75.1532 98.2174 72.6554 96.4883 69.5744 96.4883C66.4933 96.4883 63.9956 98.2174 63.9956 100.35C63.9956 102.483 66.4933 104.213 69.5744 104.213Z" fill="url(#paint22_linear_0_9433)"/>
<path d="M69.5744 104.143C72.617 104.143 75.0836 102.445 75.0836 100.35C75.0836 98.2559 72.617 96.5579 69.5744 96.5579C66.5317 96.5579 64.0651 98.2559 64.0651 100.35C64.0651 102.445 66.5317 104.143 69.5744 104.143Z" stroke="#3F3C58"/>
<path d="M64.091 101.412C63.8196 101.479 64.2961 58.9805 64.2961 58.9805C64.2961 58.9805 75.0426 65.4044 75.0426 68.4729V101.053C75.0426 101.053 69.3075 96.151 64.091 101.412Z" fill="url(#paint23_linear_0_9433)"/>
<g opacity="0.206">
<path d="M69.4023 87.3258C69.3064 87.3937 69.2336 87.4894 69.1936 87.6C69.1537 87.7105 69.1485 87.8307 69.1788 87.9442C69.2092 88.0578 69.2735 88.1594 69.3633 88.2353C69.453 88.3112 69.5638 88.3579 69.6809 88.369C69.7979 88.3801 69.9155 88.3551 70.0179 88.2974C70.1203 88.2397 70.2026 88.152 70.2538 88.0462C70.3049 87.9403 70.3224 87.8213 70.304 87.7053C70.2855 87.5892 70.232 87.4815 70.1505 87.3967C70.1455 87.3883 70.1389 87.381 70.1311 87.3752C70.0604 87.3254 70.002 87.2603 69.9601 87.1847C69.9182 87.1091 69.894 87.0251 69.8892 86.9388C69.8892 86.7752 69.9282 86.6898 70.1311 86.4937L70.1269 86.4876C70.2118 86.4087 70.2709 86.306 70.2965 86.1929C70.3221 86.0799 70.313 85.9617 70.2703 85.854C70.2276 85.7462 70.1534 85.6538 70.0574 85.5889C69.9614 85.524 69.848 85.4896 69.732 85.4902C69.6161 85.4909 69.5031 85.5265 69.4078 85.5924C69.3124 85.6583 69.2392 85.7515 69.1977 85.8597C69.1562 85.9679 69.1483 86.0862 69.1751 86.1989C69.2019 86.3117 69.2622 86.4138 69.3479 86.4917L69.3458 86.4948C69.5485 86.6895 69.5877 86.7758 69.5877 86.9399C69.5843 87.0134 69.5661 87.0854 69.5342 87.1517C69.5024 87.218 69.4575 87.2772 69.4023 87.3258Z" fill="white"/>
<path d="M71.7383 90.104C71.7383 90.0081 71.7144 89.9136 71.6687 89.8293C71.623 89.745 71.557 89.6734 71.4766 89.621C71.3963 89.5687 71.3041 89.5372 71.2085 89.5295C71.1129 89.5217 71.0168 89.538 70.9291 89.5768C70.8414 89.6155 70.7647 89.6756 70.706 89.7515C70.6474 89.8274 70.6086 89.9167 70.5932 90.0114C70.5778 90.1061 70.5863 90.2031 70.6179 90.2936C70.6495 90.3842 70.7031 90.4655 70.7741 90.53L70.772 90.5321C70.9747 90.7269 71.0139 90.8131 71.0139 90.9773C71.0109 91.051 70.993 91.1233 70.9611 91.1898C70.9293 91.2564 70.8842 91.3157 70.8286 91.3642C70.7327 91.4322 70.6598 91.5278 70.6199 91.6384C70.5799 91.7489 70.5747 91.8691 70.605 91.9827C70.6353 92.0962 70.6997 92.1978 70.7894 92.2738C70.8791 92.3497 70.99 92.3964 71.107 92.4075C71.224 92.4186 71.3416 92.3936 71.4441 92.3359C71.5465 92.2783 71.6288 92.1906 71.68 92.0848C71.7311 91.9789 71.7486 91.86 71.7302 91.7439C71.7118 91.6278 71.6583 91.5201 71.5768 91.4353C71.5718 91.4269 71.5651 91.4196 71.5572 91.4138C71.4866 91.364 71.4282 91.2988 71.3863 91.2233C71.3444 91.1477 71.3201 91.0637 71.3153 90.9774C71.3153 90.8138 71.3544 90.7283 71.5572 90.5323L71.5532 90.526C71.6117 90.4724 71.6584 90.4072 71.6903 90.3345C71.7222 90.2619 71.7385 90.1833 71.7383 90.104Z" fill="white"/>
<path d="M67.975 91.363C67.879 91.4309 67.8062 91.5266 67.7662 91.6372C67.7263 91.7477 67.7211 91.8678 67.7514 91.9814C67.7817 92.095 67.846 92.1966 67.9358 92.2725C68.0255 92.3485 68.1363 92.3951 68.2534 92.4062C68.3704 92.4174 68.488 92.3924 68.5904 92.3347C68.6928 92.277 68.7752 92.1894 68.8263 92.0835C68.8775 91.9777 68.895 91.8587 68.8766 91.7426C68.8581 91.6265 68.8046 91.5189 68.7232 91.4341C68.7181 91.4257 68.7115 91.4183 68.7036 91.4125C68.633 91.3627 68.5745 91.2976 68.5326 91.222C68.4908 91.1465 68.4665 91.0624 68.4617 90.9762C68.4617 90.8126 68.5008 90.7272 68.7036 90.531L68.6994 90.5249C68.7843 90.446 68.8435 90.3433 68.8691 90.2303C68.8946 90.1172 68.8855 89.9991 68.8428 89.8913C68.8002 89.7835 68.726 89.6912 68.6299 89.6263C68.5339 89.5614 68.4205 89.527 68.3046 89.5276C68.1887 89.5282 68.0756 89.5638 67.9803 89.6297C67.885 89.6957 67.8117 89.7888 67.7702 89.8971C67.7287 90.0053 67.7208 90.1235 67.7477 90.2363C67.7745 90.3491 67.8347 90.4511 67.9204 90.5291L67.9184 90.5321C68.121 90.7269 68.1603 90.8131 68.1603 90.9773C68.1573 91.0508 68.1393 91.1229 68.1074 91.1893C68.0756 91.2556 68.0305 91.3147 67.975 91.363Z" fill="white"/>
<path d="M73.2234 91.05C73.2234 90.9541 73.1995 90.8597 73.1538 90.7754C73.1081 90.691 73.0421 90.6194 72.9617 90.5671C72.8813 90.5147 72.7892 90.4832 72.6936 90.4755C72.598 90.4678 72.5019 90.484 72.4142 90.5228C72.3265 90.5616 72.2498 90.6216 72.1911 90.6975C72.1325 90.7734 72.0937 90.8627 72.0783 90.9574C72.0629 91.0521 72.0714 91.1491 72.103 91.2397C72.1345 91.3303 72.1882 91.4115 72.2592 91.4761L72.2571 91.4791C72.4599 91.6739 72.499 91.7601 72.499 91.9243C72.496 91.998 72.4781 92.0703 72.4462 92.1369C72.4144 92.2034 72.3693 92.2627 72.3137 92.3113C72.2177 92.3792 72.1449 92.4748 72.1049 92.5854C72.0649 92.6959 72.0597 92.8161 72.09 92.9297C72.1203 93.0433 72.1847 93.1449 72.2744 93.2208C72.3641 93.2968 72.4749 93.3434 72.592 93.3546C72.709 93.3657 72.8266 93.3407 72.9291 93.283C73.0315 93.2253 73.1138 93.1377 73.165 93.0318C73.2161 92.926 73.2336 92.807 73.2152 92.6909C73.1967 92.5748 73.1432 92.4671 73.0618 92.3823C73.0567 92.3739 73.0501 92.3666 73.0422 92.3608C72.9716 92.311 72.9131 92.2459 72.8712 92.1703C72.8293 92.0947 72.8051 92.0107 72.8003 91.9244C72.8003 91.7608 72.8394 91.6753 73.0422 91.4793L73.038 91.4732C73.0965 91.4193 73.1431 91.3539 73.1751 91.281C73.207 91.2082 73.2234 91.1295 73.2234 91.05Z" fill="white"/>
<path d="M74.5274 91.5512C74.4569 91.5014 74.3985 91.4363 74.3566 91.3607C74.3147 91.2851 74.2905 91.2011 74.2857 91.1148C74.2857 90.9512 74.3248 90.8658 74.5274 90.6697L74.5234 90.6636C74.6083 90.5847 74.6675 90.482 74.6931 90.3689C74.7186 90.2559 74.7095 90.1378 74.6668 90.03C74.6242 89.9222 74.55 89.8298 74.4539 89.7649C74.3579 89.7 74.2445 89.6656 74.1286 89.6663C74.0127 89.6669 73.8996 89.7025 73.8043 89.7684C73.709 89.8343 73.6357 89.9275 73.5942 90.0357C73.5527 90.144 73.5449 90.2622 73.5717 90.375C73.5985 90.4877 73.6587 90.5898 73.7444 90.6677L73.7424 90.6708C73.945 90.8656 73.9843 90.9518 73.9843 91.1159C73.9813 91.1896 73.9633 91.262 73.9315 91.3285C73.8996 91.3951 73.8545 91.4544 73.799 91.5029C73.7031 91.5709 73.6302 91.6666 73.5903 91.7771C73.5503 91.8877 73.5452 92.0078 73.5755 92.1214C73.6058 92.235 73.6702 92.3365 73.7599 92.4125C73.8497 92.4884 73.9605 92.535 74.0775 92.5461C74.1946 92.5572 74.3122 92.5322 74.4146 92.4745C74.517 92.4168 74.5993 92.3291 74.6504 92.2233C74.7016 92.1174 74.7191 91.9985 74.7006 91.8824C74.6822 91.7663 74.6286 91.6586 74.5472 91.5739C74.5431 91.5644 74.5362 91.5565 74.5274 91.5512Z" fill="white"/>
<path d="M65.8633 90.2207C65.8633 90.1248 65.8394 90.0303 65.7937 89.946C65.748 89.8617 65.6819 89.7901 65.6016 89.7377C65.5212 89.6854 65.429 89.6539 65.3334 89.6462C65.2378 89.6384 65.1418 89.6547 65.0541 89.6935C64.9663 89.7322 64.8897 89.7923 64.831 89.8682C64.7723 89.9441 64.7336 90.0334 64.7182 90.1281C64.7028 90.2228 64.7112 90.3198 64.7428 90.4103C64.7744 90.5009 64.8281 90.5822 64.899 90.6467L64.897 90.6498C65.0996 90.8445 65.1388 90.9308 65.1388 91.0949C65.1359 91.1686 65.1179 91.241 65.0861 91.3075C65.0542 91.3741 65.0091 91.4334 64.9536 91.4819C64.858 91.5501 64.7855 91.6459 64.746 91.7565C64.7064 91.867 64.7016 91.9871 64.7322 92.1004C64.7628 92.2138 64.8273 92.3151 64.9171 92.3907C65.007 92.4664 65.1178 92.5127 65.2347 92.5236C65.3516 92.5344 65.4691 92.5093 65.5713 92.4515C65.6735 92.3937 65.7556 92.306 65.8065 92.2002C65.8575 92.0944 65.8748 91.9755 65.8563 91.8596C65.8377 91.7436 65.7842 91.6361 65.7028 91.5515C65.6977 91.5431 65.691 91.5357 65.6832 91.5299C65.6125 91.4801 65.5541 91.415 65.5122 91.3394C65.4703 91.2639 65.4461 91.1798 65.4413 91.0935C65.4413 90.93 65.4803 90.8445 65.6832 90.6484L65.679 90.6423C65.7371 90.5885 65.7835 90.5233 65.8152 90.4508C65.847 90.3782 65.8633 90.2999 65.8633 90.2207Z" fill="white"/>
<path d="M69.4024 92.3084C69.3065 92.3764 69.2336 92.472 69.1937 92.5826C69.1537 92.6931 69.1485 92.8133 69.1788 92.9268C69.2091 93.0404 69.2735 93.142 69.3632 93.2179C69.4529 93.2939 69.5637 93.3405 69.6808 93.3517C69.7978 93.3628 69.9154 93.3378 70.0178 93.2801C70.1203 93.2224 70.2026 93.1348 70.2537 93.0289C70.3049 92.9231 70.3224 92.8041 70.304 92.6881C70.2856 92.572 70.232 92.4643 70.1506 92.3795C70.1456 92.3711 70.139 92.3638 70.1311 92.3579C70.0605 92.3081 70.0021 92.243 69.9602 92.1675C69.9183 92.0919 69.8941 92.0078 69.8892 91.9216C69.887 91.8529 69.9003 91.7845 69.9281 91.7216C69.9558 91.6588 69.9974 91.603 70.0498 91.5584C70.13 91.506 70.196 91.4344 70.2416 91.3502C70.2873 91.2659 70.3112 91.1715 70.3111 91.0757V91.0479C70.3112 90.946 70.2842 90.8459 70.2329 90.7579C70.1816 90.6699 70.1078 90.5972 70.019 90.5471C69.9382 90.4566 69.8922 90.3402 69.8894 90.2188C69.8894 90.0552 69.9285 89.9698 70.1313 89.7737L70.1271 89.7676C70.212 89.6887 70.2712 89.586 70.2968 89.473C70.3223 89.3599 70.3132 89.2418 70.2705 89.134C70.2279 89.0262 70.1537 88.9338 70.0576 88.8689C69.9616 88.804 69.8482 88.7697 69.7323 88.7703C69.6164 88.7709 69.5033 88.8065 69.408 88.8724C69.3127 88.9383 69.2394 89.0315 69.1979 89.1397C69.1564 89.248 69.1486 89.3662 69.1754 89.479C69.2022 89.5917 69.2624 89.6938 69.3481 89.7718L69.3461 89.7748C69.5487 89.9696 69.588 90.0558 69.588 90.2199C69.5847 90.3386 69.5404 90.4524 69.4628 90.5421C69.3709 90.5914 69.2941 90.6648 69.2407 90.7543C69.1872 90.8439 69.1591 90.9462 69.1592 91.0505V91.0772C69.1593 91.1762 69.1848 91.2735 69.2333 91.3599C69.2817 91.4462 69.3516 91.5186 69.4361 91.5702C69.486 91.6141 69.5255 91.6685 69.5517 91.7296C69.5779 91.7907 69.5901 91.8568 69.5874 91.9232C69.5839 91.9966 69.5657 92.0684 69.534 92.1346C69.5022 92.2008 69.4574 92.2599 69.4024 92.3084Z" fill="white"/>
<path d="M71.1548 88.9588C71.4765 88.9588 71.7372 88.698 71.7372 88.3764C71.7372 88.0547 71.4765 87.7939 71.1548 87.7939C70.8331 87.7939 70.5724 88.0547 70.5724 88.3764C70.5724 88.698 70.8331 88.9588 71.1548 88.9588Z" fill="white"/>
<path d="M68.3145 88.9588C68.6361 88.9588 68.8969 88.698 68.8969 88.3764C68.8969 88.0547 68.6361 87.7939 68.3145 87.7939C67.9928 87.7939 67.7321 88.0547 67.7321 88.3764C67.7321 88.698 67.9928 88.9588 68.3145 88.9588Z" fill="white"/>
<path d="M67.1331 92.3099C67.0779 92.2612 67.0331 92.2018 67.0014 92.1353C66.9698 92.0688 66.9519 91.9965 66.949 91.9229C66.949 91.7592 66.988 91.6738 67.1909 91.4778L67.1868 91.4717C67.2717 91.3928 67.3309 91.2901 67.3565 91.1771C67.3821 91.064 67.3729 90.9459 67.3303 90.8381C67.2876 90.7303 67.2134 90.6379 67.1173 90.573C67.0213 90.5081 66.9079 90.4738 66.792 90.4744C66.6761 90.475 66.5631 90.5106 66.4677 90.5765C66.3724 90.6424 66.2992 90.7356 66.2576 90.8438C66.2161 90.9521 66.2083 91.0703 66.2351 91.1831C66.2619 91.2958 66.3221 91.3979 66.4079 91.4759L66.4058 91.4789C66.6086 91.6737 66.6477 91.7599 66.6477 91.924C66.6447 91.9978 66.6268 92.0701 66.5949 92.1366C66.563 92.2032 66.518 92.2625 66.4624 92.311C66.3871 92.3642 66.3257 92.4347 66.2832 92.5165C66.2408 92.5983 66.2186 92.6891 66.2185 92.7813V92.7895C66.2188 92.8896 66.2448 92.988 66.2941 93.0751C66.3435 93.1622 66.4144 93.2351 66.5001 93.2868C66.5859 93.3385 66.6835 93.3673 66.7835 93.3703C66.8836 93.3733 66.9827 93.3504 67.0714 93.304C67.16 93.2575 67.2352 93.1889 67.2897 93.1049C67.3441 93.0209 67.376 92.9243 67.3822 92.8244C67.3885 92.7245 67.3689 92.6247 67.3253 92.5345C67.2817 92.4444 67.2156 92.3671 67.1334 92.3099H67.1331Z" fill="white"/>
<path d="M68.3145 94.1424C68.6361 94.1424 68.8969 93.8816 68.8969 93.56C68.8969 93.2383 68.6361 92.9775 68.3145 92.9775C67.9928 92.9775 67.7321 93.2383 67.7321 93.56C67.7321 93.8816 67.9928 94.1424 68.3145 94.1424Z" fill="white"/>
<path d="M71.1621 94.1424C71.4838 94.1424 71.7445 93.8816 71.7445 93.56C71.7445 93.2383 71.4838 92.9775 71.1621 92.9775C70.8405 92.9775 70.5797 93.2383 70.5797 93.56C70.5797 93.8816 70.8405 94.1424 71.1621 94.1424Z" fill="white"/>
</g>
<g opacity="0.206">
<path d="M69.4023 87.6124C69.3064 87.6804 69.2336 87.776 69.1936 87.8866C69.1537 87.9972 69.1485 88.1173 69.1788 88.2309C69.2092 88.3444 69.2735 88.446 69.3633 88.5219C69.453 88.5979 69.5638 88.6445 69.6809 88.6556C69.7979 88.6667 69.9155 88.6417 70.0179 88.584C70.1203 88.5263 70.2026 88.4386 70.2538 88.3328C70.3049 88.2269 70.3224 88.108 70.304 87.9919C70.2855 87.8758 70.232 87.7681 70.1505 87.6833C70.1455 87.6749 70.1389 87.6676 70.1311 87.6618C70.0604 87.612 70.002 87.5469 69.9601 87.4713C69.9182 87.3957 69.894 87.3117 69.8892 87.2254C69.8892 87.0618 69.9282 86.9764 70.1311 86.7803L70.1269 86.7742C70.2118 86.6953 70.2709 86.5926 70.2965 86.4795C70.3221 86.3665 70.313 86.2483 70.2703 86.1406C70.2276 86.0328 70.1534 85.9404 70.0574 85.8755C69.9614 85.8106 69.848 85.7762 69.732 85.7769C69.6161 85.7775 69.5031 85.8131 69.4078 85.879C69.3124 85.9449 69.2392 86.0381 69.1977 86.1463C69.1562 86.2545 69.1483 86.3728 69.1751 86.4856C69.2019 86.5983 69.2622 86.7004 69.3479 86.7783L69.3458 86.7814C69.5485 86.9762 69.5877 87.0624 69.5877 87.2265C69.5843 87.3 69.5661 87.372 69.5342 87.4383C69.5024 87.5046 69.4575 87.5638 69.4023 87.6124Z" fill="white"/>
<path d="M71.7383 90.3906C71.7383 90.2947 71.7144 90.2003 71.6687 90.1159C71.623 90.0316 71.557 89.96 71.4766 89.9076C71.3963 89.8553 71.3041 89.8238 71.2085 89.8161C71.1129 89.8084 71.0168 89.8246 70.9291 89.8634C70.8414 89.9021 70.7647 89.9622 70.706 90.0381C70.6474 90.114 70.6086 90.2033 70.5932 90.298C70.5778 90.3927 70.5863 90.4897 70.6179 90.5803C70.6495 90.6708 70.7031 90.7521 70.7741 90.8167L70.772 90.8187C70.9747 91.0135 71.0139 91.0997 71.0139 91.2639C71.0109 91.3376 70.993 91.4099 70.9611 91.4765C70.9293 91.543 70.8842 91.6023 70.8286 91.6509C70.7327 91.7188 70.6598 91.8145 70.6199 91.925C70.5799 92.0356 70.5747 92.1557 70.605 92.2693C70.6353 92.3829 70.6997 92.4844 70.7894 92.5604C70.8791 92.6363 70.99 92.683 71.107 92.6941C71.224 92.7052 71.3416 92.6803 71.4441 92.6226C71.5465 92.5649 71.6288 92.4772 71.68 92.3714C71.7311 92.2656 71.7486 92.1466 71.7302 92.0305C71.7118 91.9144 71.6583 91.8067 71.5768 91.7219C71.5718 91.7135 71.5651 91.7062 71.5572 91.7004C71.4866 91.6506 71.4282 91.5855 71.3863 91.5099C71.3444 91.4343 71.3201 91.3503 71.3153 91.264C71.3153 91.1004 71.3544 91.0149 71.5572 90.8189L71.5532 90.8126C71.6117 90.759 71.6584 90.6938 71.6903 90.6211C71.7222 90.5485 71.7385 90.47 71.7383 90.3906Z" fill="white"/>
<path d="M67.975 91.6494C67.879 91.7173 67.8062 91.813 67.7662 91.9235C67.7263 92.0341 67.7211 92.1542 67.7514 92.2678C67.7817 92.3814 67.846 92.483 67.9358 92.5589C68.0255 92.6348 68.1363 92.6815 68.2534 92.6926C68.3704 92.7037 68.488 92.6788 68.5904 92.6211C68.6928 92.5634 68.7752 92.4757 68.8263 92.3699C68.8775 92.2641 68.895 92.1451 68.8766 92.029C68.8581 91.9129 68.8046 91.8052 68.7232 91.7204C68.7181 91.7121 68.7115 91.7047 68.7036 91.6989C68.633 91.6491 68.5745 91.584 68.5326 91.5084C68.4908 91.4329 68.4665 91.3488 68.4617 91.2625C68.4617 91.0989 68.5008 91.0135 68.7036 90.8174L68.6994 90.8113C68.7843 90.7324 68.8435 90.6297 68.8691 90.5167C68.8946 90.4036 68.8855 90.2855 68.8428 90.1777C68.8002 90.0699 68.726 89.9775 68.6299 89.9126C68.5339 89.8477 68.4205 89.8134 68.3046 89.814C68.1887 89.8146 68.0756 89.8502 67.9803 89.9161C67.885 89.982 67.8117 90.0752 67.7702 90.1834C67.7287 90.2917 67.7208 90.4099 67.7477 90.5227C67.7745 90.6354 67.8347 90.7375 67.9204 90.8155L67.9184 90.8185C68.121 91.0133 68.1603 91.0995 68.1603 91.2636C68.1573 91.3372 68.1393 91.4093 68.1074 91.4756C68.0756 91.542 68.0305 91.6011 67.975 91.6494Z" fill="white"/>
<path d="M73.2234 91.3364C73.2234 91.2405 73.1995 91.1461 73.1538 91.0617C73.1081 90.9774 73.0421 90.9058 72.9617 90.8535C72.8813 90.8011 72.7892 90.7696 72.6936 90.7619C72.598 90.7542 72.5019 90.7704 72.4142 90.8092C72.3265 90.8479 72.2498 90.908 72.1911 90.9839C72.1325 91.0598 72.0937 91.1491 72.0783 91.2438C72.0629 91.3385 72.0714 91.4355 72.103 91.5261C72.1345 91.6166 72.1882 91.6979 72.2592 91.7625L72.2571 91.7655C72.4599 91.9603 72.499 92.0465 72.499 92.2106C72.496 92.2844 72.4781 92.3567 72.4462 92.4232C72.4144 92.4898 72.3693 92.5491 72.3137 92.5976C72.2177 92.6656 72.1449 92.7612 72.1049 92.8718C72.0649 92.9823 72.0597 93.1025 72.09 93.2161C72.1203 93.3296 72.1847 93.4312 72.2744 93.5072C72.3641 93.5831 72.4749 93.6298 72.592 93.6409C72.709 93.6521 72.8266 93.6271 72.9291 93.5694C73.0315 93.5117 73.1138 93.424 73.165 93.3182C73.2161 93.2123 73.2336 93.0934 73.2152 92.9773C73.1967 92.8612 73.1432 92.7535 73.0618 92.6687C73.0567 92.6603 73.0501 92.653 73.0422 92.6471C72.9716 92.5974 72.9131 92.5322 72.8712 92.4567C72.8293 92.3811 72.8051 92.2971 72.8003 92.2108C72.8003 92.0472 72.8394 91.9617 73.0422 91.7657L73.038 91.7595C73.0965 91.7057 73.1431 91.6402 73.1751 91.5674C73.207 91.4946 73.2234 91.4159 73.2234 91.3364Z" fill="white"/>
<path d="M74.5274 91.8376C74.4569 91.7878 74.3985 91.7226 74.3566 91.6471C74.3147 91.5715 74.2905 91.4875 74.2857 91.4012C74.2857 91.2376 74.3248 91.1522 74.5274 90.9561L74.5234 90.95C74.6083 90.8711 74.6675 90.7684 74.6931 90.6553C74.7186 90.5423 74.7095 90.4241 74.6668 90.3164C74.6242 90.2086 74.55 90.1162 74.4539 90.0513C74.3579 89.9864 74.2445 89.952 74.1286 89.9526C74.0127 89.9533 73.8996 89.9889 73.8043 90.0548C73.709 90.1207 73.6357 90.2139 73.5942 90.3221C73.5527 90.4303 73.5449 90.5486 73.5717 90.6613C73.5985 90.7741 73.6587 90.8762 73.7444 90.9541L73.7424 90.9572C73.945 91.1519 73.9843 91.2382 73.9843 91.4023C73.9813 91.476 73.9633 91.5484 73.9315 91.6149C73.8996 91.6814 73.8545 91.7408 73.799 91.7893C73.7031 91.8572 73.6302 91.9529 73.5903 92.0635C73.5503 92.1741 73.5452 92.2942 73.5755 92.4078C73.6058 92.5213 73.6702 92.6229 73.7599 92.6988C73.8497 92.7748 73.9605 92.8214 74.0775 92.8325C74.1946 92.8436 74.3122 92.8186 74.4146 92.7609C74.517 92.7032 74.5993 92.6155 74.6504 92.5097C74.7016 92.4038 74.7191 92.2849 74.7006 92.1688C74.6822 92.0527 74.6286 91.945 74.5472 91.8602C74.5431 91.8508 74.5362 91.8429 74.5274 91.8376Z" fill="white"/>
<path d="M65.8633 90.507C65.8633 90.4111 65.8394 90.3167 65.7937 90.2324C65.748 90.1481 65.6819 90.0765 65.6016 90.0241C65.5212 89.9717 65.429 89.9403 65.3334 89.9325C65.2378 89.9248 65.1418 89.9411 65.0541 89.9798C64.9663 90.0186 64.8897 90.0787 64.831 90.1545C64.7723 90.2304 64.7336 90.3198 64.7182 90.4145C64.7028 90.5091 64.7112 90.6062 64.7428 90.6967C64.7744 90.7873 64.8281 90.8685 64.899 90.9331L64.897 90.9362C65.0996 91.1309 65.1388 91.2172 65.1388 91.3813C65.1359 91.455 65.1179 91.5274 65.0861 91.5939C65.0542 91.6604 65.0091 91.7198 64.9536 91.7683C64.858 91.8365 64.7855 91.9323 64.746 92.0429C64.7064 92.1534 64.7016 92.2734 64.7322 92.3868C64.7628 92.5002 64.8273 92.6015 64.9171 92.6771C65.007 92.7528 65.1178 92.7991 65.2347 92.81C65.3516 92.8208 65.4691 92.7957 65.5713 92.7378C65.6735 92.68 65.7556 92.5923 65.8065 92.4865C65.8575 92.3807 65.8748 92.2619 65.8563 92.1459C65.8377 92.03 65.7842 91.9225 65.7028 91.8378C65.6977 91.8294 65.691 91.8221 65.6832 91.8163C65.6125 91.7665 65.5541 91.7014 65.5122 91.6258C65.4703 91.5502 65.4461 91.4662 65.4413 91.3799C65.4413 91.2163 65.4803 91.1309 65.6832 90.9348L65.679 90.9287C65.7371 90.8749 65.7835 90.8097 65.8152 90.7371C65.847 90.6646 65.8633 90.5862 65.8633 90.507Z" fill="white"/>
<path d="M69.4024 92.595C69.3065 92.663 69.2336 92.7586 69.1937 92.8692C69.1537 92.9797 69.1485 93.0999 69.1788 93.2135C69.2091 93.327 69.2735 93.4286 69.3632 93.5046C69.4529 93.5805 69.5637 93.6272 69.6808 93.6383C69.7978 93.6494 69.9154 93.6244 70.0178 93.5667C70.1203 93.5091 70.2026 93.4214 70.2537 93.3156C70.3049 93.2097 70.3224 93.0908 70.304 92.9747C70.2856 92.8586 70.232 92.7509 70.1506 92.6661C70.1456 92.6577 70.139 92.6504 70.1311 92.6445C70.0605 92.5948 70.0021 92.5296 69.9602 92.4541C69.9183 92.3785 69.8941 92.2945 69.8892 92.2082C69.887 92.1395 69.9003 92.0711 69.9281 92.0083C69.9558 91.9454 69.9974 91.8896 70.0498 91.845C70.13 91.7926 70.196 91.7211 70.2416 91.6368C70.2873 91.5525 70.3112 91.4582 70.3111 91.3623V91.3345C70.3112 91.2326 70.2842 91.1326 70.2329 91.0446C70.1816 90.9566 70.1078 90.8838 70.019 90.8337C69.9382 90.7432 69.8922 90.6268 69.8894 90.5054C69.8894 90.3419 69.9285 90.2565 70.1313 90.0603L70.1271 90.0542C70.212 89.9753 70.2712 89.8726 70.2968 89.7596C70.3223 89.6465 70.3132 89.5284 70.2705 89.4206C70.2279 89.3128 70.1537 89.2205 70.0576 89.1556C69.9616 89.0907 69.8482 89.0563 69.7323 89.0569C69.6164 89.0575 69.5033 89.0931 69.408 89.159C69.3127 89.225 69.2394 89.3181 69.1979 89.4264C69.1564 89.5346 69.1486 89.6528 69.1754 89.7656C69.2022 89.8784 69.2624 89.9804 69.3481 90.0584L69.3461 90.0614C69.5487 90.2562 69.588 90.3424 69.588 90.5066C69.5847 90.6252 69.5404 90.739 69.4628 90.8287C69.3709 90.8781 69.2941 90.9514 69.2407 91.041C69.1872 91.1305 69.1591 91.2329 69.1592 91.3371V91.3638C69.1593 91.4628 69.1848 91.5602 69.2333 91.6465C69.2817 91.7328 69.3516 91.8052 69.4361 91.8568C69.486 91.9007 69.5255 91.9551 69.5517 92.0162C69.5779 92.0773 69.5901 92.1435 69.5874 92.2099C69.5839 92.2832 69.5657 92.355 69.534 92.4212C69.5022 92.4874 69.4574 92.5465 69.4024 92.595Z" fill="white"/>
<path d="M71.1548 89.2452C71.4765 89.2452 71.7372 88.9844 71.7372 88.6627C71.7372 88.3411 71.4765 88.0803 71.1548 88.0803C70.8331 88.0803 70.5724 88.3411 70.5724 88.6627C70.5724 88.9844 70.8331 89.2452 71.1548 89.2452Z" fill="white"/>
<path d="M68.3145 89.2452C68.6361 89.2452 68.8969 88.9844 68.8969 88.6627C68.8969 88.3411 68.6361 88.0803 68.3145 88.0803C67.9928 88.0803 67.7321 88.3411 67.7321 88.6627C67.7321 88.9844 67.9928 89.2452 68.3145 89.2452Z" fill="white"/>
<path d="M67.1331 92.5963C67.0779 92.5476 67.0331 92.4882 67.0014 92.4217C66.9698 92.3551 66.9519 92.2829 66.949 92.2093C66.949 92.0456 66.988 91.9602 67.1909 91.7642L67.1868 91.7581C67.2717 91.6792 67.3309 91.5765 67.3565 91.4634C67.3821 91.3504 67.3729 91.2322 67.3303 91.1245C67.2876 91.0167 67.2134 90.9243 67.1173 90.8594C67.0213 90.7945 66.9079 90.7601 66.792 90.7608C66.6761 90.7614 66.5631 90.797 66.4677 90.8629C66.3724 90.9288 66.2992 91.022 66.2576 91.1302C66.2161 91.2384 66.2083 91.3567 66.2351 91.4694C66.2619 91.5822 66.3221 91.6843 66.4079 91.7622L66.4058 91.7653C66.6086 91.96 66.6477 92.0463 66.6477 92.2104C66.6447 92.2841 66.6268 92.3565 66.5949 92.423C66.563 92.4895 66.518 92.5489 66.4624 92.5974C66.3871 92.6506 66.3257 92.721 66.2832 92.8029C66.2408 92.8847 66.2186 92.9755 66.2185 93.0677V93.0759C66.2188 93.176 66.2448 93.2744 66.2941 93.3615C66.3435 93.4486 66.4144 93.5215 66.5001 93.5732C66.5859 93.6249 66.6835 93.6537 66.7835 93.6567C66.8836 93.6597 66.9827 93.6368 67.0714 93.5903C67.16 93.5438 67.2352 93.4753 67.2897 93.3913C67.3441 93.3073 67.376 93.2107 67.3822 93.1108C67.3885 93.0109 67.3689 92.911 67.3253 92.8209C67.2817 92.7308 67.2156 92.6534 67.1334 92.5963H67.1331Z" fill="white"/>
<path d="M68.3145 94.4288C68.6361 94.4288 68.8969 94.168 68.8969 93.8463C68.8969 93.5247 68.6361 93.2639 68.3145 93.2639C67.9928 93.2639 67.7321 93.5247 67.7321 93.8463C67.7321 94.168 67.9928 94.4288 68.3145 94.4288Z" fill="white"/>
<path d="M71.1621 94.4288C71.4838 94.4288 71.7445 94.168 71.7445 93.8463C71.7445 93.5247 71.4838 93.2639 71.1621 93.2639C70.8405 93.2639 70.5797 93.5247 70.5797 93.8463C70.5797 94.168 70.8405 94.4288 71.1621 94.4288Z" fill="white"/>
</g>
<path opacity="0.488" d="M18.4434 169.35L47.6518 152.38L54.1515 156.122L25.8047 173.564L18.4434 169.35Z" fill="url(#paint24_linear_0_9433)"/>
<path d="M47.6055 149.218L54.2609 153.001V156.148L47.6055 152.365V149.218Z" fill="#23D29E"/>
<path d="M47.6055 144.927L54.2609 148.71V151.856L47.6055 148.074V144.927Z" fill="#23D29E"/>
<path d="M47.6055 140.492L54.2609 144.276V147.422L47.6055 143.639V140.492Z" fill="#23D29E"/>
<path d="M47.6055 136.058L54.2609 139.841V142.988L47.6055 139.205V136.058Z" fill="#23D29E"/>
<path opacity="0.772" d="M47.6055 149.218L54.2609 153.001V156.148L47.6055 152.365V149.218Z" fill="url(#paint25_linear_0_9433)"/>
<path opacity="0.772" d="M47.6055 144.927L54.2609 148.71V151.856L47.6055 148.074V144.927Z" fill="url(#paint26_linear_0_9433)"/>
<path opacity="0.772" d="M47.6055 140.492L54.2609 144.276V147.422L47.6055 143.639V140.492Z" fill="url(#paint27_linear_0_9433)"/>
<path opacity="0.772" d="M47.6055 136.058L54.2609 139.841V142.988L47.6055 139.205V136.058Z" fill="url(#paint28_linear_0_9433)"/>
<path opacity="0.488" d="M18.4434 169.35L47.6518 152.38L54.1515 156.122L25.8047 173.564L18.4434 169.35Z" fill="url(#paint29_linear_0_9433)"/>
<g filter="url(#filter3_d_0_9433)">
<path opacity="0.086" d="M63.7657 118.746C63.8064 118.787 67.7278 121.556 69.4292 121.46C70.1199 121.422 70.7069 121.342 71.8855 120.705C74.7656 119.147 77.6026 117.456 78.9864 116.724C79.7915 117.007 79.743 116.977 79.743 116.977V126.612C79.743 126.612 95.6468 117.356 89.0988 120.939C82.5484 124.521 95.8729 117.549 95.8729 117.549L96.1405 107.446L95.3827 107.168L101.566 103.502C101.566 103.502 103.531 102.605 103.576 101.426C103.62 100.247 100.993 98.9222 100.993 98.9222L71.8855 81.9915C71.8855 81.9915 69.7572 80.3902 67.1531 81.9915C59.0255 86.6653 40.6112 97.1452 37.4572 98.9479C33.4038 101.265 36.8957 103.272 36.8957 103.272C36.8957 103.272 63.7057 118.686 63.7657 118.746Z" stroke="#48FFF1" stroke-linecap="round"/>
</g>
<path d="M51.8948 105.942L59.1838 110.203L53.8156 113.304L46.5266 109.043L51.8948 105.942Z" fill="url(#paint30_linear_0_9433)"/>
<path d="M54.8211 113.304H53.8152V126.035L54.8211 125.376V113.304Z" fill="url(#paint31_linear_0_9433)"/>
<path d="M59.1834 111.426V110.203L53.8152 113.304V114.527L59.1834 111.426Z" fill="url(#paint32_linear_0_9433)"/>
<path d="M46.5267 109.042L53.8152 113.304V126.035L46.5267 121.773V109.042Z" fill="url(#paint33_linear_0_9433)"/>
<path d="M92.8677 109.042L85.5792 113.304V126.035L92.8681 121.774L92.8677 109.042Z" fill="url(#paint34_linear_0_9433)"/>
<path d="M87.4995 105.942L80.211 110.203L85.5792 113.304L92.8681 109.042L87.4995 105.942Z" fill="url(#paint35_linear_0_9433)"/>
<path d="M84.5735 113.304H85.5793V126.035L84.5735 125.376V113.304Z" fill="url(#paint36_linear_0_9433)"/>
<path d="M80.2111 111.426V110.203L85.5793 113.304V114.527L80.2111 111.426Z" fill="url(#paint37_linear_0_9433)"/>
<path d="M84.7952 87.2031L92.0841 91.4646L86.7159 94.5652L79.427 90.3038L84.7952 87.2031Z" fill="url(#paint38_linear_0_9433)"/>
<path d="M79.4958 91.5432V90.3203L86.7955 94.4732V95.696L79.4958 91.5432Z" fill="url(#paint39_linear_0_9433)"/>
<path d="M86.7911 95.6911V94.4683L92.0831 91.459V94.3302L90.7755 93.6021L86.7911 95.6911Z" fill="url(#paint40_linear_0_9433)"/>
<path d="M53.8838 87.2031L46.5953 91.4646L51.9635 94.5652L59.2524 90.3037L53.8838 87.2031Z" fill="url(#paint41_linear_0_9433)"/>
<path d="M59.1832 91.5432V90.3203L51.8834 94.4732V95.696L59.1832 91.5432Z" fill="url(#paint42_linear_0_9433)"/>
<path d="M51.8879 95.6911V94.4683L46.596 91.459V94.7044L48.2265 93.675L51.8879 95.6911Z" fill="url(#paint43_linear_0_9433)"/>
<path opacity="0.21" d="M51.6926 91.7817L55.4477 89.7529L56.9356 90.6828L53.1805 92.7117L51.6926 91.7817Z" fill="url(#paint44_linear_0_9433)"/>
<path opacity="0.21" d="M83.1625 109.519L86.9176 107.49L88.4055 108.42L84.6504 110.449L83.1625 109.519Z" fill="url(#paint45_linear_0_9433)"/>
<path opacity="0.21" d="M56.8765 109.659L52.8236 107.422L51.369 108.403L55.4218 110.64L56.8765 109.659Z" fill="url(#paint46_linear_0_9433)"/>
<path opacity="0.21" d="M87.345 92.0648L83.2921 89.8278L81.8375 90.809L85.8903 93.046L87.345 92.0648Z" fill="url(#paint47_linear_0_9433)"/>
<path d="M66.619 117.994L69.397 116.416C69.5043 116.397 69.614 116.397 69.7213 116.416L72.4576 117.994C72.4877 118.011 72.5128 118.035 72.5302 118.065C72.5476 118.095 72.5568 118.129 72.5568 118.164C72.5568 118.199 72.5476 118.233 72.5302 118.263C72.5128 118.292 72.4877 118.317 72.4576 118.334L69.6375 119.955C69.6074 119.972 69.5731 119.982 69.5382 119.982C69.5033 119.982 69.4691 119.972 69.439 119.955L66.619 118.334C66.5877 118.318 66.5615 118.294 66.5432 118.264C66.5249 118.234 66.5152 118.199 66.5152 118.164C66.5152 118.129 66.5249 118.094 66.5432 118.064C66.5615 118.034 66.5877 118.01 66.619 117.994Z" fill="url(#paint48_linear_0_9433)"/>
<path d="M66.619 117.993L69.3593 116.417C69.4155 116.388 69.4779 116.372 69.5413 116.372C69.6047 116.372 69.6671 116.388 69.7233 116.417L72.4576 117.993C72.4877 118.01 72.5128 118.035 72.5302 118.065C72.5476 118.095 72.5568 118.129 72.5568 118.164C72.5568 118.198 72.5476 118.232 72.5302 118.262C72.5128 118.292 72.4877 118.317 72.4576 118.334L69.6375 119.954C69.6074 119.972 69.5731 119.981 69.5382 119.981C69.5034 119.981 69.4691 119.972 69.439 119.954L66.619 118.334C66.5877 118.318 66.5615 118.294 66.5432 118.264C66.5249 118.233 66.5153 118.199 66.5153 118.164C66.5153 118.129 66.5249 118.094 66.5432 118.064C66.5615 118.034 66.5877 118.01 66.619 117.993Z" fill="url(#paint49_linear_0_9433)"/>
<path opacity="0.399" d="M72.5535 118.191C72.5581 118.288 72.4296 118.351 72.4296 118.351C72.4296 118.351 71.9588 118.621 71.4038 118.941C70.7107 119.339 69.8826 119.816 69.7449 119.895C69.6834 119.937 69.6107 119.96 69.5362 119.96C69.4617 119.96 69.389 119.937 69.3276 119.895L66.5793 118.306C66.5793 118.306 66.5191 118.282 66.517 118.173" stroke="white" stroke-linecap="round" stroke-linejoin="round"/>
<path d="M67.3731 118.042L69.4596 116.879C69.4819 116.866 69.5073 116.859 69.5331 116.859C69.5589 116.859 69.5843 116.866 69.6065 116.879L71.6931 118.042C71.7154 118.054 71.7339 118.073 71.7468 118.095C71.7597 118.117 71.7665 118.142 71.7665 118.168C71.7665 118.193 71.7597 118.219 71.7468 118.241C71.7339 118.263 71.7154 118.281 71.6931 118.294L69.6065 119.493C69.5843 119.506 69.5589 119.513 69.5331 119.513C69.5073 119.513 69.4819 119.506 69.4596 119.493L67.3731 118.294C67.35 118.282 67.3306 118.264 67.3171 118.241C67.3036 118.219 67.2964 118.194 67.2964 118.168C67.2964 118.142 67.3036 118.116 67.3171 118.094C67.3306 118.072 67.35 118.054 67.3731 118.042Z" fill="url(#paint50_linear_0_9433)"/>
<path d="M37.724 101.257L40.502 99.6792C40.6094 99.661 40.7191 99.661 40.8264 99.6792L43.5627 101.257C43.5928 101.274 43.6178 101.299 43.6352 101.329C43.6527 101.359 43.6618 101.393 43.6618 101.428C43.6618 101.462 43.6527 101.496 43.6352 101.526C43.6178 101.556 43.5928 101.581 43.5627 101.598L40.7425 103.218C40.7124 103.236 40.6782 103.245 40.6433 103.245C40.6084 103.245 40.5741 103.236 40.544 103.218L37.724 101.598C37.6928 101.582 37.6666 101.557 37.6483 101.527C37.63 101.497 37.6203 101.463 37.6203 101.428C37.6203 101.392 37.63 101.358 37.6483 101.328C37.6666 101.298 37.6928 101.273 37.724 101.257Z" fill="url(#paint51_linear_0_9433)"/>
<path d="M37.724 101.257L40.4643 99.6807C40.5205 99.6515 40.583 99.6362 40.6463 99.6362C40.7097 99.6362 40.7721 99.6515 40.8283 99.6807L43.5626 101.257C43.5928 101.274 43.6178 101.299 43.6352 101.329C43.6526 101.359 43.6618 101.393 43.6618 101.428C43.6618 101.462 43.6526 101.496 43.6352 101.526C43.6178 101.556 43.5928 101.581 43.5626 101.598L40.7425 103.218C40.7124 103.236 40.6781 103.245 40.6433 103.245C40.6084 103.245 40.5741 103.236 40.544 103.218L37.724 101.598C37.6927 101.582 37.6665 101.557 37.6482 101.527C37.6299 101.497 37.6203 101.463 37.6203 101.428C37.6203 101.393 37.6299 101.358 37.6482 101.328C37.6665 101.298 37.6927 101.273 37.724 101.257Z" fill="url(#paint52_linear_0_9433)"/>
<path opacity="0.399" d="M43.6586 101.455C43.6632 101.552 43.5347 101.614 43.5347 101.614C43.5347 101.614 43.0638 101.885 42.5088 102.204C41.8158 102.603 40.9876 103.079 40.8499 103.159C40.7885 103.201 40.7158 103.224 40.6413 103.224C40.5668 103.224 40.4941 103.201 40.4326 103.159L37.6844 101.57C37.6844 101.57 37.6242 101.545 37.6221 101.437" stroke="white" stroke-linecap="round" stroke-linejoin="round"/>
<path d="M38.4782 101.305L40.5647 100.142C40.587 100.129 40.6124 100.122 40.6382 100.122C40.664 100.122 40.6893 100.129 40.7116 100.142L42.7981 101.305C42.8204 101.318 42.839 101.336 42.8519 101.358C42.8648 101.381 42.8716 101.406 42.8716 101.431C42.8716 101.457 42.8648 101.482 42.8519 101.504C42.839 101.526 42.8204 101.545 42.7981 101.557L40.7116 102.757C40.6893 102.77 40.664 102.776 40.6382 102.776C40.6124 102.776 40.587 102.77 40.5647 102.757L38.4782 101.557C38.4551 101.545 38.4357 101.527 38.4222 101.505C38.4087 101.483 38.4015 101.457 38.4015 101.431C38.4015 101.405 38.4087 101.38 38.4222 101.358C38.4357 101.335 38.4551 101.317 38.4782 101.305Z" fill="url(#paint53_linear_0_9433)"/>
<path d="M95.371 101.257L98.149 99.6792C98.2563 99.661 98.366 99.661 98.4734 99.6792L101.21 101.257C101.24 101.274 101.265 101.299 101.282 101.329C101.3 101.359 101.309 101.393 101.309 101.428C101.309 101.462 101.3 101.496 101.282 101.526C101.265 101.556 101.24 101.581 101.21 101.598L98.3895 103.218C98.3594 103.236 98.3251 103.245 98.2902 103.245C98.2553 103.245 98.2211 103.236 98.191 103.218L95.371 101.598C95.3397 101.582 95.3135 101.557 95.2952 101.527C95.2769 101.497 95.2672 101.463 95.2672 101.428C95.2672 101.392 95.2769 101.358 95.2952 101.328C95.3135 101.298 95.3397 101.273 95.371 101.257Z" fill="url(#paint54_linear_0_9433)"/>
<path d="M95.371 101.257L98.1113 99.6807C98.1675 99.6515 98.23 99.6362 98.2933 99.6362C98.3567 99.6362 98.4191 99.6515 98.4753 99.6807L101.21 101.257C101.24 101.274 101.265 101.299 101.282 101.329C101.3 101.359 101.309 101.393 101.309 101.428C101.309 101.462 101.3 101.496 101.282 101.526C101.265 101.556 101.24 101.581 101.21 101.598L98.3895 103.218C98.3594 103.236 98.3251 103.245 98.2903 103.245C98.2554 103.245 98.2211 103.236 98.191 103.218L95.371 101.598C95.3398 101.582 95.3135 101.557 95.2952 101.527C95.277 101.497 95.2673 101.463 95.2673 101.428C95.2673 101.393 95.277 101.358 95.2952 101.328C95.3135 101.298 95.3398 101.273 95.371 101.257Z" fill="url(#paint55_linear_0_9433)"/>
<path opacity="0.399" d="M101.306 101.455C101.31 101.552 101.182 101.614 101.182 101.614C101.182 101.614 100.711 101.885 100.156 102.204C99.4628 102.603 98.6346 103.079 98.4969 103.159C98.4354 103.201 98.3627 103.224 98.2882 103.224C98.2137 103.224 98.141 103.201 98.0796 103.159L95.3314 101.57C95.3314 101.57 95.2711 101.545 95.269 101.437" stroke="white" stroke-linecap="round" stroke-linejoin="round"/>
<path d="M96.1252 101.305L98.2117 100.142C98.234 100.129 98.2593 100.122 98.2851 100.122C98.311 100.122 98.3363 100.129 98.3586 100.142L100.445 101.305C100.467 101.318 100.486 101.336 100.499 101.358C100.512 101.381 100.519 101.406 100.519 101.431C100.519 101.457 100.512 101.482 100.499 101.504C100.486 101.526 100.467 101.545 100.445 101.557L98.3586 102.757C98.3363 102.77 98.311 102.776 98.2851 102.776C98.2593 102.776 98.234 102.77 98.2117 102.757L96.1252 101.557C96.1021 101.545 96.0827 101.527 96.0692 101.505C96.0556 101.483 96.0485 101.457 96.0485 101.431C96.0485 101.405 96.0556 101.38 96.0692 101.358C96.0827 101.335 96.1021 101.317 96.1252 101.305Z" fill="url(#paint56_linear_0_9433)"/>
<path d="M68.3293 118.045L69.4785 117.391C69.523 117.383 69.5684 117.383 69.6128 117.391L70.7446 118.045C70.7571 118.052 70.7675 118.062 70.7747 118.074C70.7819 118.087 70.7857 118.101 70.7857 118.115C70.7857 118.13 70.7819 118.144 70.7747 118.156C70.7675 118.168 70.7571 118.179 70.7446 118.186L69.578 118.855C69.5656 118.863 69.5514 118.867 69.537 118.867C69.5225 118.867 69.5084 118.863 69.4959 118.855L68.3293 118.185C68.3165 118.178 68.3057 118.168 68.2982 118.156C68.2907 118.144 68.2868 118.129 68.2868 118.115C68.2868 118.1 68.2907 118.086 68.2982 118.074C68.3057 118.062 68.3165 118.051 68.3293 118.045Z" fill="url(#paint57_linear_0_9433)"/>
<path d="M68.3293 118.044L69.463 117.392C69.4862 117.38 69.5121 117.374 69.5383 117.374C69.5645 117.374 69.5904 117.38 69.6136 117.392L70.7447 118.044C70.7571 118.051 70.7675 118.062 70.7747 118.074C70.7819 118.086 70.7857 118.1 70.7857 118.115C70.7857 118.129 70.7819 118.143 70.7747 118.156C70.7675 118.168 70.7571 118.178 70.7447 118.185L69.578 118.855C69.5656 118.863 69.5514 118.867 69.537 118.867C69.5226 118.867 69.5084 118.863 69.4959 118.855L68.3293 118.185C68.3164 118.178 68.3055 118.168 68.298 118.156C68.2904 118.143 68.2864 118.129 68.2864 118.115C68.2864 118.1 68.2904 118.086 68.298 118.073C68.3055 118.061 68.3164 118.051 68.3293 118.044Z" fill="url(#paint58_linear_0_9433)"/>
<path opacity="0.399" d="M70.7838 118.126C70.7855 118.167 70.7326 118.192 70.7326 118.192C70.7326 118.192 70.5385 118.303 70.3075 118.436C70.0211 118.601 69.6787 118.798 69.6221 118.831C69.5966 118.849 69.5664 118.858 69.5354 118.858C69.5045 118.858 69.4743 118.849 69.4488 118.831L68.312 118.174C68.312 118.174 68.2873 118.164 68.2868 118.118" stroke="white" stroke-linecap="round" stroke-linejoin="round"/>
<path d="M68.6409 118.064L69.5047 117.583C69.5139 117.578 69.5244 117.575 69.5351 117.575C69.5458 117.575 69.5563 117.578 69.5655 117.583L70.4289 118.064C70.4381 118.069 70.4458 118.077 70.4512 118.086C70.4565 118.095 70.4593 118.106 70.4593 118.116C70.4593 118.127 70.4565 118.137 70.4512 118.146C70.4458 118.156 70.4381 118.163 70.4289 118.168L69.5655 118.664C69.5563 118.67 69.5458 118.673 69.5351 118.673C69.5244 118.673 69.5139 118.67 69.5047 118.664L68.6409 118.168C68.6313 118.163 68.6233 118.156 68.6177 118.147C68.6121 118.138 68.6091 118.127 68.6091 118.116C68.6091 118.106 68.6121 118.095 68.6177 118.086C68.6233 118.077 68.6313 118.069 68.6409 118.064Z" fill="url(#paint59_linear_0_9433)"/>
<path d="M97.0814 101.309L98.2306 100.655C98.275 100.648 98.3204 100.648 98.3649 100.655L99.4967 101.309C99.5092 101.316 99.5196 101.326 99.5268 101.339C99.534 101.351 99.5378 101.365 99.5378 101.379C99.5378 101.394 99.534 101.408 99.5268 101.42C99.5196 101.433 99.5092 101.443 99.4967 101.45L98.3301 102.12C98.3176 102.127 98.3035 102.131 98.289 102.131C98.2746 102.131 98.2605 102.127 98.248 102.12L97.0814 101.449C97.0685 101.443 97.0578 101.433 97.0503 101.42C97.0428 101.408 97.0388 101.394 97.0388 101.379C97.0388 101.365 97.0428 101.35 97.0503 101.338C97.0578 101.326 97.0685 101.316 97.0814 101.309Z" fill="url(#paint60_linear_0_9433)"/>
<path d="M97.0814 101.308L98.215 100.656C98.2383 100.644 98.2641 100.637 98.2904 100.637C98.3166 100.637 98.3424 100.644 98.3657 100.656L99.4967 101.308C99.5092 101.315 99.5196 101.325 99.5268 101.338C99.534 101.35 99.5378 101.364 99.5378 101.379C99.5378 101.393 99.534 101.407 99.5268 101.419C99.5196 101.432 99.5092 101.442 99.4967 101.449L98.3301 102.119C98.3176 102.127 98.3035 102.13 98.289 102.13C98.2746 102.13 98.2605 102.127 98.248 102.119L97.0814 101.449C97.0684 101.442 97.0576 101.432 97.05 101.42C97.0425 101.407 97.0385 101.393 97.0385 101.379C97.0385 101.364 97.0425 101.35 97.05 101.337C97.0576 101.325 97.0684 101.315 97.0814 101.308Z" fill="url(#paint61_linear_0_9433)"/>
<path opacity="0.399" d="M99.5359 101.39C99.5376 101.43 99.4847 101.456 99.4847 101.456C99.4847 101.456 99.2905 101.567 99.0596 101.7C98.7732 101.865 98.4308 102.062 98.3742 102.095C98.3487 102.113 98.3184 102.122 98.2875 102.122C98.2566 102.122 98.2263 102.113 98.2008 102.095L97.0641 101.438C97.0641 101.438 97.0394 101.428 97.0388 101.382" stroke="white" stroke-linecap="round" stroke-linejoin="round"/>
<path d="M97.393 101.328L98.2568 100.847C98.266 100.841 98.2765 100.839 98.2872 100.839C98.2979 100.839 98.3084 100.841 98.3176 100.847L99.181 101.328C99.1902 101.333 99.1979 101.341 99.2032 101.35C99.2086 101.359 99.2114 101.37 99.2114 101.38C99.2114 101.391 99.2086 101.401 99.2032 101.41C99.1979 101.42 99.1902 101.427 99.181 101.432L98.3176 101.928C98.3084 101.934 98.2979 101.937 98.2872 101.937C98.2765 101.937 98.266 101.934 98.2568 101.928L97.393 101.432C97.3834 101.427 97.3754 101.42 97.3698 101.411C97.3642 101.402 97.3612 101.391 97.3612 101.38C97.3612 101.369 97.3642 101.359 97.3698 101.35C97.3754 101.34 97.3834 101.333 97.393 101.328Z" fill="url(#paint62_linear_0_9433)"/>
<path d="M39.4342 101.309L40.5834 100.655C40.6278 100.648 40.6732 100.648 40.7177 100.655L41.8495 101.309C41.862 101.316 41.8724 101.326 41.8796 101.339C41.8868 101.351 41.8906 101.365 41.8906 101.379C41.8906 101.394 41.8868 101.408 41.8796 101.42C41.8724 101.433 41.862 101.443 41.8495 101.45L40.6829 102.12C40.6704 102.127 40.6563 102.131 40.6418 102.131C40.6274 102.131 40.6133 102.127 40.6008 102.12L39.4342 101.449C39.4213 101.443 39.4106 101.433 39.4031 101.42C39.3956 101.408 39.3916 101.394 39.3916 101.379C39.3916 101.365 39.3956 101.35 39.4031 101.338C39.4106 101.326 39.4213 101.316 39.4342 101.309Z" fill="url(#paint63_linear_0_9433)"/>
<path d="M39.4342 101.308L40.5678 100.656C40.5911 100.644 40.6169 100.637 40.6432 100.637C40.6694 100.637 40.6952 100.644 40.7185 100.656L41.8495 101.308C41.862 101.315 41.8723 101.325 41.8796 101.338C41.8868 101.35 41.8906 101.364 41.8906 101.379C41.8906 101.393 41.8868 101.407 41.8796 101.419C41.8723 101.432 41.862 101.442 41.8495 101.449L40.6829 102.119C40.6704 102.127 40.6563 102.13 40.6418 102.13C40.6274 102.13 40.6132 102.127 40.6008 102.119L39.4342 101.449C39.4212 101.442 39.4104 101.432 39.4028 101.42C39.3952 101.407 39.3912 101.393 39.3912 101.379C39.3912 101.364 39.3952 101.35 39.4028 101.337C39.4104 101.325 39.4212 101.315 39.4342 101.308Z" fill="url(#paint64_linear_0_9433)"/>
<path opacity="0.399" d="M41.8887 101.39C41.8903 101.43 41.8375 101.456 41.8375 101.456C41.8375 101.456 41.6433 101.567 41.4124 101.7C41.126 101.865 40.7836 102.062 40.727 102.095C40.7015 102.113 40.6712 102.122 40.6403 102.122C40.6094 102.122 40.5791 102.113 40.5536 102.095L39.4169 101.438C39.4169 101.438 39.3922 101.428 39.3916 101.382" stroke="white" stroke-linecap="round" stroke-linejoin="round"/>
<path d="M39.7458 101.328L40.6096 100.847C40.6188 100.841 40.6293 100.839 40.64 100.839C40.6507 100.839 40.6612 100.841 40.6704 100.847L41.5338 101.328C41.543 101.333 41.5507 101.341 41.556 101.35C41.5614 101.359 41.5642 101.37 41.5642 101.38C41.5642 101.391 41.5614 101.401 41.556 101.41C41.5507 101.42 41.543 101.427 41.5338 101.432L40.6704 101.928C40.6612 101.934 40.6507 101.937 40.64 101.937C40.6293 101.937 40.6188 101.934 40.6096 101.928L39.7458 101.432C39.7362 101.427 39.7282 101.42 39.7226 101.411C39.717 101.402 39.714 101.391 39.714 101.38C39.714 101.369 39.717 101.359 39.7226 101.35C39.7282 101.34 39.7362 101.333 39.7458 101.328Z" fill="url(#paint65_linear_0_9433)"/>
<path d="M82.3845 148.961L95.9374 141.133C96.4962 140.812 96.5799 140.733 96.5734 141.81V148.394C96.5717 149.212 96.5333 149.238 95.9374 149.588L82.2682 157.474C82.0882 157.6 81.8469 157.738 81.8273 157.175V149.885C81.8273 149.488 81.7613 149.311 82.3845 148.961Z" fill="url(#paint66_linear_0_9433)"/>
<path d="M82.2922 149.059L92.3934 143.225C92.8098 142.986 92.8721 142.927 92.8674 143.729V148.636C92.8662 149.246 92.8376 149.265 92.3934 149.527L82.2063 155.403C82.072 155.498 81.8923 155.6 81.8776 155.18V149.747C81.8776 149.452 81.8285 149.32 82.2922 149.059Z" fill="url(#paint67_linear_0_9433)"/>
<path d="M82.3845 138.09L95.9374 130.261C96.4962 129.94 96.5799 129.862 96.5734 130.938V137.522C96.5717 138.341 96.5333 138.366 95.9374 138.716L82.2682 146.602C82.0882 146.729 81.8469 146.866 81.8273 146.304V139.013C81.8273 138.617 81.7613 138.44 82.3845 138.09Z" fill="url(#paint68_linear_0_9433)"/>
<path d="M82.2922 138.187L92.3934 132.353C92.8098 132.114 92.8721 132.056 92.8674 132.858V137.765C92.8662 138.375 92.8376 138.394 92.3934 138.655L82.2063 144.531C82.072 144.626 81.8923 144.728 81.8776 144.309V138.876C81.8776 138.58 81.8285 138.448 82.2922 138.187Z" fill="url(#paint69_linear_0_9433)"/>
<path d="M82.153 138.191L88.8835 134.304C89.161 134.144 89.2025 134.105 89.1993 134.64V137.909C89.1985 138.315 89.1794 138.328 88.8835 138.502L82.0954 142.417C82.0059 142.48 81.8867 142.548 81.8764 142.269V138.649C81.877 138.453 81.8443 138.365 82.153 138.191Z" fill="url(#paint70_linear_0_9433)"/>
<path d="M82.153 149.062L88.8835 145.175C89.161 145.016 89.2025 144.977 89.1993 145.511V148.78C89.1985 149.186 89.1794 149.199 88.8835 149.373L82.0954 153.289C82.0059 153.352 81.8867 153.42 81.8764 153.141V149.521C81.877 149.324 81.8443 149.236 82.153 149.062Z" fill="url(#paint71_linear_0_9433)"/>
<path d="M82.4334 138.119L95.9398 130.318C96.4962 129.998 96.5796 129.92 96.5737 130.992V137.554C96.572 138.369 96.5337 138.395 95.9398 138.744L82.3177 146.603C82.1383 146.729 81.8979 146.866 81.8783 146.306V139.04C81.8781 138.645 81.8125 138.468 82.4334 138.119Z" stroke="#312FB7"/>
<path d="M82.4334 143.698L95.9398 135.897C96.4962 135.577 96.5796 135.498 96.5737 136.571V143.133C96.572 143.948 96.5337 143.974 95.9398 144.323L82.3177 152.182C82.1383 152.308 81.8979 152.445 81.8783 151.884V144.618C81.8781 144.223 81.8125 144.047 82.4334 143.698Z" stroke="#2F3E4F"/>
<path d="M82.4334 140.551L95.9398 132.75C96.4962 132.43 96.5796 132.352 96.5737 133.424V139.986C96.572 140.801 96.5337 140.827 95.9398 141.176L82.3177 149.035C82.1383 149.161 81.8979 149.298 81.8783 148.738V141.471C81.8781 141.076 81.8125 140.9 82.4334 140.551Z" stroke="#2F3E4F"/>
<path d="M82.4334 146.559L95.9398 138.758C96.4962 138.438 96.5796 138.359 96.5737 139.432V145.993C96.572 146.809 96.5337 146.834 95.9398 147.183L82.3177 155.043C82.1383 155.169 81.8979 155.306 81.8783 154.745V147.479C81.8781 147.084 81.8125 146.908 82.4334 146.559Z" stroke="#2F3E4F"/>
<path d="M82.4334 148.991L95.9398 141.189C96.4962 140.87 96.5796 140.791 96.5737 141.864V148.425C96.572 149.241 96.5337 149.266 95.9398 149.615L82.3177 157.474C82.1383 157.601 81.8979 157.738 81.8783 157.177V149.911C81.8781 149.516 81.8125 149.34 82.4334 148.991Z" stroke="#21828F" stroke-width="2"/>
<path d="M82.4334 138.119L95.9398 130.318C96.4962 129.998 96.5796 129.92 96.5737 130.992V137.554C96.572 138.369 96.5337 138.395 95.9398 138.744L82.3177 146.603C82.1383 146.729 81.8979 146.866 81.8783 146.306V139.04C81.8781 138.645 81.8125 138.468 82.4334 138.119Z" stroke="#21828F" stroke-width="2"/>
<path opacity="0.69" d="M33.21 153.359C33.1014 153.406 33.001 153.47 32.9126 153.548C32.8921 153.551 32.873 153.56 32.8585 153.575L19.8807 146.059C19.7155 145.962 19.5786 145.824 19.4837 145.658C19.3888 145.492 19.3392 145.304 19.34 145.112C19.3459 144.923 19.3982 144.737 19.4925 144.572C19.5868 144.407 19.7201 144.268 19.8807 144.167L22.7202 142.544C22.8619 142.626 23.0175 142.681 23.1792 142.706L20.07 144.518C19.9653 144.578 19.8779 144.665 19.8164 144.769C19.7548 144.873 19.7211 144.991 19.7185 145.112C19.7207 145.237 19.754 145.359 19.8154 145.468C19.8768 145.576 19.9643 145.668 20.07 145.734L33.21 153.359Z" fill="#39FFEE"/>
<path opacity="0.69" d="M35.9137 154.008C35.9137 154.495 35.1837 154.873 34.2915 154.873C33.3993 154.873 32.6693 154.494 32.6693 154.008C32.6713 153.928 32.6918 153.85 32.7294 153.779C32.7669 153.709 32.8204 153.648 32.8856 153.602L32.9397 153.548C33.0348 153.478 33.1342 153.415 33.2371 153.358C33.2641 153.358 33.2912 153.331 33.3182 153.331C33.637 153.207 33.9763 153.143 34.3186 153.143C35.1837 153.143 35.9137 153.521 35.9137 154.008Z" fill="#39FFEE"/>
<path opacity="0.69" d="M25.5316 141.949C25.5316 142.436 24.8015 142.814 23.8822 142.814C23.6455 142.816 23.4094 142.789 23.1792 142.733C23.017 142.679 22.8548 142.625 22.7202 142.571C22.4228 142.409 22.2611 142.193 22.2611 141.976C22.2611 141.49 22.9911 141.111 23.8833 141.111C24.8015 141.084 25.5316 141.49 25.5316 141.949Z" fill="#39FFEE"/>
<path opacity="0.643" d="M22.3141 138.461V141.76C22.3141 142.667 23.9094 142.706 23.9094 142.706C23.9094 142.706 25.5046 142.747 25.5046 141.76V137.326" fill="url(#paint72_linear_0_9433)"/>
<path opacity="0.643" d="M32.6693 150.547V153.846C32.6693 154.814 34.2915 154.765 34.2915 154.765C34.2915 154.765 35.8867 154.796 35.8867 153.846V149.411" fill="url(#paint73_linear_0_9433)"/>
<g opacity="0.266">
<path opacity="0.69" d="M33.21 149.464C33.1014 149.511 33.001 149.575 32.9126 149.653C32.8921 149.656 32.873 149.666 32.8585 149.68L19.8807 142.164C19.7155 142.068 19.5786 141.929 19.4837 141.763C19.3888 141.597 19.3392 141.409 19.34 141.218C19.3459 141.028 19.3982 140.842 19.4925 140.677C19.5868 140.512 19.7201 140.373 19.8807 140.272L22.7202 138.649C22.8619 138.731 23.0175 138.786 23.1792 138.811L20.07 140.623C19.9653 140.683 19.8779 140.77 19.8164 140.874C19.7548 140.978 19.7211 141.097 19.7185 141.218C19.7207 141.342 19.754 141.465 19.8154 141.573C19.8768 141.682 19.9643 141.773 20.07 141.839L33.21 149.464Z" fill="#39FFEE"/>
<path opacity="0.69" d="M35.9137 150.113C35.9137 150.6 35.1837 150.978 34.2915 150.978C33.3993 150.978 32.6693 150.6 32.6693 150.113C32.6713 150.033 32.6918 149.955 32.7294 149.884C32.7669 149.814 32.8204 149.753 32.8856 149.707L32.9397 149.653C33.0348 149.584 33.1342 149.52 33.2371 149.463C33.2641 149.463 33.2912 149.436 33.3182 149.436C33.637 149.312 33.9763 149.248 34.3186 149.248C35.1837 149.248 35.9137 149.626 35.9137 150.113Z" fill="#39FFEE"/>
<path opacity="0.69" d="M25.5316 138.054C25.5316 138.541 24.8015 138.92 23.8822 138.92C23.6455 138.921 23.4094 138.894 23.1792 138.839C23.017 138.784 22.8548 138.73 22.7202 138.676C22.4228 138.514 22.2611 138.298 22.2611 138.082C22.2611 137.595 22.9911 137.216 23.8833 137.216C24.8015 137.189 25.5316 137.595 25.5316 138.054Z" fill="#39FFEE"/>
<path opacity="0.643" d="M22.3141 134.566V137.865C22.3141 138.772 23.9094 138.811 23.9094 138.811C23.9094 138.811 25.5046 138.852 25.5046 137.865V133.431" fill="url(#paint74_linear_0_9433)"/>
<path opacity="0.643" d="M32.6693 146.791V150.089C32.6693 151.058 34.2915 151.009 34.2915 151.009C34.2915 151.009 35.8867 151.04 35.8867 150.089V145.655" fill="url(#paint75_linear_0_9433)"/>
</g>
<path opacity="0.69" d="M78.6551 169.308C78.6551 169.308 78.3971 169.576 79.2005 169.628C79.2298 169.628 106.954 153.487 120.963 145.97C121.313 145.781 121.547 145.518 121.547 145.112C121.538 144.918 121.48 144.729 121.378 144.563C121.276 144.398 121.133 144.261 120.963 144.166L117.899 142.544C117.744 142.626 117.576 142.681 117.403 142.706L120.759 144.518C120.869 144.574 120.963 144.659 121.029 144.764C121.096 144.868 121.134 144.989 121.139 145.112C121.139 145.356 120.993 145.483 120.759 145.618L78.6551 169.308Z" fill="#39FFEE"/>
<path opacity="0.69" d="M103.656 154.286C103.656 154.773 104.444 155.151 105.407 155.151C106.37 155.151 107.158 154.773 107.158 154.286C107.155 154.205 107.132 154.125 107.092 154.054C107.051 153.983 106.994 153.924 106.925 153.88L106.867 153.826C106.763 153.756 106.656 153.693 106.546 153.637C106.516 153.637 106.487 153.61 106.458 153.61C106.112 153.484 105.746 153.421 105.378 153.421C104.444 153.421 103.656 153.799 103.656 154.286Z" fill="#39FFEE"/>
<path opacity="0.69" d="M114.863 141.949C114.863 142.436 115.651 142.814 116.644 142.814C116.899 142.816 117.154 142.789 117.403 142.733C117.578 142.679 117.753 142.625 117.899 142.571C118.22 142.409 118.395 142.193 118.395 141.976C118.395 141.49 117.607 141.111 116.644 141.111C115.651 141.084 114.863 141.49 114.863 141.949Z" fill="#39FFEE"/>
<path opacity="0.69" d="M76.114 170.144C76.114 170.63 76.902 171.009 77.8652 171.009C78.8283 171.009 79.6163 170.63 79.6163 170.144C79.6132 170.062 79.5903 169.982 79.5497 169.912C79.509 169.841 79.4518 169.781 79.3829 169.737L79.3245 169.683C79.2213 169.614 79.1141 169.551 79.0034 169.494C78.9742 169.494 78.945 169.467 78.9159 169.467C78.5696 169.342 78.2042 169.278 77.836 169.278C76.902 169.278 76.114 169.657 76.114 170.144Z" fill="#39FFEE"/>
<path opacity="0.231" d="M76.114 165.553C76.114 166.04 76.902 166.418 77.8652 166.418C78.8283 166.418 79.6163 166.04 79.6163 165.553C79.6132 165.472 79.5903 165.392 79.5497 165.321C79.509 165.251 79.4518 165.191 79.3829 165.147L79.3245 165.093C79.2213 165.023 79.1141 164.96 79.0034 164.904C78.9742 164.904 78.945 164.877 78.9159 164.877C78.5696 164.752 78.2042 164.688 77.836 164.688C76.902 164.688 76.114 165.066 76.114 165.553Z" fill="#39FFEE"/>
<path opacity="0.643" d="M118.336 138.461V141.76C118.336 142.667 116.615 142.706 116.615 142.706C116.615 142.706 114.893 142.748 114.893 141.76V137.326" fill="url(#paint76_linear_0_9433)"/>
<path opacity="0.643" d="M107.158 150.964V154.263C107.158 155.232 105.407 155.182 105.407 155.182C105.407 155.182 103.685 155.214 103.685 154.263V149.829" fill="url(#paint77_linear_0_9433)"/>
<g opacity="0.266">
<path opacity="0.69" d="M78.7723 164.819C78.8113 164.947 79.0308 164.999 79.3472 165.136C79.6637 165.273 120.963 142.164 120.963 142.164C121.138 142.074 121.284 141.939 121.387 141.772C121.49 141.605 121.545 141.414 121.548 141.218C121.539 141.024 121.48 140.835 121.378 140.67C121.276 140.504 121.133 140.367 120.963 140.272L117.899 138.649C117.744 138.732 117.576 138.786 117.403 138.811L120.759 140.623C120.87 140.679 120.963 140.764 121.03 140.869C121.096 140.973 121.134 141.094 121.139 141.218C121.135 141.345 121.097 141.47 121.031 141.579C120.964 141.688 120.871 141.777 120.759 141.839L78.7723 164.819Z" fill="#39FFEE"/>
<path opacity="0.69" d="M103.656 150.669C103.656 151.156 104.444 151.535 105.407 151.535C106.371 151.535 107.159 151.156 107.159 150.669C107.155 150.588 107.133 150.508 107.092 150.438C107.051 150.367 106.994 150.307 106.925 150.263L106.867 150.209C106.764 150.14 106.656 150.076 106.546 150.02C106.516 150.02 106.487 149.993 106.458 149.993C106.112 149.868 105.746 149.804 105.378 149.804C104.444 149.804 103.656 150.183 103.656 150.669Z" fill="#39FFEE"/>
<path opacity="0.69" d="M114.864 138.054C114.864 138.541 115.652 138.92 116.644 138.92C116.899 138.921 117.154 138.894 117.403 138.839C117.578 138.784 117.753 138.73 117.899 138.676C118.22 138.514 118.395 138.298 118.395 138.082C118.395 137.595 117.607 137.216 116.644 137.216C115.652 137.189 114.864 137.595 114.864 138.054Z" fill="#39FFEE"/>
<path opacity="0.643" d="M118.337 134.566V137.865C118.337 138.772 116.615 138.811 116.615 138.811C116.615 138.811 114.893 138.853 114.893 137.865V133.431" fill="url(#paint78_linear_0_9433)"/>
<path opacity="0.643" d="M107.158 147.208V150.507C107.158 151.476 105.407 151.426 105.407 151.426C105.407 151.426 103.685 151.458 103.685 150.507V146.073" fill="url(#paint79_linear_0_9433)"/>
</g>
<path opacity="0.643" d="M79.6164 166.822V170.12C79.6164 171.089 77.8652 171.039 77.8652 171.039C77.8652 171.039 76.1433 171.071 76.1433 170.12V165.686" fill="url(#paint80_linear_0_9433)"/>
<path opacity="0.209" d="M79.6164 162.231V165.53C79.6164 166.499 77.8652 166.449 77.8652 166.449C77.8652 166.449 76.1433 166.481 76.1433 165.53V161.096" fill="url(#paint81_linear_0_9433)"/>
<path opacity="0.69" d="M33.21 149.464C33.1014 149.511 33.0011 149.575 32.9126 149.653C32.8921 149.656 32.8731 149.666 32.8585 149.68L26.3698 145.922L19.8807 142.164C19.7155 142.068 19.5786 141.929 19.4837 141.763C19.3888 141.597 19.3392 141.409 19.34 141.218C19.3459 141.028 19.3983 140.842 19.4925 140.677C19.5868 140.512 19.7201 140.373 19.8807 140.272L22.7202 138.649C22.8619 138.731 23.0176 138.786 23.1792 138.811L20.07 140.623C19.9653 140.683 19.878 140.77 19.8164 140.874C19.7548 140.978 19.7211 141.097 19.7185 141.218C19.7207 141.342 19.7541 141.465 19.8154 141.573C19.8768 141.682 19.9643 141.773 20.07 141.839L33.21 149.464Z" fill="#39FFEE"/>
<path opacity="0.69" d="M52.0495 164.023C52.0495 164.51 51.3195 164.889 50.4273 164.889C49.5351 164.889 48.8051 164.51 48.8051 164.023C48.8071 163.944 48.8277 163.865 48.8652 163.795C48.9028 163.724 48.9563 163.663 49.0214 163.617L49.0755 163.563C49.1707 163.494 49.27 163.431 49.3729 163.374C49.3999 163.374 49.4271 163.347 49.454 163.347C49.7728 163.222 50.1121 163.158 50.4545 163.158C51.3195 163.158 52.0495 163.537 52.0495 164.023Z" fill="#39FFEE"/>
<path opacity="0.69" d="M51.7429 164.41C51.7608 164.563 51.6473 164.407 51.6188 164.547C51.6372 164.577 51.4368 164.659 51.4368 164.659L59.6149 169.265L68.2028 174.16C68.7909 174.499 69.4056 174.857 70.6138 174.159C71.0044 173.915 72.4255 173.214 72.4255 173.214L77.0119 170.936C76.8686 170.859 76.4956 170.714 76.4956 170.714L70.7095 173.604C70.0532 173.946 69.8816 174.088 69.2818 174.075C68.682 174.062 68.0987 173.61 67.6956 173.374L51.7429 164.41Z" fill="#39FFEE"/>
<path opacity="0.643" d="M48.8051 160.562V163.861C48.8051 164.83 50.4273 164.78 50.4273 164.78C50.4273 164.78 52.0225 164.812 52.0225 163.861V159.427" fill="url(#paint82_linear_0_9433)"/>
<path opacity="0.239" d="M52.0122 159.984C52.0301 160.136 51.9824 160.019 51.954 160.159C51.9724 160.189 51.7703 160.332 51.7703 160.332L68.2027 169.43C68.7908 169.769 69.4055 170.127 70.6137 169.43C71.0043 169.185 72.4254 168.484 72.4254 168.484L77.0118 166.207C76.8685 166.129 76.4955 165.984 76.4955 165.984L70.7094 168.874C70.0531 169.216 69.8815 169.359 69.2817 169.345C68.6819 169.332 68.0986 168.881 67.6955 168.645L52.0122 159.984Z" fill="#39FFEE"/>
<path opacity="0.146" d="M52.0495 159.85C52.0495 160.337 51.3195 160.715 50.4273 160.715C49.5351 160.715 48.8051 160.336 48.8051 159.85C48.8071 159.77 48.8277 159.692 48.8652 159.621C48.9028 159.551 48.9562 159.49 49.0214 159.444L49.0755 159.39C49.1707 159.32 49.27 159.257 49.3729 159.2C49.3999 159.2 49.427 159.173 49.454 159.173C49.7728 159.049 50.1121 158.985 50.4544 158.985C51.3195 158.985 52.0495 159.363 52.0495 159.85Z" fill="#39FFEE"/>
<path opacity="0.172" d="M48.8051 156.528V159.827C48.8051 160.796 50.4273 160.746 50.4273 160.746C50.4273 160.746 52.0225 160.778 52.0225 159.827V155.393" fill="url(#paint83_linear_0_9433)"/>
<g filter="url(#filter4_f_0_9433)">
<path d="M91.1741 82.613C99.7853 82.613 106.766 77.1053 106.766 70.3111C106.766 63.517 99.7853 58.0093 91.1741 58.0093C82.563 58.0093 75.5823 63.517 75.5823 70.3111C75.5823 77.1053 82.563 82.613 91.1741 82.613Z" fill="#26DFCD" fill-opacity="0.6"/>
</g>
<defs>
<filter id="filter0_d_0_9433" x="50.2495" y="85.8914" width="38.6485" height="29.9214" filterUnits="userSpaceOnUse" color-interpolation-filters="sRGB">
<feFlood flood-opacity="0" result="BackgroundImageFix"/>
<feColorMatrix in="SourceAlpha" type="matrix" values="0 0 0 0 0 0 0 0 0 0 0 0 0 0 0 0 0 0 127 0" result="hardAlpha"/>
<feOffset dy="-1"/>
<feColorMatrix type="matrix" values="0 0 0 0 0 0 0 0 0 0 0 0 0 0 0 0 0 0 0.957 0"/>
<feBlend mode="normal" in2="BackgroundImageFix" result="effect1_dropShadow_0_9433"/>
<feBlend mode="normal" in="SourceGraphic" in2="effect1_dropShadow_0_9433" result="shape"/>
</filter>
<filter id="filter1_d_0_9433" x="57.2688" y="91.4795" width="24.8976" height="17.887" filterUnits="userSpaceOnUse" color-interpolation-filters="sRGB">
<feFlood flood-opacity="0" result="BackgroundImageFix"/>
<feColorMatrix in="SourceAlpha" type="matrix" values="0 0 0 0 0 0 0 0 0 0 0 0 0 0 0 0 0 0 127 0" result="hardAlpha"/>
<feOffset dy="-1"/>
<feColorMatrix type="matrix" values="0 0 0 0 0 0 0 0 0 0 0 0 0 0 0 0 0 0 0.957 0"/>
<feBlend mode="normal" in2="BackgroundImageFix" result="effect1_dropShadow_0_9433"/>
<feBlend mode="normal" in="SourceGraphic" in2="effect1_dropShadow_0_9433" result="shape"/>
</filter>
<filter id="filter2_d_0_9433" x="33.4975" y="79.7092" width="72.1162" height="46.1978" filterUnits="userSpaceOnUse" color-interpolation-filters="sRGB">
<feFlood flood-opacity="0" result="BackgroundImageFix"/>
<feColorMatrix in="SourceAlpha" type="matrix" values="0 0 0 0 0 0 0 0 0 0 0 0 0 0 0 0 0 0 127 0" result="hardAlpha"/>
<feOffset dy="2"/>
<feColorMatrix type="matrix" values="0 0 0 0 0 0 0 0 0 0 0 0 0 0 0 0 0 0 0.749 0"/>
<feBlend mode="normal" in2="BackgroundImageFix" result="effect1_dropShadow_0_9433"/>
<feBlend mode="normal" in="SourceGraphic" in2="effect1_dropShadow_0_9433" result="shape"/>
</filter>
<filter id="filter3_d_0_9433" x="34.9976" y="80.7798" width="69.0785" height="48.7021" filterUnits="userSpaceOnUse" color-interpolation-filters="sRGB">
<feFlood flood-opacity="0" result="BackgroundImageFix"/>
<feColorMatrix in="SourceAlpha" type="matrix" values="0 0 0 0 0 0 0 0 0 0 0 0 0 0 0 0 0 0 127 0" result="hardAlpha"/>
<feOffset dy="2"/>
<feColorMatrix type="matrix" values="0 0 0 0 0 0 0 0 0 0 0 0 0 0 0 0 0 0 0.749 0"/>
<feBlend mode="normal" in2="BackgroundImageFix" result="effect1_dropShadow_0_9433"/>
<feBlend mode="normal" in="SourceGraphic" in2="effect1_dropShadow_0_9433" result="shape"/>
</filter>
<filter id="filter4_f_0_9433" x="17.5823" y="0.00927734" width="147.184" height="140.604" filterUnits="userSpaceOnUse" color-interpolation-filters="sRGB">
<feFlood flood-opacity="0" result="BackgroundImageFix"/>
<feBlend mode="normal" in="SourceGraphic" in2="BackgroundImageFix" result="shape"/>
<feGaussianBlur stdDeviation="29" result="effect1_foregroundBlur_0_9433"/>
</filter>
<radialGradient id="paint0_radial_0_9433" cx="0" cy="0" r="1" gradientTransform="matrix(8.27303 -171.838 69.5992 9.47208 7.45614 70.2479)" gradientUnits="userSpaceOnUse">
<stop stop-color="#00F2CD"/>
<stop offset="0.274" stop-color="#37364E"/>
<stop offset="0.946" stop-color="#262536"/>
<stop offset="1" stop-color="#222222"/>
</radialGradient>
<linearGradient id="paint1_linear_0_9433" x1="68.461" y1="239.905" x2="68.8524" y2="81.4949" gradientUnits="userSpaceOnUse">
<stop stop-color="#BDA0FF"/>
<stop offset="0.244" stop-color="#37364E"/>
<stop offset="0.731" stop-color="#262536"/>
<stop offset="1" stop-color="#222222"/>
</linearGradient>
<radialGradient id="paint2_radial_0_9433" cx="0" cy="0" r="1" gradientTransform="matrix(-85.6974 13.6828 -5.59241 -97.3079 -64.6418 101.017)" gradientUnits="userSpaceOnUse">
<stop stop-color="#00F2CD"/>
<stop offset="0.274" stop-color="#37364E"/>
<stop offset="0.946" stop-color="#262536"/>
<stop offset="1" stop-color="#222222"/>
</radialGradient>
<linearGradient id="paint3_linear_0_9433" x1="110.357" y1="59.4023" x2="110.357" y2="140.537" gradientUnits="userSpaceOnUse">
<stop stop-color="#0BB5E3"/>
<stop offset="1" stop-color="#2AF698"/>
</linearGradient>
<linearGradient id="paint4_linear_0_9433" x1="113.377" y1="58" x2="113.377" y2="139.135" gradientUnits="userSpaceOnUse">
<stop stop-color="#0BB5E3"/>
<stop offset="1" stop-color="#2AF698"/>
</linearGradient>
<linearGradient id="paint5_linear_0_9433" x1="69.6577" y1="85.0679" x2="69.6577" y2="169.257" gradientUnits="userSpaceOnUse">
<stop stop-color="#BDA0FF"/>
<stop offset="0.244" stop-color="#37364E"/>
<stop offset="0.731" stop-color="#262536"/>
<stop offset="1" stop-color="#222222"/>
</linearGradient>
<linearGradient id="paint6_linear_0_9433" x1="70.5116" y1="192.132" x2="70.5116" y2="118.223" gradientUnits="userSpaceOnUse">
<stop stop-color="#BDA0FF"/>
<stop offset="0.244" stop-color="#37364E"/>
<stop offset="0.731" stop-color="#262536"/>
<stop offset="1" stop-color="#222222"/>
</linearGradient>
<linearGradient id="paint7_linear_0_9433" x1="70.5116" y1="169.817" x2="70.5116" y2="95.9078" gradientUnits="userSpaceOnUse">
<stop stop-color="#BDA0FF"/>
<stop offset="0.244" stop-color="#37364E"/>
<stop offset="0.731" stop-color="#262536"/>
<stop offset="1" stop-color="#222222"/>
</linearGradient>
<linearGradient id="paint8_linear_0_9433" x1="72.6362" y1="154.483" x2="73.3564" y2="80.1822" gradientUnits="userSpaceOnUse">
<stop stop-color="#0BB5E3"/>
<stop offset="1" stop-color="#2AF698"/>
</linearGradient>
<linearGradient id="paint9_linear_0_9433" x1="72.7747" y1="173.573" x2="73.3838" y2="80.9343" gradientUnits="userSpaceOnUse">
<stop stop-color="#BDA0FF"/>
<stop offset="0.244" stop-color="#37364E"/>
<stop offset="0.731" stop-color="#262536"/>
<stop offset="1" stop-color="#222222"/>
</linearGradient>
<linearGradient id="paint10_linear_0_9433" x1="70.5115" y1="149.871" x2="70.5115" y2="76.0292" gradientUnits="userSpaceOnUse">
<stop stop-color="#BDA0FF"/>
<stop offset="0.244" stop-color="#37364E"/>
<stop offset="0.731" stop-color="#262536"/>
<stop offset="1" stop-color="#222222"/>
</linearGradient>
<linearGradient id="paint11_linear_0_9433" x1="155.099" y1="138.349" x2="-70.2709" y2="137.908" gradientUnits="userSpaceOnUse">
<stop stop-color="#BDA0FF"/>
<stop offset="0.244" stop-color="#37364E"/>
<stop offset="0.397" stop-color="#262536"/>
<stop offset="1" stop-color="#222222"/>
</linearGradient>
<linearGradient id="paint12_linear_0_9433" x1="127.349" y1="137.531" x2="24.0828" y2="142.7" gradientUnits="userSpaceOnUse">
<stop stop-color="#6AFFD8"/>
<stop offset="0.263" stop-color="#37364E"/>
<stop offset="0.559" stop-color="#262536"/>
<stop offset="1" stop-color="#222222"/>
</linearGradient>
<linearGradient id="paint13_linear_0_9433" x1="127.625" y1="110.945" x2="33.0324" y2="112.45" gradientUnits="userSpaceOnUse">
<stop stop-color="#6AFFD8"/>
<stop offset="0.289" stop-color="#37364E"/>
<stop offset="0.654" stop-color="#262536"/>
<stop offset="1" stop-color="#222222"/>
</linearGradient>
<linearGradient id="paint14_linear_0_9433" x1="141.07" y1="88.4055" x2="111.574" y2="138.666" gradientUnits="userSpaceOnUse">
<stop stop-color="#BDA0FF" stop-opacity="0"/>
<stop offset="0.384" stop-color="#1A12ED"/>
<stop offset="0.837" stop-color="#1B1786" stop-opacity="0"/>
<stop offset="1"/>
</linearGradient>
<linearGradient id="paint15_linear_0_9433" x1="80.0772" y1="53.4157" x2="102.385" y2="104.168" gradientUnits="userSpaceOnUse">
<stop stop-color="#BDA0FF"/>
<stop offset="0.286" stop-color="#1A12ED"/>
<stop offset="0.837" stop-color="#1B1786" stop-opacity="0"/>
<stop offset="1"/>
</linearGradient>
<linearGradient id="paint16_linear_0_9433" x1="69.536" y1="87.3064" x2="69.536" y2="83.1003" gradientUnits="userSpaceOnUse">
<stop stop-color="#0BB5E3" stop-opacity="0.282"/>
<stop offset="1" stop-color="#2AF698"/>
</linearGradient>
<linearGradient id="paint17_linear_0_9433" x1="69.536" y1="83.1074" x2="69.536" y2="87.081" gradientUnits="userSpaceOnUse">
<stop stop-color="#0BB5E3"/>
<stop offset="1" stop-color="#00FFC4"/>
</linearGradient>
<linearGradient id="paint18_linear_0_9433" x1="69.5315" y1="86.4553" x2="69.5315" y2="83.6817" gradientUnits="userSpaceOnUse">
<stop stop-color="#007FFF"/>
<stop offset="1" stop-color="#2AF698"/>
</linearGradient>
<linearGradient id="paint19_linear_0_9433" x1="69.5362" y1="86.0594" x2="69.5362" y2="84.319" gradientUnits="userSpaceOnUse">
<stop stop-color="#0BB5E3" stop-opacity="0.282"/>
<stop offset="1" stop-color="#2AF698"/>
</linearGradient>
<linearGradient id="paint20_linear_0_9433" x1="69.536" y1="84.3223" x2="69.536" y2="85.9662" gradientUnits="userSpaceOnUse">
<stop stop-color="#0BB5E3"/>
<stop offset="1" stop-color="#00FFC4"/>
</linearGradient>
<linearGradient id="paint21_linear_0_9433" x1="69.5342" y1="85.7076" x2="69.5342" y2="84.5601" gradientUnits="userSpaceOnUse">
<stop stop-color="#007FFF"/>
<stop offset="1" stop-color="#2AF698"/>
</linearGradient>
<linearGradient id="paint22_linear_0_9433" x1="69.5744" y1="96.4883" x2="69.5744" y2="104.213" gradientUnits="userSpaceOnUse">
<stop stop-color="#0BB5E3"/>
<stop offset="1" stop-color="#2AF698"/>
</linearGradient>
<linearGradient id="paint23_linear_0_9433" x1="69.7678" y1="77.4805" x2="52.9409" y2="96.7307" gradientUnits="userSpaceOnUse">
<stop stop-color="#0BB5E3" stop-opacity="0"/>
<stop offset="0.438" stop-color="#34BCBC" stop-opacity="0.4"/>
<stop offset="0.729" stop-color="#28DBF2" stop-opacity="0.376"/>
<stop offset="1" stop-color="#2AE6F6" stop-opacity="0.404"/>
</linearGradient>
<linearGradient id="paint24_linear_0_9433" x1="38.8684" y1="148.99" x2="34.3509" y2="171.221" gradientUnits="userSpaceOnUse">
<stop stop-color="#0BB5E3"/>
<stop offset="0.298" stop-color="#23E8A8"/>
<stop offset="1" stop-color="#2AF698" stop-opacity="0"/>
</linearGradient>
<linearGradient id="paint25_linear_0_9433" x1="50.9332" y1="149.218" x2="50.9332" y2="156.148" gradientUnits="userSpaceOnUse">
<stop stop-color="#24D8B5"/>
<stop offset="1" stop-color="#43BEFF"/>
</linearGradient>
<linearGradient id="paint26_linear_0_9433" x1="50.9332" y1="144.927" x2="50.9332" y2="151.856" gradientUnits="userSpaceOnUse">
<stop stop-color="#24D8B5"/>
<stop offset="1" stop-color="#43BEFF"/>
</linearGradient>
<linearGradient id="paint27_linear_0_9433" x1="50.9332" y1="140.492" x2="50.9332" y2="147.422" gradientUnits="userSpaceOnUse">
<stop stop-color="#24D8B5"/>
<stop offset="1" stop-color="#43BEFF"/>
</linearGradient>
<linearGradient id="paint28_linear_0_9433" x1="50.9332" y1="136.058" x2="50.9332" y2="142.988" gradientUnits="userSpaceOnUse">
<stop stop-color="#24D8B5"/>
<stop offset="1" stop-color="#43BEFF"/>
</linearGradient>
<linearGradient id="paint29_linear_0_9433" x1="38.8684" y1="148.99" x2="34.3509" y2="171.221" gradientUnits="userSpaceOnUse">
<stop stop-color="#0BB5E3"/>
<stop offset="0.298" stop-color="#23E8A8"/>
<stop offset="1" stop-color="#2AF698" stop-opacity="0"/>
</linearGradient>
<linearGradient id="paint30_linear_0_9433" x1="32.2494" y1="91.8803" x2="52.4522" y2="142.853" gradientUnits="userSpaceOnUse">
<stop stop-color="#BDA0FF"/>
<stop offset="0.331" stop-color="#37364E"/>
<stop offset="0.451" stop-color="#3F3C59"/>
<stop offset="1" stop-color="#222222"/>
</linearGradient>
<linearGradient id="paint31_linear_0_9433" x1="58.1222" y1="102.241" x2="53.3963" y2="102.425" gradientUnits="userSpaceOnUse">
<stop stop-color="#BDA0FF"/>
<stop offset="0.244" stop-color="#37364E"/>
<stop offset="0.355" stop-color="#262536"/>
<stop offset="1" stop-color="#222222"/>
</linearGradient>
<linearGradient id="paint32_linear_0_9433" x1="76.8019" y1="106.446" x2="58.4506" y2="117.707" gradientUnits="userSpaceOnUse">
<stop stop-color="#BDA0FF"/>
<stop offset="0.244" stop-color="#37364E"/>
<stop offset="0.355" stop-color="#262536"/>
<stop offset="1" stop-color="#222222"/>
</linearGradient>
<linearGradient id="paint33_linear_0_9433" x1="46.5267" y1="103.945" x2="64.1558" y2="127.045" gradientUnits="userSpaceOnUse">
<stop stop-color="#BDA0FF"/>
<stop offset="0.151" stop-color="#37364E"/>
<stop offset="0.731" stop-color="#262536"/>
<stop offset="1" stop-color="#222222"/>
</linearGradient>
<linearGradient id="paint34_linear_0_9433" x1="85.5792" y1="103.945" x2="103.208" y2="127.046" gradientUnits="userSpaceOnUse">
<stop stop-color="#BDA0FF"/>
<stop offset="0.151" stop-color="#37364E"/>
<stop offset="0.731" stop-color="#262536"/>
<stop offset="1" stop-color="#222222"/>
</linearGradient>
<linearGradient id="paint35_linear_0_9433" x1="65.9338" y1="91.8803" x2="86.1366" y2="142.853" gradientUnits="userSpaceOnUse">
<stop stop-color="#BDA0FF"/>
<stop offset="0.331" stop-color="#37364E"/>
<stop offset="0.451" stop-color="#3F3C59"/>
<stop offset="1" stop-color="#222222"/>
</linearGradient>
<linearGradient id="paint36_linear_0_9433" x1="88.8805" y1="102.241" x2="84.1546" y2="102.425" gradientUnits="userSpaceOnUse">
<stop stop-color="#BDA0FF"/>
<stop offset="0.244" stop-color="#37364E"/>
<stop offset="0.355" stop-color="#262536"/>
<stop offset="1" stop-color="#222222"/>
</linearGradient>
<linearGradient id="paint37_linear_0_9433" x1="103.198" y1="106.446" x2="84.8464" y2="117.707" gradientUnits="userSpaceOnUse">
<stop stop-color="#BDA0FF"/>
<stop offset="0.244" stop-color="#37364E"/>
<stop offset="0.355" stop-color="#262536"/>
<stop offset="1" stop-color="#222222"/>
</linearGradient>
<linearGradient id="paint38_linear_0_9433" x1="65.1498" y1="73.1416" x2="85.3526" y2="124.114" gradientUnits="userSpaceOnUse">
<stop stop-color="#BDA0FF"/>
<stop offset="0.331" stop-color="#37364E"/>
<stop offset="0.451" stop-color="#3F3C59"/>
<stop offset="1" stop-color="#222222"/>
</linearGradient>
<linearGradient id="paint39_linear_0_9433" x1="110.753" y1="85.6488" x2="87.0689" y2="101.542" gradientUnits="userSpaceOnUse">
<stop stop-color="#BDA0FF"/>
<stop offset="0.244" stop-color="#37364E"/>
<stop offset="0.355" stop-color="#262536"/>
<stop offset="1" stop-color="#222222"/>
</linearGradient>
<linearGradient id="paint40_linear_0_9433" x1="109.451" y1="87.7812" x2="91.4305" y2="98.917" gradientUnits="userSpaceOnUse">
<stop stop-color="#BDA0FF"/>
<stop offset="0.244" stop-color="#37364E"/>
<stop offset="0.355" stop-color="#262536"/>
<stop offset="1" stop-color="#222222"/>
</linearGradient>
<linearGradient id="paint41_linear_0_9433" x1="32.3181" y1="73.1416" x2="52.5209" y2="124.114" gradientUnits="userSpaceOnUse">
<stop stop-color="#BDA0FF"/>
<stop offset="0.331" stop-color="#37364E"/>
<stop offset="0.451" stop-color="#3F3C59"/>
<stop offset="1" stop-color="#222222"/>
</linearGradient>
<linearGradient id="paint42_linear_0_9433" x1="83.141" y1="85.6488" x2="59.4566" y2="101.542" gradientUnits="userSpaceOnUse">
<stop stop-color="#BDA0FF"/>
<stop offset="0.244" stop-color="#37364E"/>
<stop offset="0.355" stop-color="#262536"/>
<stop offset="1" stop-color="#222222"/>
</linearGradient>
<linearGradient id="paint43_linear_0_9433" x1="69.2562" y1="87.7812" x2="51.2353" y2="98.917" gradientUnits="userSpaceOnUse">
<stop stop-color="#BDA0FF"/>
<stop offset="0.244" stop-color="#37364E"/>
<stop offset="0.355" stop-color="#262536"/>
<stop offset="1" stop-color="#222222"/>
</linearGradient>
<linearGradient id="paint44_linear_0_9433" x1="52.6759" y1="90.2084" x2="55.9523" y2="92.2562" gradientUnits="userSpaceOnUse">
<stop stop-color="#24D8B5"/>
<stop offset="1" stop-color="#43BEFF"/>
</linearGradient>
<linearGradient id="paint45_linear_0_9433" x1="84.1458" y1="107.946" x2="87.4222" y2="109.994" gradientUnits="userSpaceOnUse">
<stop stop-color="#24D8B5"/>
<stop offset="1" stop-color="#43BEFF"/>
</linearGradient>
<linearGradient id="paint46_linear_0_9433" x1="55.7243" y1="107.951" x2="52.5212" y2="110.112" gradientUnits="userSpaceOnUse">
<stop stop-color="#24D8B5"/>
<stop offset="1" stop-color="#43BEFF"/>
</linearGradient>
<linearGradient id="paint47_linear_0_9433" x1="86.1928" y1="90.3566" x2="82.9897" y2="92.5172" gradientUnits="userSpaceOnUse">
<stop stop-color="#24D8B5"/>
<stop offset="1" stop-color="#43BEFF"/>
</linearGradient>
<linearGradient id="paint48_linear_0_9433" x1="69.536" y1="120.207" x2="69.536" y2="116.001" gradientUnits="userSpaceOnUse">
<stop stop-color="#0BB5E3" stop-opacity="0.282"/>
<stop offset="1" stop-color="#2AF698"/>
</linearGradient>
<linearGradient id="paint49_linear_0_9433" x1="69.536" y1="116.008" x2="69.536" y2="119.981" gradientUnits="userSpaceOnUse">
<stop stop-color="#0BB5E3"/>
<stop offset="1" stop-color="#00FFC4"/>
</linearGradient>
<linearGradient id="paint50_linear_0_9433" x1="69.5315" y1="119.356" x2="69.5315" y2="116.583" gradientUnits="userSpaceOnUse">
<stop stop-color="#007FFF"/>
<stop offset="1" stop-color="#2AF698"/>
</linearGradient>
<linearGradient id="paint51_linear_0_9433" x1="40.6411" y1="103.471" x2="40.6411" y2="99.2646" gradientUnits="userSpaceOnUse">
<stop stop-color="#0BB5E3" stop-opacity="0.282"/>
<stop offset="1" stop-color="#2AF698"/>
</linearGradient>
<linearGradient id="paint52_linear_0_9433" x1="40.641" y1="99.2717" x2="40.641" y2="103.245" gradientUnits="userSpaceOnUse">
<stop stop-color="#0BB5E3"/>
<stop offset="1" stop-color="#00FFC4"/>
</linearGradient>
<linearGradient id="paint53_linear_0_9433" x1="40.6366" y1="102.62" x2="40.6366" y2="99.8463" gradientUnits="userSpaceOnUse">
<stop stop-color="#007FFF"/>
<stop offset="1" stop-color="#2AF698"/>
</linearGradient>
<linearGradient id="paint54_linear_0_9433" x1="98.288" y1="103.471" x2="98.288" y2="99.2646" gradientUnits="userSpaceOnUse">
<stop stop-color="#0BB5E3" stop-opacity="0.282"/>
<stop offset="1" stop-color="#2AF698"/>
</linearGradient>
<linearGradient id="paint55_linear_0_9433" x1="98.288" y1="99.2717" x2="98.288" y2="103.245" gradientUnits="userSpaceOnUse">
<stop stop-color="#0BB5E3"/>
<stop offset="1" stop-color="#00FFC4"/>
</linearGradient>
<linearGradient id="paint56_linear_0_9433" x1="98.2835" y1="102.62" x2="98.2835" y2="99.8463" gradientUnits="userSpaceOnUse">
<stop stop-color="#007FFF"/>
<stop offset="1" stop-color="#2AF698"/>
</linearGradient>
<linearGradient id="paint57_linear_0_9433" x1="69.5362" y1="118.96" x2="69.5362" y2="117.219" gradientUnits="userSpaceOnUse">
<stop stop-color="#0BB5E3" stop-opacity="0.282"/>
<stop offset="1" stop-color="#2AF698"/>
</linearGradient>
<linearGradient id="paint58_linear_0_9433" x1="69.536" y1="117.223" x2="69.536" y2="118.867" gradientUnits="userSpaceOnUse">
<stop stop-color="#0BB5E3"/>
<stop offset="1" stop-color="#00FFC4"/>
</linearGradient>
<linearGradient id="paint59_linear_0_9433" x1="69.5342" y1="118.608" x2="69.5342" y2="117.461" gradientUnits="userSpaceOnUse">
<stop stop-color="#007FFF"/>
<stop offset="1" stop-color="#2AF698"/>
</linearGradient>
<linearGradient id="paint60_linear_0_9433" x1="98.2883" y1="102.224" x2="98.2883" y2="100.484" gradientUnits="userSpaceOnUse">
<stop stop-color="#0BB5E3" stop-opacity="0.282"/>
<stop offset="1" stop-color="#2AF698"/>
</linearGradient>
<linearGradient id="paint61_linear_0_9433" x1="98.2881" y1="100.487" x2="98.2881" y2="102.13" gradientUnits="userSpaceOnUse">
<stop stop-color="#0BB5E3"/>
<stop offset="1" stop-color="#00FFC4"/>
</linearGradient>
<linearGradient id="paint62_linear_0_9433" x1="98.2863" y1="101.872" x2="98.2863" y2="100.724" gradientUnits="userSpaceOnUse">
<stop stop-color="#007FFF"/>
<stop offset="1" stop-color="#2AF698"/>
</linearGradient>
<linearGradient id="paint63_linear_0_9433" x1="40.6411" y1="102.224" x2="40.6411" y2="100.484" gradientUnits="userSpaceOnUse">
<stop stop-color="#0BB5E3" stop-opacity="0.282"/>
<stop offset="1" stop-color="#2AF698"/>
</linearGradient>
<linearGradient id="paint64_linear_0_9433" x1="40.6409" y1="100.487" x2="40.6409" y2="102.13" gradientUnits="userSpaceOnUse">
<stop stop-color="#0BB5E3"/>
<stop offset="1" stop-color="#00FFC4"/>
</linearGradient>
<linearGradient id="paint65_linear_0_9433" x1="40.6391" y1="101.872" x2="40.6391" y2="100.724" gradientUnits="userSpaceOnUse">
<stop stop-color="#007FFF"/>
<stop offset="1" stop-color="#2AF698"/>
</linearGradient>
<linearGradient id="paint66_linear_0_9433" x1="89.4207" y1="168.802" x2="89.4207" y2="138.722" gradientUnits="userSpaceOnUse">
<stop stop-color="#BDA0FF"/>
<stop offset="0.244" stop-color="#37364E"/>
<stop offset="0.731" stop-color="#262536"/>
<stop offset="1" stop-color="#222222"/>
</linearGradient>
<linearGradient id="paint67_linear_0_9433" x1="63.8499" y1="167.708" x2="90.3564" y2="144.673" gradientUnits="userSpaceOnUse">
<stop stop-color="#BDA0FF"/>
<stop offset="0.244" stop-color="#37364E"/>
<stop offset="0.731" stop-color="#262536"/>
<stop offset="1" stop-color="#222222"/>
</linearGradient>
<linearGradient id="paint68_linear_0_9433" x1="89.4207" y1="157.93" x2="89.4207" y2="127.851" gradientUnits="userSpaceOnUse">
<stop stop-color="#BDA0FF"/>
<stop offset="0.244" stop-color="#37364E"/>
<stop offset="0.731" stop-color="#262536"/>
<stop offset="1" stop-color="#222222"/>
</linearGradient>
<linearGradient id="paint69_linear_0_9433" x1="63.8499" y1="156.836" x2="90.3564" y2="133.802" gradientUnits="userSpaceOnUse">
<stop stop-color="#BDA0FF"/>
<stop offset="0.244" stop-color="#37364E"/>
<stop offset="0.731" stop-color="#262536"/>
<stop offset="1" stop-color="#222222"/>
</linearGradient>
<linearGradient id="paint70_linear_0_9433" x1="52.2656" y1="162.266" x2="88.5909" y2="137.408" gradientUnits="userSpaceOnUse">
<stop stop-color="#BDA0FF"/>
<stop offset="0.244" stop-color="#37364E"/>
<stop offset="0.731" stop-color="#262536"/>
<stop offset="1" stop-color="#222222"/>
</linearGradient>
<linearGradient id="paint71_linear_0_9433" x1="52.2656" y1="173.137" x2="88.5909" y2="148.279" gradientUnits="userSpaceOnUse">
<stop stop-color="#BDA0FF"/>
<stop offset="0.244" stop-color="#37364E"/>
<stop offset="0.731" stop-color="#262536"/>
<stop offset="1" stop-color="#222222"/>
</linearGradient>
<linearGradient id="paint72_linear_0_9433" x1="23.9094" y1="139.322" x2="23.9094" y2="141.942" gradientUnits="userSpaceOnUse">
<stop stop-color="#0BB5E3" stop-opacity="0"/>
<stop offset="1" stop-color="#2AF698"/>
</linearGradient>
<linearGradient id="paint73_linear_0_9433" x1="34.278" y1="150.782" x2="34.278" y2="153.496" gradientUnits="userSpaceOnUse">
<stop stop-color="#0BB5E3" stop-opacity="0"/>
<stop offset="1" stop-color="#2AF698"/>
</linearGradient>
<linearGradient id="paint74_linear_0_9433" x1="23.9094" y1="135.427" x2="23.9094" y2="138.047" gradientUnits="userSpaceOnUse">
<stop stop-color="#0BB5E3" stop-opacity="0"/>
<stop offset="1" stop-color="#2AF698"/>
</linearGradient>
<linearGradient id="paint75_linear_0_9433" x1="34.278" y1="147.026" x2="34.278" y2="149.74" gradientUnits="userSpaceOnUse">
<stop stop-color="#0BB5E3" stop-opacity="0"/>
<stop offset="1" stop-color="#2AF698"/>
</linearGradient>
<linearGradient id="paint76_linear_0_9433" x1="116.615" y1="139.322" x2="116.615" y2="141.942" gradientUnits="userSpaceOnUse">
<stop stop-color="#0BB5E3" stop-opacity="0"/>
<stop offset="1" stop-color="#2AF698"/>
</linearGradient>
<linearGradient id="paint77_linear_0_9433" x1="105.422" y1="151.199" x2="105.422" y2="153.914" gradientUnits="userSpaceOnUse">
<stop stop-color="#0BB5E3" stop-opacity="0"/>
<stop offset="1" stop-color="#2AF698"/>
</linearGradient>
<linearGradient id="paint78_linear_0_9433" x1="116.615" y1="135.427" x2="116.615" y2="138.047" gradientUnits="userSpaceOnUse">
<stop stop-color="#0BB5E3" stop-opacity="0"/>
<stop offset="1" stop-color="#2AF698"/>
</linearGradient>
<linearGradient id="paint79_linear_0_9433" x1="105.422" y1="147.443" x2="105.422" y2="150.158" gradientUnits="userSpaceOnUse">
<stop stop-color="#0BB5E3" stop-opacity="0"/>
<stop offset="1" stop-color="#2AF698"/>
</linearGradient>
<linearGradient id="paint80_linear_0_9433" x1="77.8798" y1="167.057" x2="77.8798" y2="169.771" gradientUnits="userSpaceOnUse">
<stop stop-color="#0BB5E3" stop-opacity="0"/>
<stop offset="1" stop-color="#2AF698"/>
</linearGradient>
<linearGradient id="paint81_linear_0_9433" x1="77.8798" y1="162.466" x2="77.8798" y2="165.181" gradientUnits="userSpaceOnUse">
<stop stop-color="#0BB5E3" stop-opacity="0"/>
<stop offset="1" stop-color="#2AF698"/>
</linearGradient>
<linearGradient id="paint82_linear_0_9433" x1="50.4138" y1="160.797" x2="50.4138" y2="163.512" gradientUnits="userSpaceOnUse">
<stop stop-color="#0BB5E3" stop-opacity="0"/>
<stop offset="1" stop-color="#2AF698"/>
</linearGradient>
<linearGradient id="paint83_linear_0_9433" x1="50.4138" y1="156.763" x2="50.4138" y2="159.478" gradientUnits="userSpaceOnUse">
<stop stop-color="#0BB5E3" stop-opacity="0"/>
<stop offset="1" stop-color="#2AF698"/>
</linearGradient>
</defs>
</svg>
