<svg width="32" height="33" viewBox="0 0 32 33" fill="none" xmlns="http://www.w3.org/2000/svg">
<path d="M30.6667 5.83341C30.6667 4.36675 29.4667 3.16675 28 3.16675H3.99997C2.53331 3.16675 1.33331 4.36675 1.33331 5.83341V23.1815C1.33331 24.5283 2.53331 25.8482 3.99997 25.8482H10.3448L13.9699 29.8334C14.6429 30.5024 15.0888 30.6749 16 30.768C16.552 30.7761 17.4003 30.5124 18 29.8334L21.6552 25.8482H28C29.4667 25.8482 30.6667 24.6482 30.6667 23.1815V5.83341ZM3.99997 5.83341H28V23.1815H20.6667L16 28.062L11.3333 23.1815H3.99997V5.83341Z" fill="white"/>
<path d="M10.6667 9.8335H21.3333C22.0697 9.8335 22.6667 10.4304 22.6667 11.1668C22.6667 11.9032 22.0697 12.5002 21.3333 12.5002H10.6667C9.93027 12.5002 9.33331 11.9032 9.33331 11.1668C9.33331 10.4304 9.93027 9.8335 10.6667 9.8335Z" fill="#BDA0FF"/>
<path d="M10.6667 15.1667H16C16.7364 15.1667 17.3333 15.7637 17.3333 16.5001C17.3333 17.2364 16.7364 17.8334 16 17.8334H10.6667C9.93027 17.8334 9.33331 17.2364 9.33331 16.5001C9.33331 15.7637 9.93027 15.1667 10.6667 15.1667Z" fill="#BDA0FF"/>
</svg>
