<svg width="32" height="33" viewBox="0 0 32 33" fill="none" xmlns="http://www.w3.org/2000/svg">
<path fill-rule="evenodd" clip-rule="evenodd" d="M25.3333 5.83341H6.66669C5.93031 5.83341 5.33336 6.43037 5.33336 7.16675V25.8334C5.33336 26.5698 5.93031 27.1667 6.66669 27.1667H25.3333C26.0697 27.1667 26.6667 26.5698 26.6667 25.8334V7.16675C26.6667 6.43037 26.0697 5.83341 25.3333 5.83341ZM6.66669 3.16675C4.45755 3.16675 2.66669 4.95761 2.66669 7.16675V25.8334C2.66669 28.0426 4.45755 29.8334 6.66669 29.8334H25.3333C27.5425 29.8334 29.3333 28.0426 29.3333 25.8334V7.16675C29.3333 4.95761 27.5425 3.16675 25.3333 3.16675H6.66669Z" fill="white"/>
<path d="M10.6667 21.8333V27.1666H13.3333V21.8333H26.6667V19.1666H13.3333V13.8333H26.6667V11.1666H13.3333V5.83325H10.6667V11.1666H5.33331V13.8333H10.6667V19.1666H5.33331V21.8333H10.6667Z" fill="#BDA0FF"/>
</svg>
