<svg width="32" height="33" viewBox="0 0 32 33" fill="none" xmlns="http://www.w3.org/2000/svg">
<path fill-rule="evenodd" clip-rule="evenodd" d="M26.6667 7.16667H5.33337C4.59699 7.16667 4.00004 7.76362 4.00004 8.5V24.5C4.00004 25.2364 4.59699 25.8333 5.33337 25.8333H26.6667C27.4031 25.8333 28 25.2364 28 24.5V8.5C28 7.76362 27.4031 7.16667 26.6667 7.16667ZM5.33337 4.5C3.12424 4.5 1.33337 6.29086 1.33337 8.5V24.5C1.33337 26.7091 3.12423 28.5 5.33337 28.5H26.6667C28.8758 28.5 30.6667 26.7091 30.6667 24.5V8.5C30.6667 6.29086 28.8758 4.5 26.6667 4.5H5.33337Z" fill="white"/>
<path d="M7.41076 14.1194C6.73897 13.7686 6.49477 12.9288 6.8737 12.2725C7.23059 11.6543 8.01126 11.4273 8.64397 11.7577L15.9524 16.574L23.2605 11.7579C23.8932 11.4275 24.6739 11.6545 25.0308 12.2726C25.4097 12.929 25.1655 13.7688 24.4937 14.1196L16.6438 19.2186C16.4228 19.334 16.1837 19.3814 15.9509 19.3678C15.7189 19.3809 15.4808 19.3334 15.2606 19.2184L7.41076 14.1194Z" fill="#BDA0FF"/>
</svg>
