<svg width="564" height="323" viewBox="0 0 564 323" fill="none" xmlns="http://www.w3.org/2000/svg">
<path d="M24 1.35999H539.19C552.169 1.36025 562.69 11.8815 562.69 24.86V269.052C562.69 282.031 552.169 292.552 539.19 292.552H24C11.0213 292.552 0.5 282.031 0.5 269.052V24.86C0.500002 11.8813 11.0213 1.35999 24 1.35999Z" stroke="#222222"/>
<g clip-path="url(#clip0_0_10504)">
<g clip-path="url(#clip1_0_10504)">
<g clip-path="url(#clip2_0_10504)">
<path d="M26.0869 232.181C26.0869 225.758 31.2942 220.551 37.7178 220.551H215.72C222.143 220.551 227.351 225.758 227.351 232.181V276.682C227.351 283.105 222.143 288.313 215.72 288.313H37.7178C31.2942 288.313 26.0869 283.105 26.0869 276.682V232.181Z" stroke="#313138"/>
<path d="M183.356 264.546H43.786C40.4346 264.546 37.7178 267.262 37.7178 270.614C37.7178 273.965 40.4346 276.682 43.786 276.682H183.356C186.708 276.682 189.424 273.965 189.424 270.614C189.424 267.262 186.708 264.546 183.356 264.546Z" fill="white" fill-opacity="0.06"/>
<path d="M51.877 232.181H43.786C40.4346 232.181 37.7178 234.898 37.7178 238.25V246.341C37.7178 249.692 40.4346 252.409 43.786 252.409H51.877C55.2285 252.409 57.9453 249.692 57.9453 246.341V238.25C57.9453 234.898 55.2285 232.181 51.877 232.181Z" fill="#313138"/>
<path d="M140.878 236.227H72.1046C68.7532 236.227 66.0363 238.944 66.0363 242.295C66.0363 245.646 68.7532 248.363 72.1046 248.363H140.878C144.23 248.363 146.947 245.646 146.947 242.295C146.947 238.944 144.23 236.227 140.878 236.227Z" fill="white" fill-opacity="0.06"/>
<path d="M26.0869 37.9966C26.0869 31.573 31.2942 26.3657 37.7178 26.3657H215.72C222.143 26.3657 227.351 31.573 227.351 37.9966V82.4973C227.351 88.9208 222.143 94.1281 215.72 94.1281H37.7178C31.2942 94.1281 26.0869 88.9208 26.0869 82.4973V37.9966Z" stroke="#313138"/>
<path d="M183.356 70.3607H43.786C40.4346 70.3607 37.7178 73.0776 37.7178 76.429C37.7178 79.7804 40.4346 82.4973 43.786 82.4973H183.356C186.708 82.4973 189.424 79.7804 189.424 76.429C189.424 73.0776 186.708 70.3607 183.356 70.3607Z" fill="white" fill-opacity="0.06"/>
<path d="M51.877 37.9966H43.786C40.4346 37.9966 37.7178 40.7134 37.7178 44.0649V52.1559C37.7178 55.5073 40.4346 58.2242 43.786 58.2242H51.877C55.2285 58.2242 57.9453 55.5073 57.9453 52.1559V44.0649C57.9453 40.7134 55.2285 37.9966 51.877 37.9966Z" fill="#313138"/>
<path d="M140.878 42.042H72.1046C68.7532 42.042 66.0363 44.7589 66.0363 48.1103C66.0363 51.4617 68.7532 54.1785 72.1046 54.1785H140.878C144.23 54.1785 146.947 51.4617 146.947 48.1103C146.947 44.7589 144.23 42.042 140.878 42.042Z" fill="white" fill-opacity="0.06"/>
<path d="M26.0869 135.089C26.0869 128.666 31.2942 123.458 37.7178 123.458H215.72C222.143 123.458 227.351 128.666 227.351 135.089V179.59C227.351 186.013 222.143 191.221 215.72 191.221H37.7178C31.2942 191.221 26.0869 186.013 26.0869 179.59V135.089Z" fill="#041E28" stroke="#44C7FC" stroke-opacity="0.46"/>
<path d="M68.874 148.951C68.276 148.951 67.7387 148.847 67.262 148.639C66.794 148.422 66.4257 148.128 66.157 147.755C65.8883 147.374 65.7497 146.936 65.741 146.442H67.002C67.0453 146.867 67.2187 147.226 67.522 147.521C67.834 147.807 68.2847 147.95 68.874 147.95C69.4373 147.95 69.8793 147.811 70.2 147.534C70.5293 147.248 70.694 146.884 70.694 146.442C70.694 146.095 70.5987 145.814 70.408 145.597C70.2173 145.38 69.979 145.216 69.693 145.103C69.407 144.99 69.0213 144.869 68.536 144.739C67.938 144.583 67.457 144.427 67.093 144.271C66.7377 144.115 66.43 143.872 66.17 143.543C65.9187 143.205 65.793 142.754 65.793 142.191C65.793 141.697 65.9187 141.259 66.17 140.878C66.4213 140.497 66.7723 140.202 67.223 139.994C67.6823 139.786 68.2067 139.682 68.796 139.682C69.6453 139.682 70.3387 139.894 70.876 140.319C71.422 140.744 71.7297 141.307 71.799 142.009H70.499C70.4557 141.662 70.2737 141.359 69.953 141.099C69.6323 140.83 69.2077 140.696 68.679 140.696C68.185 140.696 67.782 140.826 67.47 141.086C67.158 141.337 67.002 141.693 67.002 142.152C67.002 142.481 67.093 142.75 67.275 142.958C67.4657 143.166 67.6953 143.326 67.964 143.439C68.2413 143.543 68.627 143.664 69.121 143.803C69.719 143.968 70.2 144.132 70.564 144.297C70.928 144.453 71.24 144.7 71.5 145.038C71.76 145.367 71.89 145.818 71.89 146.39C71.89 146.832 71.773 147.248 71.539 147.638C71.305 148.028 70.9583 148.344 70.499 148.587C70.0397 148.83 69.498 148.951 68.874 148.951ZM73.1889 145.272C73.1889 144.544 73.3362 143.907 73.6309 143.361C73.9255 142.806 74.3285 142.377 74.8399 142.074C75.3599 141.771 75.9362 141.619 76.5689 141.619C77.1929 141.619 77.7345 141.753 78.1939 142.022C78.6532 142.291 78.9955 142.629 79.2209 143.036V141.736H80.4169V148.86H79.2209V147.534C78.9869 147.95 78.6359 148.297 78.1679 148.574C77.7085 148.843 77.1712 148.977 76.5559 148.977C75.9232 148.977 75.3512 148.821 74.8399 148.509C74.3285 148.197 73.9255 147.759 73.6309 147.196C73.3362 146.633 73.1889 145.991 73.1889 145.272ZM79.2209 145.285C79.2209 144.748 79.1125 144.28 78.8959 143.881C78.6792 143.482 78.3845 143.179 78.0119 142.971C77.6479 142.754 77.2449 142.646 76.8029 142.646C76.3609 142.646 75.9579 142.75 75.5939 142.958C75.2299 143.166 74.9395 143.469 74.7229 143.868C74.5062 144.267 74.3979 144.735 74.3979 145.272C74.3979 145.818 74.5062 146.295 74.7229 146.702C74.9395 147.101 75.2299 147.408 75.5939 147.625C75.9579 147.833 76.3609 147.937 76.8029 147.937C77.2449 147.937 77.6479 147.833 78.0119 147.625C78.3845 147.408 78.6792 147.101 78.8959 146.702C79.1125 146.295 79.2209 145.822 79.2209 145.285ZM85.887 141.606C86.7537 141.606 87.4557 141.87 87.993 142.399C88.5304 142.919 88.799 143.673 88.799 144.661V148.86H87.629V144.83C87.629 144.119 87.4514 143.578 87.096 143.205C86.7407 142.824 86.2554 142.633 85.64 142.633C85.016 142.633 84.5177 142.828 84.145 143.218C83.781 143.608 83.599 144.176 83.599 144.921V148.86H82.416V141.736H83.599V142.75C83.833 142.386 84.1494 142.104 84.548 141.905C84.9554 141.706 85.4017 141.606 85.887 141.606ZM90.2895 145.272C90.2895 144.544 90.4368 143.907 90.7315 143.361C91.0261 142.806 91.4291 142.377 91.9405 142.074C92.4605 141.771 93.0411 141.619 93.6825 141.619C94.2371 141.619 94.7528 141.749 95.2295 142.009C95.7061 142.26 96.0701 142.594 96.3215 143.01V139.24H97.5175V148.86H96.3215V147.521C96.0875 147.946 95.7408 148.297 95.2815 148.574C94.8221 148.843 94.2848 148.977 93.6695 148.977C93.0368 148.977 92.4605 148.821 91.9405 148.509C91.4291 148.197 91.0261 147.759 90.7315 147.196C90.4368 146.633 90.2895 145.991 90.2895 145.272ZM96.3215 145.285C96.3215 144.748 96.2131 144.28 95.9965 143.881C95.7798 143.482 95.4851 143.179 95.1125 142.971C94.7485 142.754 94.3455 142.646 93.9035 142.646C93.4615 142.646 93.0585 142.75 92.6945 142.958C92.3305 143.166 92.0401 143.469 91.8235 143.868C91.6068 144.267 91.4985 144.735 91.4985 145.272C91.4985 145.818 91.6068 146.295 91.8235 146.702C92.0401 147.101 92.3305 147.408 92.6945 147.625C93.0585 147.833 93.4615 147.937 93.9035 147.937C94.3455 147.937 94.7485 147.833 95.1125 147.625C95.4851 147.408 95.7798 147.101 95.9965 146.702C96.2131 146.295 96.3215 145.822 96.3215 145.285ZM100.7 143.062C100.942 142.637 101.298 142.291 101.766 142.022C102.234 141.753 102.767 141.619 103.365 141.619C104.006 141.619 104.582 141.771 105.094 142.074C105.605 142.377 106.008 142.806 106.303 143.361C106.597 143.907 106.745 144.544 106.745 145.272C106.745 145.991 106.597 146.633 106.303 147.196C106.008 147.759 105.601 148.197 105.081 148.509C104.569 148.821 103.997 148.977 103.365 148.977C102.749 148.977 102.208 148.843 101.74 148.574C101.28 148.305 100.934 147.963 100.7 147.547V148.86H99.5166V139.24H100.7V143.062ZM105.536 145.272C105.536 144.735 105.427 144.267 105.211 143.868C104.994 143.469 104.699 143.166 104.327 142.958C103.963 142.75 103.56 142.646 103.118 142.646C102.684 142.646 102.281 142.754 101.909 142.971C101.545 143.179 101.25 143.487 101.025 143.894C100.808 144.293 100.7 144.756 100.7 145.285C100.7 145.822 100.808 146.295 101.025 146.702C101.25 147.101 101.545 147.408 101.909 147.625C102.281 147.833 102.684 147.937 103.118 147.937C103.56 147.937 103.963 147.833 104.327 147.625C104.699 147.408 104.994 147.101 105.211 146.702C105.427 146.295 105.536 145.818 105.536 145.272ZM111.409 148.977C110.741 148.977 110.135 148.825 109.589 148.522C109.051 148.219 108.627 147.79 108.315 147.235C108.011 146.672 107.86 146.022 107.86 145.285C107.86 144.557 108.016 143.916 108.328 143.361C108.648 142.798 109.082 142.369 109.628 142.074C110.174 141.771 110.785 141.619 111.461 141.619C112.137 141.619 112.748 141.771 113.294 142.074C113.84 142.369 114.269 142.793 114.581 143.348C114.901 143.903 115.062 144.548 115.062 145.285C115.062 146.022 114.897 146.672 114.568 147.235C114.247 147.79 113.809 148.219 113.255 148.522C112.7 148.825 112.085 148.977 111.409 148.977ZM111.409 147.937C111.833 147.937 112.232 147.837 112.605 147.638C112.977 147.439 113.276 147.14 113.502 146.741C113.736 146.342 113.853 145.857 113.853 145.285C113.853 144.713 113.74 144.228 113.515 143.829C113.289 143.43 112.995 143.136 112.631 142.945C112.267 142.746 111.872 142.646 111.448 142.646C111.014 142.646 110.616 142.746 110.252 142.945C109.896 143.136 109.61 143.43 109.394 143.829C109.177 144.228 109.069 144.713 109.069 145.285C109.069 145.866 109.173 146.355 109.381 146.754C109.597 147.153 109.883 147.452 110.239 147.651C110.594 147.842 110.984 147.937 111.409 147.937ZM120.335 148.86L118.645 146.208L117.02 148.86H115.785L118.086 145.324L115.785 141.736H117.124L118.814 144.375L120.426 141.736H121.661L119.373 145.259L121.674 148.86H120.335ZM127.487 140.761V143.79H130.789V144.765H127.487V147.885H131.179V148.86H126.304V139.786H131.179V140.761H127.487ZM136.44 141.606C137.306 141.606 138.008 141.87 138.546 142.399C139.083 142.919 139.352 143.673 139.352 144.661V148.86H138.182V144.83C138.182 144.119 138.004 143.578 137.649 143.205C137.293 142.824 136.808 142.633 136.193 142.633C135.569 142.633 135.07 142.828 134.698 143.218C134.334 143.608 134.152 144.176 134.152 144.921V148.86H132.969V141.736H134.152V142.75C134.386 142.386 134.702 142.104 135.101 141.905C135.508 141.706 135.954 141.606 136.44 141.606ZM143.936 147.768L146.146 141.736H147.407L144.612 148.86H143.234L140.439 141.736H141.713L143.936 147.768ZM149.182 140.579C148.957 140.579 148.766 140.501 148.61 140.345C148.454 140.189 148.376 139.998 148.376 139.773C148.376 139.548 148.454 139.357 148.61 139.201C148.766 139.045 148.957 138.967 149.182 138.967C149.399 138.967 149.581 139.045 149.728 139.201C149.884 139.357 149.962 139.548 149.962 139.773C149.962 139.998 149.884 140.189 149.728 140.345C149.581 140.501 149.399 140.579 149.182 140.579ZM149.754 141.736V148.86H148.571V141.736H149.754ZM152.954 142.893C153.162 142.486 153.456 142.169 153.838 141.944C154.228 141.719 154.7 141.606 155.255 141.606V142.828H154.943C153.617 142.828 152.954 143.547 152.954 144.986V148.86H151.771V141.736H152.954V142.893ZM159.727 148.977C159.06 148.977 158.453 148.825 157.907 148.522C157.37 148.219 156.945 147.79 156.633 147.235C156.33 146.672 156.178 146.022 156.178 145.285C156.178 144.557 156.334 143.916 156.646 143.361C156.967 142.798 157.4 142.369 157.946 142.074C158.492 141.771 159.103 141.619 159.779 141.619C160.455 141.619 161.066 141.771 161.612 142.074C162.158 142.369 162.587 142.793 162.899 143.348C163.22 143.903 163.38 144.548 163.38 145.285C163.38 146.022 163.215 146.672 162.886 147.235C162.565 147.79 162.128 148.219 161.573 148.522C161.018 148.825 160.403 148.977 159.727 148.977ZM159.727 147.937C160.152 147.937 160.55 147.837 160.923 147.638C161.296 147.439 161.595 147.14 161.82 146.741C162.054 146.342 162.171 145.857 162.171 145.285C162.171 144.713 162.058 144.228 161.833 143.829C161.608 143.43 161.313 143.136 160.949 142.945C160.585 142.746 160.191 142.646 159.766 142.646C159.333 142.646 158.934 142.746 158.57 142.945C158.215 143.136 157.929 143.43 157.712 143.829C157.495 144.228 157.387 144.713 157.387 145.285C157.387 145.866 157.491 146.355 157.699 146.754C157.916 147.153 158.202 147.452 158.557 147.651C158.912 147.842 159.302 147.937 159.727 147.937ZM168.407 141.606C169.273 141.606 169.975 141.87 170.513 142.399C171.05 142.919 171.319 143.673 171.319 144.661V148.86H170.149V144.83C170.149 144.119 169.971 143.578 169.616 143.205C169.26 142.824 168.775 142.633 168.16 142.633C167.536 142.633 167.037 142.828 166.665 143.218C166.301 143.608 166.119 144.176 166.119 144.921V148.86H164.936V141.736H166.119V142.75C166.353 142.386 166.669 142.104 167.068 141.905C167.475 141.706 167.921 141.606 168.407 141.606ZM181.818 141.606C182.373 141.606 182.867 141.723 183.3 141.957C183.733 142.182 184.076 142.525 184.327 142.984C184.578 143.443 184.704 144.002 184.704 144.661V148.86H183.534V144.83C183.534 144.119 183.356 143.578 183.001 143.205C182.654 142.824 182.182 142.633 181.584 142.633C180.969 142.633 180.479 142.832 180.115 143.231C179.751 143.621 179.569 144.189 179.569 144.934V148.86H178.399V144.83C178.399 144.119 178.221 143.578 177.866 143.205C177.519 142.824 177.047 142.633 176.449 142.633C175.834 142.633 175.344 142.832 174.98 143.231C174.616 143.621 174.434 144.189 174.434 144.934V148.86H173.251V141.736H174.434V142.763C174.668 142.39 174.98 142.104 175.37 141.905C175.769 141.706 176.206 141.606 176.683 141.606C177.281 141.606 177.81 141.74 178.269 142.009C178.728 142.278 179.071 142.672 179.296 143.192C179.495 142.689 179.825 142.299 180.284 142.022C180.743 141.745 181.255 141.606 181.818 141.606ZM193.145 145.025C193.145 145.25 193.132 145.489 193.106 145.74H187.412C187.455 146.442 187.693 146.992 188.127 147.391C188.569 147.781 189.102 147.976 189.726 147.976C190.237 147.976 190.662 147.859 191 147.625C191.346 147.382 191.589 147.062 191.728 146.663H193.002C192.811 147.348 192.43 147.907 191.858 148.34C191.286 148.765 190.575 148.977 189.726 148.977C189.05 148.977 188.443 148.825 187.906 148.522C187.377 148.219 186.961 147.79 186.658 147.235C186.354 146.672 186.203 146.022 186.203 145.285C186.203 144.548 186.35 143.903 186.645 143.348C186.939 142.793 187.351 142.369 187.88 142.074C188.417 141.771 189.032 141.619 189.726 141.619C190.402 141.619 191 141.766 191.52 142.061C192.04 142.356 192.438 142.763 192.716 143.283C193.002 143.794 193.145 144.375 193.145 145.025ZM191.923 144.778C191.923 144.327 191.823 143.942 191.624 143.621C191.424 143.292 191.151 143.045 190.805 142.88C190.467 142.707 190.09 142.62 189.674 142.62C189.076 142.62 188.564 142.811 188.14 143.192C187.724 143.573 187.485 144.102 187.425 144.778H191.923ZM198.177 141.606C199.044 141.606 199.746 141.87 200.283 142.399C200.82 142.919 201.089 143.673 201.089 144.661V148.86H199.919V144.83C199.919 144.119 199.741 143.578 199.386 143.205C199.031 142.824 198.545 142.633 197.93 142.633C197.306 142.633 196.808 142.828 196.435 143.218C196.071 143.608 195.889 144.176 195.889 144.921V148.86H194.706V141.736H195.889V142.75C196.123 142.386 196.439 142.104 196.838 141.905C197.245 141.706 197.692 141.606 198.177 141.606ZM204.464 142.711V146.91C204.464 147.257 204.538 147.504 204.685 147.651C204.833 147.79 205.088 147.859 205.452 147.859H206.323V148.86H205.257C204.599 148.86 204.105 148.708 203.775 148.405C203.446 148.102 203.281 147.603 203.281 146.91V142.711H202.358V141.736H203.281V139.942H204.464V141.736H206.323V142.711H204.464Z" fill="white"/>
<path d="M53.8998 134.078H41.7633C39.529 134.078 37.7178 135.889 37.7178 138.123V150.26C37.7178 152.494 39.529 154.305 41.7633 154.305H53.8998C56.1341 154.305 57.9453 152.494 57.9453 150.26V138.123C57.9453 135.889 56.1341 134.078 53.8998 134.078Z" fill="url(#paint0_linear_0_10504)"/>
<path d="M48.9009 139.579C48.8999 139.16 48.3702 138.975 48.1065 139.301L44.1375 144.229C43.9493 144.462 44.0415 144.81 44.3208 144.921L46.1123 145.63L46.083 149.431C46.0797 149.851 46.6074 150.041 46.8744 149.717L50.8906 144.836C51.0811 144.604 50.9927 144.255 50.7149 144.141L48.9099 143.404L48.9009 139.579Z" fill="white"/>
<path d="M43.4419 139.133C43.2358 139.205 43.2358 139.509 43.4419 139.58L43.8083 139.707C44.0782 139.801 44.2901 140.021 44.3801 140.302L44.5022 140.683C44.5708 140.897 44.8623 140.897 44.9311 140.683L45.0532 140.302C45.1432 140.021 45.3551 139.801 45.625 139.707L45.9913 139.58C46.1974 139.509 46.1974 139.205 45.9913 139.133L45.625 139.007C45.3551 138.913 45.1432 138.692 45.0532 138.412L44.9311 138.031C44.8623 137.817 44.5708 137.817 44.5022 138.031L44.3801 138.412C44.2901 138.692 44.0782 138.913 43.8083 139.007L43.4419 139.133Z" fill="white" fill-opacity="0.6"/>
<path d="M41.6341 142.182C41.4692 142.125 41.4692 141.882 41.6341 141.826L41.864 141.746C41.999 141.698 42.1049 141.589 42.1499 141.448L42.2266 141.209C42.2815 141.038 42.5147 141.038 42.5696 141.209L42.6463 141.448C42.6913 141.589 42.7972 141.698 42.9322 141.746L43.1621 141.826C43.327 141.882 43.327 142.125 43.1621 142.182L42.9322 142.262C42.7972 142.309 42.6913 142.419 42.6463 142.559L42.5696 142.799C42.5147 142.97 42.2815 142.97 42.2266 142.799L42.1499 142.559C42.1049 142.419 41.999 142.309 41.864 142.262L41.6341 142.182Z" fill="white" fill-opacity="0.6"/>
<path d="M53.0991 138.713C53.3597 138.713 53.4744 138.98 53.607 139.288C53.7101 139.528 53.8241 139.794 54.0262 139.977C54.2283 140.161 54.52 140.264 54.7841 140.358C55.1232 140.479 55.4168 140.583 55.4168 140.82C55.4168 141.057 55.1232 141.161 54.7841 141.282C54.52 141.376 54.2283 141.479 54.0262 141.663C53.8241 141.847 53.7101 142.112 53.607 142.352C53.4744 142.66 53.3597 142.927 53.0991 142.927C52.8385 142.927 52.7238 142.66 52.5913 142.352C52.4881 142.112 52.3741 141.847 52.172 141.663C51.97 141.479 51.6782 141.376 51.4141 141.282C51.075 141.161 50.7814 141.057 50.7814 140.82C50.7814 140.583 51.075 140.479 51.4141 140.358C51.6782 140.264 51.97 140.161 52.172 139.977C52.3741 139.794 52.4881 139.528 52.5913 139.288C52.7238 138.98 52.8385 138.713 53.0991 138.713Z" fill="white" fill-opacity="0.6"/>
<path d="M126.719 121.941L129.639 116.884H123.799L126.719 121.941ZM126.213 95.6451V117.39H127.225V95.6451H126.213Z" fill="#545454"/>
<path d="M126.719 219.033L129.639 213.977H123.799L126.719 219.033ZM126.213 192.738V214.482H127.225V192.738H126.213Z" fill="#545454"/>
<g filter="url(#filter0_d_0_10504)">
<path d="M268.312 42.0421C268.312 33.1049 275.556 25.86 284.494 25.86H567.679C576.617 25.86 583.862 33.1049 583.862 42.0421V328.262H268.312V42.0421Z" fill="url(#paint1_linear_0_10504)"/>
<path d="M268.817 42.0421C268.817 33.3843 275.836 26.3657 284.494 26.3657H567.679C576.337 26.3657 583.356 33.3843 583.356 42.0421V327.757H268.817V42.0421Z" stroke="#313138"/>
</g>
<path d="M284.494 116.884C284.494 113.533 287.21 110.816 290.562 110.816H569.702C573.054 110.816 575.771 113.533 575.771 116.884V186.669C575.771 190.021 573.054 192.738 569.702 192.738H290.562C287.21 192.738 284.494 190.021 284.494 186.669V116.884Z" fill="#222222"/>
<path d="M294.608 124.975C294.608 122.741 296.419 120.93 298.653 120.93H333.04C335.274 120.93 337.085 122.741 337.085 124.975C337.085 127.209 335.274 129.021 333.04 129.021H298.653C296.419 129.021 294.608 127.209 294.608 124.975Z" fill="white" fill-opacity="0.06"/>
<path d="M341.131 124.975C341.131 122.741 342.942 120.93 345.176 120.93H411.927C414.162 120.93 415.973 122.741 415.973 124.975C415.973 127.209 414.162 129.021 411.927 129.021H345.176C342.942 129.021 341.131 127.209 341.131 124.975Z" fill="white" fill-opacity="0.06"/>
<path d="M420.018 124.975C420.018 122.741 421.83 120.93 424.064 120.93H490.815C493.049 120.93 494.86 122.741 494.86 124.975C494.86 127.209 493.049 129.021 490.815 129.021H424.064C421.83 129.021 420.018 127.209 420.018 124.975Z" fill="white" fill-opacity="0.06"/>
<path d="M498.906 124.975C498.906 122.741 500.717 120.93 502.951 120.93H569.702C571.936 120.93 573.748 122.741 573.748 124.975C573.748 127.209 571.936 129.021 569.702 129.021H502.951C500.717 129.021 498.906 127.209 498.906 124.975Z" fill="white" fill-opacity="0.06"/>
<path d="M294.608 141.157C294.608 138.923 296.419 137.112 298.653 137.112H322.926C325.16 137.112 326.972 138.923 326.972 141.157C326.972 143.391 325.16 145.203 322.926 145.203H298.653C296.419 145.203 294.608 143.391 294.608 141.157Z" fill="white" fill-opacity="0.06"/>
<path d="M331.017 141.157C331.017 138.923 332.829 137.112 335.063 137.112H381.586C383.82 137.112 385.632 138.923 385.632 141.157C385.632 143.391 383.82 145.203 381.586 145.203H335.063C332.829 145.203 331.017 143.391 331.017 141.157Z" fill="white" fill-opacity="0.06"/>
<path d="M389.677 141.157C389.677 138.923 391.488 137.112 393.723 137.112H410.916C413.15 137.112 414.962 138.923 414.962 141.157C414.962 143.391 413.15 145.203 410.916 145.203H393.723C391.488 145.203 389.677 143.391 389.677 141.157Z" fill="white" fill-opacity="0.06"/>
<path d="M419.007 141.157C419.007 138.923 420.818 137.112 423.053 137.112H464.519C466.753 137.112 468.565 138.923 468.565 141.157C468.565 143.391 466.753 145.203 464.519 145.203H423.053C420.818 145.203 419.007 143.391 419.007 141.157Z" fill="white" fill-opacity="0.06"/>
<path d="M472.61 141.157C472.61 138.923 474.421 137.112 476.656 137.112H559.589C561.823 137.112 563.634 138.923 563.634 141.157C563.634 143.391 561.823 145.203 559.589 145.203H476.656C474.421 145.203 472.61 143.391 472.61 141.157Z" fill="white" fill-opacity="0.06"/>
<path d="M308.767 42.042H292.585C288.116 42.042 284.494 45.6645 284.494 50.133V66.3151C284.494 70.7836 288.116 74.4061 292.585 74.4061H308.767C313.235 74.4061 316.858 70.7836 316.858 66.3151V50.133C316.858 45.6645 313.235 42.042 308.767 42.042Z" fill="#9A39E6"/>
<path d="M302.387 50.8451C302.385 50.1733 301.538 49.877 301.116 50.4006L294.765 58.2833C294.464 58.6571 294.612 59.2148 295.059 59.3915L297.925 60.5255L297.878 66.6072C297.873 67.2789 298.717 67.5838 299.145 67.0647L305.57 59.2549C305.875 58.8844 305.734 58.3256 305.289 58.1439L302.401 56.9634L302.387 50.8451Z" fill="white"/>
<path d="M293.653 50.1322C293.323 50.2466 293.323 50.7317 293.653 50.8461L294.238 51.0492C294.67 51.199 295.009 51.5516 295.154 52.001L295.349 52.6106C295.459 52.9537 295.925 52.9537 296.035 52.6106L296.231 52.001C296.375 51.5516 296.713 51.199 297.145 51.0492L297.732 50.8461C298.061 50.7317 298.061 50.2466 297.732 50.1322L297.145 49.929C296.713 49.7793 296.375 49.4266 296.231 48.9772L296.035 48.3676C295.925 48.0246 295.459 48.0246 295.349 48.3676L295.154 48.9772C295.009 49.4266 294.67 49.7793 294.238 49.929L293.653 50.1322Z" fill="white" fill-opacity="0.6"/>
<path d="M290.76 55.0096C290.496 54.9181 290.496 54.53 290.76 54.4385L291.127 54.311C291.344 54.2361 291.513 54.0598 291.586 53.8351L291.708 53.4525C291.796 53.1781 292.169 53.1781 292.257 53.4525L292.38 53.8351C292.451 54.0598 292.621 54.2361 292.837 54.311L293.205 54.4385C293.469 54.53 293.469 54.9181 293.205 55.0096L292.837 55.1371C292.621 55.212 292.451 55.3883 292.38 55.613L292.257 55.9956C292.169 56.27 291.796 56.27 291.708 55.9956L291.586 55.613C291.513 55.3883 291.344 55.212 291.127 55.1371L290.76 55.0096Z" fill="white" fill-opacity="0.6"/>
<path d="M309.104 49.4587C309.521 49.4587 309.704 49.8858 309.917 50.3791C310.082 50.7633 310.264 51.1876 310.587 51.4815C310.911 51.7755 311.377 51.9413 311.8 52.0914C312.342 52.2841 312.812 52.451 312.812 52.8301C312.812 53.209 312.342 53.3759 311.8 53.5687C311.377 53.7188 310.911 53.8846 310.587 54.1785C310.264 54.4725 310.082 54.8968 309.917 55.2809C309.704 55.7742 309.521 56.2013 309.104 56.2013C308.687 56.2013 308.504 55.7742 308.292 55.2809C308.127 54.8968 307.944 54.4725 307.621 54.1785C307.297 53.8846 306.831 53.7188 306.408 53.5687C305.865 53.3759 305.396 53.209 305.396 52.8301C305.396 52.451 305.865 52.2841 306.408 52.0914C306.831 51.9413 307.297 51.7755 307.621 51.4815C307.944 51.1876 308.127 50.7633 308.292 50.3791C308.504 49.8858 308.687 49.4587 309.104 49.4587Z" fill="white" fill-opacity="0.6"/>
<path d="M334.54 64.84L332.455 62.755C331.945 62.895 331.425 62.965 330.895 62.965C329.925 62.965 329.04 62.74 328.24 62.29C327.44 61.83 326.805 61.195 326.335 60.385C325.875 59.565 325.645 58.645 325.645 57.625C325.645 56.605 325.875 55.69 326.335 54.88C326.805 54.06 327.44 53.425 328.24 52.975C329.04 52.515 329.925 52.285 330.895 52.285C331.875 52.285 332.765 52.515 333.565 52.975C334.365 53.425 334.995 54.055 335.455 54.865C335.915 55.675 336.145 56.595 336.145 57.625C336.145 58.625 335.925 59.525 335.485 60.325C335.045 61.125 334.44 61.755 333.67 62.215L336.31 64.84H334.54ZM327.04 57.625C327.04 58.455 327.205 59.185 327.535 59.815C327.875 60.445 328.335 60.93 328.915 61.27C329.505 61.61 330.165 61.78 330.895 61.78C331.625 61.78 332.28 61.61 332.86 61.27C333.45 60.93 333.91 60.445 334.24 59.815C334.58 59.185 334.75 58.455 334.75 57.625C334.75 56.785 334.58 56.055 334.24 55.435C333.91 54.805 333.455 54.32 332.875 53.98C332.295 53.64 331.635 53.47 330.895 53.47C330.155 53.47 329.495 53.64 328.915 53.98C328.335 54.32 327.875 54.805 327.535 55.435C327.205 56.055 327.04 56.785 327.04 57.625ZM345.266 54.64V62.86H343.901V61.645C343.641 62.065 343.276 62.395 342.806 62.635C342.346 62.865 341.836 62.98 341.276 62.98C340.636 62.98 340.061 62.85 339.551 62.59C339.041 62.32 338.636 61.92 338.336 61.39C338.046 60.86 337.901 60.215 337.901 59.455V54.64H339.251V59.275C339.251 60.085 339.456 60.71 339.866 61.15C340.276 61.58 340.836 61.795 341.546 61.795C342.276 61.795 342.851 61.57 343.271 61.12C343.691 60.67 343.901 60.015 343.901 59.155V54.64H345.266ZM348.276 53.305C348.016 53.305 347.796 53.215 347.616 53.035C347.436 52.855 347.346 52.635 347.346 52.375C347.346 52.115 347.436 51.895 347.616 51.715C347.796 51.535 348.016 51.445 348.276 51.445C348.526 51.445 348.736 51.535 348.906 51.715C349.086 51.895 349.176 52.115 349.176 52.375C349.176 52.635 349.086 52.855 348.906 53.035C348.736 53.215 348.526 53.305 348.276 53.305ZM348.936 54.64V62.86H347.571V54.64H348.936ZM350.752 58.735C350.752 57.885 350.922 57.145 351.262 56.515C351.602 55.875 352.072 55.38 352.672 55.03C353.282 54.68 353.977 54.505 354.757 54.505C355.767 54.505 356.597 54.75 357.247 55.24C357.907 55.73 358.342 56.41 358.552 57.28H357.082C356.942 56.78 356.667 56.385 356.257 56.095C355.857 55.805 355.357 55.66 354.757 55.66C353.977 55.66 353.347 55.93 352.867 56.47C352.387 57 352.147 57.755 352.147 58.735C352.147 59.725 352.387 60.49 352.867 61.03C353.347 61.57 353.977 61.84 354.757 61.84C355.357 61.84 355.857 61.7 356.257 61.42C356.657 61.14 356.932 60.74 357.082 60.22H358.552C358.332 61.06 357.892 61.735 357.232 62.245C356.572 62.745 355.747 62.995 354.757 62.995C353.977 62.995 353.282 62.82 352.672 62.47C352.072 62.12 351.602 61.625 351.262 60.985C350.922 60.345 350.752 59.595 350.752 58.735ZM364.964 62.86L361.739 59.23V62.86H360.374V51.76H361.739V58.285L364.904 54.64H366.809L362.939 58.735L366.824 62.86H364.964ZM375.407 62.965C374.717 62.965 374.097 62.845 373.547 62.605C373.007 62.355 372.582 62.015 372.272 61.585C371.962 61.145 371.802 60.64 371.792 60.07H373.247C373.297 60.56 373.497 60.975 373.847 61.315C374.207 61.645 374.727 61.81 375.407 61.81C376.057 61.81 376.567 61.65 376.937 61.33C377.317 61 377.507 60.58 377.507 60.07C377.507 59.67 377.397 59.345 377.177 59.095C376.957 58.845 376.682 58.655 376.352 58.525C376.022 58.395 375.577 58.255 375.017 58.105C374.327 57.925 373.772 57.745 373.352 57.565C372.942 57.385 372.587 57.105 372.287 56.725C371.997 56.335 371.852 55.815 371.852 55.165C371.852 54.595 371.997 54.09 372.287 53.65C372.577 53.21 372.982 52.87 373.502 52.63C374.032 52.39 374.637 52.27 375.317 52.27C376.297 52.27 377.097 52.515 377.717 53.005C378.347 53.495 378.702 54.145 378.782 54.955H377.282C377.232 54.555 377.022 54.205 376.652 53.905C376.282 53.595 375.792 53.44 375.182 53.44C374.612 53.44 374.147 53.59 373.787 53.89C373.427 54.18 373.247 54.59 373.247 55.12C373.247 55.5 373.352 55.81 373.562 56.05C373.782 56.29 374.047 56.475 374.357 56.605C374.677 56.725 375.122 56.865 375.692 57.025C376.382 57.215 376.937 57.405 377.357 57.595C377.777 57.775 378.137 58.06 378.437 58.45C378.737 58.83 378.887 59.35 378.887 60.01C378.887 60.52 378.752 61 378.482 61.45C378.212 61.9 377.812 62.265 377.282 62.545C376.752 62.825 376.127 62.965 375.407 62.965ZM382.561 55.765V60.61C382.561 61.01 382.646 61.295 382.816 61.465C382.986 61.625 383.281 61.705 383.701 61.705H384.706V62.86H383.476C382.716 62.86 382.146 62.685 381.766 62.335C381.386 61.985 381.196 61.41 381.196 60.61V55.765H380.131V54.64H381.196V52.57H382.561V54.64H384.706V55.765H382.561ZM385.85 58.72C385.85 57.88 386.02 57.145 386.36 56.515C386.7 55.875 387.165 55.38 387.755 55.03C388.355 54.68 389.02 54.505 389.75 54.505C390.47 54.505 391.095 54.66 391.625 54.97C392.155 55.28 392.55 55.67 392.81 56.14V54.64H394.19V62.86H392.81V61.33C392.54 61.81 392.135 62.21 391.595 62.53C391.065 62.84 390.445 62.995 389.735 62.995C389.005 62.995 388.345 62.815 387.755 62.455C387.165 62.095 386.7 61.59 386.36 60.94C386.02 60.29 385.85 59.55 385.85 58.72ZM392.81 58.735C392.81 58.115 392.685 57.575 392.435 57.115C392.185 56.655 391.845 56.305 391.415 56.065C390.995 55.815 390.53 55.69 390.02 55.69C389.51 55.69 389.045 55.81 388.625 56.05C388.205 56.29 387.87 56.64 387.62 57.1C387.37 57.56 387.245 58.1 387.245 58.72C387.245 59.35 387.37 59.9 387.62 60.37C387.87 60.83 388.205 61.185 388.625 61.435C389.045 61.675 389.51 61.795 390.02 61.795C390.53 61.795 390.995 61.675 391.415 61.435C391.845 61.185 392.185 60.83 392.435 60.37C392.685 59.9 392.81 59.355 392.81 58.735ZM397.862 55.975C398.102 55.505 398.442 55.14 398.882 54.88C399.332 54.62 399.877 54.49 400.517 54.49V55.9H400.157C398.627 55.9 397.862 56.73 397.862 58.39V62.86H396.497V54.64H397.862V55.975ZM403.757 55.765V60.61C403.757 61.01 403.842 61.295 404.012 61.465C404.182 61.625 404.477 61.705 404.897 61.705H405.902V62.86H404.672C403.912 62.86 403.342 62.685 402.962 62.335C402.582 61.985 402.392 61.41 402.392 60.61V55.765H401.327V54.64H402.392V52.57H403.757V54.64H405.902V55.765H403.757ZM414.87 62.965C414.18 62.965 413.56 62.845 413.01 62.605C412.47 62.355 412.045 62.015 411.735 61.585C411.425 61.145 411.265 60.64 411.255 60.07H412.71C412.76 60.56 412.96 60.975 413.31 61.315C413.67 61.645 414.19 61.81 414.87 61.81C415.52 61.81 416.03 61.65 416.4 61.33C416.78 61 416.97 60.58 416.97 60.07C416.97 59.67 416.86 59.345 416.64 59.095C416.42 58.845 416.145 58.655 415.815 58.525C415.485 58.395 415.04 58.255 414.48 58.105C413.79 57.925 413.235 57.745 412.815 57.565C412.405 57.385 412.05 57.105 411.75 56.725C411.46 56.335 411.315 55.815 411.315 55.165C411.315 54.595 411.46 54.09 411.75 53.65C412.04 53.21 412.445 52.87 412.965 52.63C413.495 52.39 414.1 52.27 414.78 52.27C415.76 52.27 416.56 52.515 417.18 53.005C417.81 53.495 418.165 54.145 418.245 54.955H416.745C416.695 54.555 416.485 54.205 416.115 53.905C415.745 53.595 415.255 53.44 414.645 53.44C414.075 53.44 413.61 53.59 413.25 53.89C412.89 54.18 412.71 54.59 412.71 55.12C412.71 55.5 412.815 55.81 413.025 56.05C413.245 56.29 413.51 56.475 413.82 56.605C414.14 56.725 414.585 56.865 415.155 57.025C415.845 57.215 416.4 57.405 416.82 57.595C417.24 57.775 417.6 58.06 417.9 58.45C418.2 58.83 418.35 59.35 418.35 60.01C418.35 60.52 418.215 61 417.945 61.45C417.675 61.9 417.275 62.265 416.745 62.545C416.215 62.825 415.59 62.965 414.87 62.965ZM423.614 52.405C424.754 52.405 425.739 52.62 426.569 53.05C427.409 53.47 428.049 54.075 428.489 54.865C428.939 55.655 429.164 56.585 429.164 57.655C429.164 58.725 428.939 59.655 428.489 60.445C428.049 61.225 427.409 61.825 426.569 62.245C425.739 62.655 424.754 62.86 423.614 62.86H420.359V52.405H423.614ZM423.614 61.735C424.964 61.735 425.994 61.38 426.704 60.67C427.414 59.95 427.769 58.945 427.769 57.655C427.769 56.355 427.409 55.34 426.689 54.61C425.979 53.88 424.954 53.515 423.614 53.515H421.724V61.735H423.614ZM436.635 62.86L432.33 58.09V62.86H430.965V52.405H432.33V57.25L436.65 52.405H438.375L433.635 57.64L438.42 62.86H436.635ZM442.854 62.995C442.224 62.995 441.659 62.89 441.159 62.68C440.659 62.46 440.264 62.16 439.974 61.78C439.684 61.39 439.524 60.945 439.494 60.445H440.904C440.944 60.855 441.134 61.19 441.474 61.45C441.824 61.71 442.279 61.84 442.839 61.84C443.359 61.84 443.769 61.725 444.069 61.495C444.369 61.265 444.519 60.975 444.519 60.625C444.519 60.265 444.359 60 444.039 59.83C443.719 59.65 443.224 59.475 442.554 59.305C441.944 59.145 441.444 58.985 441.054 58.825C440.674 58.655 440.344 58.41 440.064 58.09C439.794 57.76 439.659 57.33 439.659 56.8C439.659 56.38 439.784 55.995 440.034 55.645C440.284 55.295 440.639 55.02 441.099 54.82C441.559 54.61 442.084 54.505 442.674 54.505C443.584 54.505 444.319 54.735 444.879 55.195C445.439 55.655 445.739 56.285 445.779 57.085H444.414C444.384 56.655 444.209 56.31 443.889 56.05C443.579 55.79 443.159 55.66 442.629 55.66C442.139 55.66 441.749 55.765 441.459 55.975C441.169 56.185 441.024 56.46 441.024 56.8C441.024 57.07 441.109 57.295 441.279 57.475C441.459 57.645 441.679 57.785 441.939 57.895C442.209 57.995 442.579 58.11 443.049 58.24C443.639 58.4 444.119 58.56 444.489 58.72C444.859 58.87 445.174 59.1 445.434 59.41C445.704 59.72 445.844 60.125 445.854 60.625C445.854 61.075 445.729 61.48 445.479 61.84C445.229 62.2 444.874 62.485 444.414 62.695C443.964 62.895 443.444 62.995 442.854 62.995Z" fill="white"/>
<path d="M291.43 98.93C291.43 99.51 291.23 99.9933 290.83 100.38C290.437 100.76 289.833 100.95 289.02 100.95H287.68V103.86H286.77V96.89H289.02C289.807 96.89 290.403 97.08 290.81 97.46C291.223 97.84 291.43 98.33 291.43 98.93ZM289.02 100.2C289.527 100.2 289.9 100.09 290.14 99.87C290.38 99.65 290.5 99.3367 290.5 98.93C290.5 98.07 290.007 97.64 289.02 97.64H287.68V100.2H289.02ZM293.471 99.27C293.631 98.9567 293.858 98.7133 294.151 98.54C294.451 98.3667 294.814 98.28 295.241 98.28V99.22H295.001C293.981 99.22 293.471 99.7733 293.471 100.88V103.86H292.561V98.38H293.471V99.27ZM298.681 103.95C298.168 103.95 297.701 103.833 297.281 103.6C296.868 103.367 296.541 103.037 296.301 102.61C296.068 102.177 295.951 101.677 295.951 101.11C295.951 100.55 296.071 100.057 296.311 99.63C296.558 99.1967 296.891 98.8667 297.311 98.64C297.731 98.4067 298.201 98.29 298.721 98.29C299.241 98.29 299.711 98.4067 300.131 98.64C300.551 98.8667 300.881 99.1933 301.121 99.62C301.368 100.047 301.491 100.543 301.491 101.11C301.491 101.677 301.365 102.177 301.111 102.61C300.865 103.037 300.528 103.367 300.101 103.6C299.675 103.833 299.201 103.95 298.681 103.95ZM298.681 103.15C299.008 103.15 299.315 103.073 299.601 102.92C299.888 102.767 300.118 102.537 300.291 102.23C300.471 101.923 300.561 101.55 300.561 101.11C300.561 100.67 300.475 100.297 300.301 99.99C300.128 99.6833 299.901 99.4567 299.621 99.31C299.341 99.1567 299.038 99.08 298.711 99.08C298.378 99.08 298.071 99.1567 297.791 99.31C297.518 99.4567 297.298 99.6833 297.131 99.99C296.965 100.297 296.881 100.67 296.881 101.11C296.881 101.557 296.961 101.933 297.121 102.24C297.288 102.547 297.508 102.777 297.781 102.93C298.055 103.077 298.355 103.15 298.681 103.15ZM304.948 98.29C305.421 98.29 305.835 98.3933 306.188 98.6C306.548 98.8067 306.815 99.0667 306.988 99.38V98.38H307.908V103.98C307.908 104.48 307.801 104.923 307.588 105.31C307.375 105.703 307.068 106.01 306.668 106.23C306.275 106.45 305.815 106.56 305.288 106.56C304.568 106.56 303.968 106.39 303.488 106.05C303.008 105.71 302.725 105.247 302.638 104.66H303.538C303.638 104.993 303.845 105.26 304.158 105.46C304.471 105.667 304.848 105.77 305.288 105.77C305.788 105.77 306.195 105.613 306.508 105.3C306.828 104.987 306.988 104.547 306.988 103.98V102.83C306.808 103.15 306.541 103.417 306.188 103.63C305.835 103.843 305.421 103.95 304.948 103.95C304.461 103.95 304.018 103.83 303.618 103.59C303.225 103.35 302.915 103.013 302.688 102.58C302.461 102.147 302.348 101.653 302.348 101.1C302.348 100.54 302.461 100.05 302.688 99.63C302.915 99.2033 303.225 98.8733 303.618 98.64C304.018 98.4067 304.461 98.29 304.948 98.29ZM306.988 101.11C306.988 100.697 306.905 100.337 306.738 100.03C306.571 99.7233 306.345 99.49 306.058 99.33C305.778 99.1633 305.468 99.08 305.128 99.08C304.788 99.08 304.478 99.16 304.198 99.32C303.918 99.48 303.695 99.7133 303.528 100.02C303.361 100.327 303.278 100.687 303.278 101.1C303.278 101.52 303.361 101.887 303.528 102.2C303.695 102.507 303.918 102.743 304.198 102.91C304.478 103.07 304.788 103.15 305.128 103.15C305.468 103.15 305.778 103.07 306.058 102.91C306.345 102.743 306.571 102.507 306.738 102.2C306.905 101.887 306.988 101.523 306.988 101.11ZM310.356 99.27C310.516 98.9567 310.742 98.7133 311.036 98.54C311.336 98.3667 311.699 98.28 312.126 98.28V99.22H311.886C310.866 99.22 310.356 99.7733 310.356 100.88V103.86H309.446V98.38H310.356V99.27ZM312.836 101.1C312.836 100.54 312.95 100.05 313.176 99.63C313.403 99.2033 313.713 98.8733 314.106 98.64C314.506 98.4067 314.95 98.29 315.436 98.29C315.916 98.29 316.333 98.3933 316.686 98.6C317.04 98.8067 317.303 99.0667 317.476 99.38V98.38H318.396V103.86H317.476V102.84C317.296 103.16 317.026 103.427 316.666 103.64C316.313 103.847 315.9 103.95 315.426 103.95C314.94 103.95 314.5 103.83 314.106 103.59C313.713 103.35 313.403 103.013 313.176 102.58C312.95 102.147 312.836 101.653 312.836 101.1ZM317.476 101.11C317.476 100.697 317.393 100.337 317.226 100.03C317.06 99.7233 316.833 99.49 316.546 99.33C316.266 99.1633 315.956 99.08 315.616 99.08C315.276 99.08 314.966 99.16 314.686 99.32C314.406 99.48 314.183 99.7133 314.016 100.02C313.85 100.327 313.766 100.687 313.766 101.1C313.766 101.52 313.85 101.887 314.016 102.2C314.183 102.507 314.406 102.743 314.686 102.91C314.966 103.07 315.276 103.15 315.616 103.15C315.956 103.15 316.266 103.07 316.546 102.91C316.833 102.743 317.06 102.507 317.226 102.2C317.393 101.887 317.476 101.523 317.476 101.11ZM326.524 98.28C326.951 98.28 327.331 98.37 327.664 98.55C327.997 98.7233 328.261 98.9867 328.454 99.34C328.647 99.6933 328.744 100.123 328.744 100.63V103.86H327.844V100.76C327.844 100.213 327.707 99.7967 327.434 99.51C327.167 99.2167 326.804 99.07 326.344 99.07C325.871 99.07 325.494 99.2233 325.214 99.53C324.934 99.83 324.794 100.267 324.794 100.84V103.86H323.894V100.76C323.894 100.213 323.757 99.7967 323.484 99.51C323.217 99.2167 322.854 99.07 322.394 99.07C321.921 99.07 321.544 99.2233 321.264 99.53C320.984 99.83 320.844 100.267 320.844 100.84V103.86H319.934V98.38H320.844V99.17C321.024 98.8833 321.264 98.6633 321.564 98.51C321.871 98.3567 322.207 98.28 322.574 98.28C323.034 98.28 323.441 98.3833 323.794 98.59C324.147 98.7967 324.411 99.1 324.584 99.5C324.737 99.1133 324.991 98.8133 325.344 98.6C325.697 98.3867 326.091 98.28 326.524 98.28ZM336.827 98.28C337.253 98.28 337.633 98.37 337.967 98.55C338.3 98.7233 338.563 98.9867 338.757 99.34C338.95 99.6933 339.047 100.123 339.047 100.63V103.86H338.147V100.76C338.147 100.213 338.01 99.7967 337.737 99.51C337.47 99.2167 337.107 99.07 336.647 99.07C336.173 99.07 335.797 99.2233 335.517 99.53C335.237 99.83 335.097 100.267 335.097 100.84V103.86H334.197V100.76C334.197 100.213 334.06 99.7967 333.787 99.51C333.52 99.2167 333.157 99.07 332.697 99.07C332.223 99.07 331.847 99.2233 331.567 99.53C331.287 99.83 331.147 100.267 331.147 100.84V103.86H330.237V98.38H331.147V99.17C331.327 98.8833 331.567 98.6633 331.867 98.51C332.173 98.3567 332.51 98.28 332.877 98.28C333.337 98.28 333.743 98.3833 334.097 98.59C334.45 98.7967 334.713 99.1 334.887 99.5C335.04 99.1133 335.293 98.8133 335.647 98.6C336 98.3867 336.393 98.28 336.827 98.28ZM341.01 97.49C340.836 97.49 340.69 97.43 340.57 97.31C340.45 97.19 340.39 97.0433 340.39 96.87C340.39 96.6967 340.45 96.55 340.57 96.43C340.69 96.31 340.836 96.25 341.01 96.25C341.176 96.25 341.316 96.31 341.43 96.43C341.55 96.55 341.61 96.6967 341.61 96.87C341.61 97.0433 341.55 97.19 341.43 97.31C341.316 97.43 341.176 97.49 341.01 97.49ZM341.45 98.38V103.86H340.54V98.38H341.45ZM345.67 98.28C346.337 98.28 346.877 98.4833 347.29 98.89C347.704 99.29 347.91 99.87 347.91 100.63V103.86H347.01V100.76C347.01 100.213 346.874 99.7967 346.6 99.51C346.327 99.2167 345.954 99.07 345.48 99.07C345 99.07 344.617 99.22 344.33 99.52C344.05 99.82 343.91 100.257 343.91 100.83V103.86H343V98.38H343.91V99.16C344.09 98.88 344.334 98.6633 344.64 98.51C344.954 98.3567 345.297 98.28 345.67 98.28ZM351.657 98.29C352.13 98.29 352.544 98.3933 352.897 98.6C353.257 98.8067 353.524 99.0667 353.697 99.38V98.38H354.617V103.98C354.617 104.48 354.51 104.923 354.297 105.31C354.084 105.703 353.777 106.01 353.377 106.23C352.984 106.45 352.524 106.56 351.997 106.56C351.277 106.56 350.677 106.39 350.197 106.05C349.717 105.71 349.434 105.247 349.347 104.66H350.247C350.347 104.993 350.554 105.26 350.867 105.46C351.18 105.667 351.557 105.77 351.997 105.77C352.497 105.77 352.904 105.613 353.217 105.3C353.537 104.987 353.697 104.547 353.697 103.98V102.83C353.517 103.15 353.25 103.417 352.897 103.63C352.544 103.843 352.13 103.95 351.657 103.95C351.17 103.95 350.727 103.83 350.327 103.59C349.934 103.35 349.624 103.013 349.397 102.58C349.17 102.147 349.057 101.653 349.057 101.1C349.057 100.54 349.17 100.05 349.397 99.63C349.624 99.2033 349.934 98.8733 350.327 98.64C350.727 98.4067 351.17 98.29 351.657 98.29ZM353.697 101.11C353.697 100.697 353.614 100.337 353.447 100.03C353.28 99.7233 353.054 99.49 352.767 99.33C352.487 99.1633 352.177 99.08 351.837 99.08C351.497 99.08 351.187 99.16 350.907 99.32C350.627 99.48 350.404 99.7133 350.237 100.02C350.07 100.327 349.987 100.687 349.987 101.1C349.987 101.52 350.07 101.887 350.237 102.2C350.404 102.507 350.627 102.743 350.907 102.91C351.187 103.07 351.497 103.15 351.837 103.15C352.177 103.15 352.487 103.07 352.767 102.91C353.054 102.743 353.28 102.507 353.447 102.2C353.614 101.887 353.697 101.523 353.697 101.11ZM359.731 103.12H362.171V103.86H358.821V96.89H359.731V103.12ZM362.797 101.1C362.797 100.54 362.911 100.05 363.137 99.63C363.364 99.2033 363.674 98.8733 364.067 98.64C364.467 98.4067 364.911 98.29 365.397 98.29C365.877 98.29 366.294 98.3933 366.647 98.6C367.001 98.8067 367.264 99.0667 367.437 99.38V98.38H368.357V103.86H367.437V102.84C367.257 103.16 366.987 103.427 366.627 103.64C366.274 103.847 365.861 103.95 365.387 103.95C364.901 103.95 364.461 103.83 364.067 103.59C363.674 103.35 363.364 103.013 363.137 102.58C362.911 102.147 362.797 101.653 362.797 101.1ZM367.437 101.11C367.437 100.697 367.354 100.337 367.187 100.03C367.021 99.7233 366.794 99.49 366.507 99.33C366.227 99.1633 365.917 99.08 365.577 99.08C365.237 99.08 364.927 99.16 364.647 99.32C364.367 99.48 364.144 99.7133 363.977 100.02C363.811 100.327 363.727 100.687 363.727 101.1C363.727 101.52 363.811 101.887 363.977 102.2C364.144 102.507 364.367 102.743 364.647 102.91C364.927 103.07 365.237 103.15 365.577 103.15C365.917 103.15 366.227 103.07 366.507 102.91C366.794 102.743 367.021 102.507 367.187 102.2C367.354 101.887 367.437 101.523 367.437 101.11ZM372.565 98.28C373.232 98.28 373.772 98.4833 374.185 98.89C374.598 99.29 374.805 99.87 374.805 100.63V103.86H373.905V100.76C373.905 100.213 373.768 99.7967 373.495 99.51C373.222 99.2167 372.848 99.07 372.375 99.07C371.895 99.07 371.512 99.22 371.225 99.52C370.945 99.82 370.805 100.257 370.805 100.83V103.86H369.895V98.38H370.805V99.16C370.985 98.88 371.228 98.6633 371.535 98.51C371.848 98.3567 372.192 98.28 372.565 98.28ZM378.551 98.29C379.025 98.29 379.438 98.3933 379.791 98.6C380.151 98.8067 380.418 99.0667 380.591 99.38V98.38H381.511V103.98C381.511 104.48 381.405 104.923 381.191 105.31C380.978 105.703 380.671 106.01 380.271 106.23C379.878 106.45 379.418 106.56 378.891 106.56C378.171 106.56 377.571 106.39 377.091 106.05C376.611 105.71 376.328 105.247 376.241 104.66H377.141C377.241 104.993 377.448 105.26 377.761 105.46C378.075 105.667 378.451 105.77 378.891 105.77C379.391 105.77 379.798 105.613 380.111 105.3C380.431 104.987 380.591 104.547 380.591 103.98V102.83C380.411 103.15 380.145 103.417 379.791 103.63C379.438 103.843 379.025 103.95 378.551 103.95C378.065 103.95 377.621 103.83 377.221 103.59C376.828 103.35 376.518 103.013 376.291 102.58C376.065 102.147 375.951 101.653 375.951 101.1C375.951 100.54 376.065 100.05 376.291 99.63C376.518 99.2033 376.828 98.8733 377.221 98.64C377.621 98.4067 378.065 98.29 378.551 98.29ZM380.591 101.11C380.591 100.697 380.508 100.337 380.341 100.03C380.175 99.7233 379.948 99.49 379.661 99.33C379.381 99.1633 379.071 99.08 378.731 99.08C378.391 99.08 378.081 99.16 377.801 99.32C377.521 99.48 377.298 99.7133 377.131 100.02C376.965 100.327 376.881 100.687 376.881 101.1C376.881 101.52 376.965 101.887 377.131 102.2C377.298 102.507 377.521 102.743 377.801 102.91C378.081 103.07 378.391 103.15 378.731 103.15C379.071 103.15 379.381 103.07 379.661 102.91C379.948 102.743 380.175 102.507 380.341 102.2C380.508 101.887 380.591 101.523 380.591 101.11ZM387.909 98.38V103.86H386.999V103.05C386.826 103.33 386.583 103.55 386.269 103.71C385.963 103.863 385.623 103.94 385.249 103.94C384.823 103.94 384.439 103.853 384.099 103.68C383.759 103.5 383.489 103.233 383.289 102.88C383.096 102.527 382.999 102.097 382.999 101.59V98.38H383.899V101.47C383.899 102.01 384.036 102.427 384.309 102.72C384.583 103.007 384.956 103.15 385.429 103.15C385.916 103.15 386.299 103 386.579 102.7C386.859 102.4 386.999 101.963 386.999 101.39V98.38H387.909ZM389.106 101.1C389.106 100.54 389.219 100.05 389.446 99.63C389.672 99.2033 389.982 98.8733 390.376 98.64C390.776 98.4067 391.219 98.29 391.706 98.29C392.186 98.29 392.602 98.3933 392.956 98.6C393.309 98.8067 393.572 99.0667 393.746 99.38V98.38H394.666V103.86H393.746V102.84C393.566 103.16 393.296 103.427 392.936 103.64C392.582 103.847 392.169 103.95 391.696 103.95C391.209 103.95 390.769 103.83 390.376 103.59C389.982 103.35 389.672 103.013 389.446 102.58C389.219 102.147 389.106 101.653 389.106 101.1ZM393.746 101.11C393.746 100.697 393.662 100.337 393.496 100.03C393.329 99.7233 393.102 99.49 392.816 99.33C392.536 99.1633 392.226 99.08 391.886 99.08C391.546 99.08 391.236 99.16 390.956 99.32C390.676 99.48 390.452 99.7133 390.286 100.02C390.119 100.327 390.036 100.687 390.036 101.1C390.036 101.52 390.119 101.887 390.286 102.2C390.452 102.507 390.676 102.743 390.956 102.91C391.236 103.07 391.546 103.15 391.886 103.15C392.226 103.15 392.536 103.07 392.816 102.91C393.102 102.743 393.329 102.507 393.496 102.2C393.662 101.887 393.746 101.523 393.746 101.11ZM398.464 98.29C398.937 98.29 399.35 98.3933 399.704 98.6C400.064 98.8067 400.33 99.0667 400.504 99.38V98.38H401.424V103.98C401.424 104.48 401.317 104.923 401.104 105.31C400.89 105.703 400.584 106.01 400.184 106.23C399.79 106.45 399.33 106.56 398.804 106.56C398.084 106.56 397.484 106.39 397.004 106.05C396.524 105.71 396.24 105.247 396.154 104.66H397.054C397.154 104.993 397.36 105.26 397.674 105.46C397.987 105.667 398.364 105.77 398.804 105.77C399.304 105.77 399.71 105.613 400.024 105.3C400.344 104.987 400.504 104.547 400.504 103.98V102.83C400.324 103.15 400.057 103.417 399.704 103.63C399.35 103.843 398.937 103.95 398.464 103.95C397.977 103.95 397.534 103.83 397.134 103.59C396.74 103.35 396.43 103.013 396.204 102.58C395.977 102.147 395.864 101.653 395.864 101.1C395.864 100.54 395.977 100.05 396.204 99.63C396.43 99.2033 396.74 98.8733 397.134 98.64C397.534 98.4067 397.977 98.29 398.464 98.29ZM400.504 101.11C400.504 100.697 400.42 100.337 400.254 100.03C400.087 99.7233 399.86 99.49 399.574 99.33C399.294 99.1633 398.984 99.08 398.644 99.08C398.304 99.08 397.994 99.16 397.714 99.32C397.434 99.48 397.21 99.7133 397.044 100.02C396.877 100.327 396.794 100.687 396.794 101.1C396.794 101.52 396.877 101.887 397.044 102.2C397.21 102.507 397.434 102.743 397.714 102.91C397.994 103.07 398.304 103.15 398.644 103.15C398.984 103.15 399.294 103.07 399.574 102.91C399.86 102.743 400.087 102.507 400.254 102.2C400.42 101.887 400.504 101.523 400.504 101.11ZM407.961 100.91C407.961 101.083 407.951 101.267 407.931 101.46H403.551C403.585 102 403.768 102.423 404.101 102.73C404.441 103.03 404.851 103.18 405.331 103.18C405.725 103.18 406.051 103.09 406.311 102.91C406.578 102.723 406.765 102.477 406.871 102.17H407.851C407.705 102.697 407.411 103.127 406.971 103.46C406.531 103.787 405.985 103.95 405.331 103.95C404.811 103.95 404.345 103.833 403.931 103.6C403.525 103.367 403.205 103.037 402.971 102.61C402.738 102.177 402.621 101.677 402.621 101.11C402.621 100.543 402.735 100.047 402.961 99.62C403.188 99.1933 403.505 98.8667 403.911 98.64C404.325 98.4067 404.798 98.29 405.331 98.29C405.851 98.29 406.311 98.4033 406.711 98.63C407.111 98.8567 407.418 99.17 407.631 99.57C407.851 99.9633 407.961 100.41 407.961 100.91ZM407.021 100.72C407.021 100.373 406.945 100.077 406.791 99.83C406.638 99.5767 406.428 99.3867 406.161 99.26C405.901 99.1267 405.611 99.06 405.291 99.06C404.831 99.06 404.438 99.2067 404.111 99.5C403.791 99.7933 403.608 100.2 403.561 100.72H407.021ZM411.103 103.95C410.683 103.95 410.306 103.88 409.973 103.74C409.639 103.593 409.376 103.393 409.183 103.14C408.989 102.88 408.883 102.583 408.863 102.25H409.803C409.829 102.523 409.956 102.747 410.183 102.92C410.416 103.093 410.719 103.18 411.093 103.18C411.439 103.18 411.713 103.103 411.913 102.95C412.113 102.797 412.213 102.603 412.213 102.37C412.213 102.13 412.106 101.953 411.893 101.84C411.679 101.72 411.349 101.603 410.903 101.49C410.496 101.383 410.163 101.277 409.903 101.17C409.649 101.057 409.429 100.893 409.243 100.68C409.063 100.46 408.973 100.173 408.973 99.82C408.973 99.54 409.056 99.2833 409.223 99.05C409.389 98.8167 409.626 98.6333 409.933 98.5C410.239 98.36 410.589 98.29 410.983 98.29C411.589 98.29 412.079 98.4433 412.453 98.75C412.826 99.0567 413.026 99.4767 413.053 100.01H412.143C412.123 99.7233 412.006 99.4933 411.793 99.32C411.586 99.1467 411.306 99.06 410.953 99.06C410.626 99.06 410.366 99.13 410.173 99.27C409.979 99.41 409.883 99.5933 409.883 99.82C409.883 100 409.939 100.15 410.053 100.27C410.173 100.383 410.319 100.477 410.493 100.55C410.673 100.617 410.919 100.693 411.233 100.78C411.626 100.887 411.946 100.993 412.193 101.1C412.439 101.2 412.649 101.353 412.823 101.56C413.003 101.767 413.096 102.037 413.103 102.37C413.103 102.67 413.019 102.94 412.853 103.18C412.686 103.42 412.449 103.61 412.143 103.75C411.843 103.883 411.496 103.95 411.103 103.95Z" fill="white"/>
<path d="M284.494 239.261C284.494 235.909 287.21 233.193 290.562 233.193H570.714C574.065 233.193 576.782 235.909 576.782 239.261V259.489C576.782 262.84 574.065 265.557 570.714 265.557H290.562C287.21 265.557 284.494 262.84 284.494 259.489V239.261Z" fill="#222222"/>
<path d="M286.98 223.93C286.52 223.93 286.107 223.85 285.74 223.69C285.38 223.523 285.097 223.297 284.89 223.01C284.683 222.717 284.577 222.38 284.57 222H285.54C285.573 222.327 285.707 222.603 285.94 222.83C286.18 223.05 286.527 223.16 286.98 223.16C287.413 223.16 287.753 223.053 288 222.84C288.253 222.62 288.38 222.34 288.38 222C288.38 221.733 288.307 221.517 288.16 221.35C288.013 221.183 287.83 221.057 287.61 220.97C287.39 220.883 287.093 220.79 286.72 220.69C286.26 220.57 285.89 220.45 285.61 220.33C285.337 220.21 285.1 220.023 284.9 219.77C284.707 219.51 284.61 219.163 284.61 218.73C284.61 218.35 284.707 218.013 284.9 217.72C285.093 217.427 285.363 217.2 285.71 217.04C286.063 216.88 286.467 216.8 286.92 216.8C287.573 216.8 288.107 216.963 288.52 217.29C288.94 217.617 289.177 218.05 289.23 218.59H288.23C288.197 218.323 288.057 218.09 287.81 217.89C287.563 217.683 287.237 217.58 286.83 217.58C286.45 217.58 286.14 217.68 285.9 217.88C285.66 218.073 285.54 218.347 285.54 218.7C285.54 218.953 285.61 219.16 285.75 219.32C285.897 219.48 286.073 219.603 286.28 219.69C286.493 219.77 286.79 219.863 287.17 219.97C287.63 220.097 288 220.223 288.28 220.35C288.56 220.47 288.8 220.66 289 220.92C289.2 221.173 289.3 221.52 289.3 221.96C289.3 222.3 289.21 222.62 289.03 222.92C288.85 223.22 288.583 223.463 288.23 223.65C287.877 223.837 287.46 223.93 286.98 223.93ZM290.299 221.1C290.299 220.54 290.412 220.05 290.639 219.63C290.866 219.203 291.176 218.873 291.569 218.64C291.969 218.407 292.412 218.29 292.899 218.29C293.379 218.29 293.796 218.393 294.149 218.6C294.502 218.807 294.766 219.067 294.939 219.38V218.38H295.859V223.86H294.939V222.84C294.759 223.16 294.489 223.427 294.129 223.64C293.776 223.847 293.362 223.95 292.889 223.95C292.402 223.95 291.962 223.83 291.569 223.59C291.176 223.35 290.866 223.013 290.639 222.58C290.412 222.147 290.299 221.653 290.299 221.1ZM294.939 221.11C294.939 220.697 294.856 220.337 294.689 220.03C294.522 219.723 294.296 219.49 294.009 219.33C293.729 219.163 293.419 219.08 293.079 219.08C292.739 219.08 292.429 219.16 292.149 219.32C291.869 219.48 291.646 219.713 291.479 220.02C291.312 220.327 291.229 220.687 291.229 221.1C291.229 221.52 291.312 221.887 291.479 222.2C291.646 222.507 291.869 222.743 292.149 222.91C292.429 223.07 292.739 223.15 293.079 223.15C293.419 223.15 293.729 223.07 294.009 222.91C294.296 222.743 294.522 222.507 294.689 222.2C294.856 221.887 294.939 221.523 294.939 221.11ZM300.067 218.28C300.734 218.28 301.274 218.483 301.687 218.89C302.1 219.29 302.307 219.87 302.307 220.63V223.86H301.407V220.76C301.407 220.213 301.27 219.797 300.997 219.51C300.724 219.217 300.35 219.07 299.877 219.07C299.397 219.07 299.014 219.22 298.727 219.52C298.447 219.82 298.307 220.257 298.307 220.83V223.86H297.397V218.38H298.307V219.16C298.487 218.88 298.73 218.663 299.037 218.51C299.35 218.357 299.694 218.28 300.067 218.28ZM303.453 221.1C303.453 220.54 303.567 220.05 303.793 219.63C304.02 219.203 304.33 218.873 304.723 218.64C305.123 218.407 305.57 218.29 306.063 218.29C306.49 218.29 306.887 218.39 307.253 218.59C307.62 218.783 307.9 219.04 308.093 219.36V216.46H309.013V223.86H308.093V222.83C307.913 223.157 307.647 223.427 307.293 223.64C306.94 223.847 306.527 223.95 306.053 223.95C305.567 223.95 305.123 223.83 304.723 223.59C304.33 223.35 304.02 223.013 303.793 222.58C303.567 222.147 303.453 221.653 303.453 221.1ZM308.093 221.11C308.093 220.697 308.01 220.337 307.843 220.03C307.677 219.723 307.45 219.49 307.163 219.33C306.883 219.163 306.573 219.08 306.233 219.08C305.893 219.08 305.583 219.16 305.303 219.32C305.023 219.48 304.8 219.713 304.633 220.02C304.467 220.327 304.383 220.687 304.383 221.1C304.383 221.52 304.467 221.887 304.633 222.2C304.8 222.507 305.023 222.743 305.303 222.91C305.583 223.07 305.893 223.15 306.233 223.15C306.573 223.15 306.883 223.07 307.163 222.91C307.45 222.743 307.677 222.507 307.843 222.2C308.01 221.887 308.093 221.523 308.093 221.11ZM311.461 219.4C311.648 219.073 311.921 218.807 312.281 218.6C312.641 218.393 313.051 218.29 313.511 218.29C314.005 218.29 314.448 218.407 314.841 218.64C315.235 218.873 315.545 219.203 315.771 219.63C315.998 220.05 316.111 220.54 316.111 221.1C316.111 221.653 315.998 222.147 315.771 222.58C315.545 223.013 315.231 223.35 314.831 223.59C314.438 223.83 313.998 223.95 313.511 223.95C313.038 223.95 312.621 223.847 312.261 223.64C311.908 223.433 311.641 223.17 311.461 222.85V223.86H310.551V216.46H311.461V219.4ZM315.181 221.1C315.181 220.687 315.098 220.327 314.931 220.02C314.765 219.713 314.538 219.48 314.251 219.32C313.971 219.16 313.661 219.08 313.321 219.08C312.988 219.08 312.678 219.163 312.391 219.33C312.111 219.49 311.885 219.727 311.711 220.04C311.545 220.347 311.461 220.703 311.461 221.11C311.461 221.523 311.545 221.887 311.711 222.2C311.885 222.507 312.111 222.743 312.391 222.91C312.678 223.07 312.988 223.15 313.321 223.15C313.661 223.15 313.971 223.07 314.251 222.91C314.538 222.743 314.765 222.507 314.931 222.2C315.098 221.887 315.181 221.52 315.181 221.1ZM319.699 223.95C319.186 223.95 318.719 223.833 318.299 223.6C317.886 223.367 317.559 223.037 317.319 222.61C317.086 222.177 316.969 221.677 316.969 221.11C316.969 220.55 317.089 220.057 317.329 219.63C317.576 219.197 317.909 218.867 318.329 218.64C318.749 218.407 319.219 218.29 319.739 218.29C320.259 218.29 320.729 218.407 321.149 218.64C321.569 218.867 321.899 219.193 322.139 219.62C322.386 220.047 322.509 220.543 322.509 221.11C322.509 221.677 322.382 222.177 322.129 222.61C321.882 223.037 321.546 223.367 321.119 223.6C320.692 223.833 320.219 223.95 319.699 223.95ZM319.699 223.15C320.026 223.15 320.332 223.073 320.619 222.92C320.906 222.767 321.136 222.537 321.309 222.23C321.489 221.923 321.579 221.55 321.579 221.11C321.579 220.67 321.492 220.297 321.319 219.99C321.146 219.683 320.919 219.457 320.639 219.31C320.359 219.157 320.056 219.08 319.729 219.08C319.396 219.08 319.089 219.157 318.809 219.31C318.536 219.457 318.316 219.683 318.149 219.99C317.982 220.297 317.899 220.67 317.899 221.11C317.899 221.557 317.979 221.933 318.139 222.24C318.306 222.547 318.526 222.777 318.799 222.93C319.072 223.077 319.372 223.15 319.699 223.15ZM326.566 223.86L325.266 221.82L324.016 223.86H323.066L324.836 221.14L323.066 218.38H324.096L325.396 220.41L326.636 218.38H327.586L325.826 221.09L327.596 223.86H326.566ZM332.067 217.63V219.96H334.607V220.71H332.067V223.11H334.907V223.86H331.157V216.88H334.907V217.63H332.067ZM338.954 218.28C339.62 218.28 340.16 218.483 340.574 218.89C340.987 219.29 341.194 219.87 341.194 220.63V223.86H340.294V220.76C340.294 220.213 340.157 219.797 339.884 219.51C339.61 219.217 339.237 219.07 338.764 219.07C338.284 219.07 337.9 219.22 337.614 219.52C337.334 219.82 337.194 220.257 337.194 220.83V223.86H336.284V218.38H337.194V219.16C337.374 218.88 337.617 218.663 337.924 218.51C338.237 218.357 338.58 218.28 338.954 218.28ZM344.72 223.02L346.42 218.38H347.39L345.24 223.86H344.18L342.03 218.38H343.01L344.72 223.02ZM348.756 217.49C348.582 217.49 348.436 217.43 348.316 217.31C348.196 217.19 348.136 217.043 348.136 216.87C348.136 216.697 348.196 216.55 348.316 216.43C348.436 216.31 348.582 216.25 348.756 216.25C348.922 216.25 349.062 216.31 349.176 216.43C349.296 216.55 349.356 216.697 349.356 216.87C349.356 217.043 349.296 217.19 349.176 217.31C349.062 217.43 348.922 217.49 348.756 217.49ZM349.196 218.38V223.86H348.286V218.38H349.196ZM351.657 219.27C351.817 218.957 352.043 218.713 352.337 218.54C352.637 218.367 353 218.28 353.427 218.28V219.22H353.187C352.167 219.22 351.657 219.773 351.657 220.88V223.86H350.747V218.38H351.657V219.27ZM356.867 223.95C356.354 223.95 355.887 223.833 355.467 223.6C355.054 223.367 354.727 223.037 354.487 222.61C354.254 222.177 354.137 221.677 354.137 221.11C354.137 220.55 354.257 220.057 354.497 219.63C354.744 219.197 355.077 218.867 355.497 218.64C355.917 218.407 356.387 218.29 356.907 218.29C357.427 218.29 357.897 218.407 358.317 218.64C358.737 218.867 359.067 219.193 359.307 219.62C359.554 220.047 359.677 220.543 359.677 221.11C359.677 221.677 359.55 222.177 359.297 222.61C359.05 223.037 358.714 223.367 358.287 223.6C357.86 223.833 357.387 223.95 356.867 223.95ZM356.867 223.15C357.194 223.15 357.5 223.073 357.787 222.92C358.074 222.767 358.304 222.537 358.477 222.23C358.657 221.923 358.747 221.55 358.747 221.11C358.747 220.67 358.66 220.297 358.487 219.99C358.314 219.683 358.087 219.457 357.807 219.31C357.527 219.157 357.224 219.08 356.897 219.08C356.564 219.08 356.257 219.157 355.977 219.31C355.704 219.457 355.484 219.683 355.317 219.99C355.15 220.297 355.067 220.67 355.067 221.11C355.067 221.557 355.147 221.933 355.307 222.24C355.474 222.547 355.694 222.777 355.967 222.93C356.24 223.077 356.54 223.15 356.867 223.15ZM363.544 218.28C364.21 218.28 364.75 218.483 365.164 218.89C365.577 219.29 365.784 219.87 365.784 220.63V223.86H364.884V220.76C364.884 220.213 364.747 219.797 364.474 219.51C364.2 219.217 363.827 219.07 363.354 219.07C362.874 219.07 362.49 219.22 362.204 219.52C361.924 219.82 361.784 220.257 361.784 220.83V223.86H360.874V218.38H361.784V219.16C361.964 218.88 362.207 218.663 362.514 218.51C362.827 218.357 363.17 218.28 363.544 218.28ZM373.86 218.28C374.287 218.28 374.667 218.37 375 218.55C375.333 218.723 375.597 218.987 375.79 219.34C375.983 219.693 376.08 220.123 376.08 220.63V223.86H375.18V220.76C375.18 220.213 375.043 219.797 374.77 219.51C374.503 219.217 374.14 219.07 373.68 219.07C373.207 219.07 372.83 219.223 372.55 219.53C372.27 219.83 372.13 220.267 372.13 220.84V223.86H371.23V220.76C371.23 220.213 371.093 219.797 370.82 219.51C370.553 219.217 370.19 219.07 369.73 219.07C369.257 219.07 368.88 219.223 368.6 219.53C368.32 219.83 368.18 220.267 368.18 220.84V223.86H367.27V218.38H368.18V219.17C368.36 218.883 368.6 218.663 368.9 218.51C369.207 218.357 369.543 218.28 369.91 218.28C370.37 218.28 370.777 218.383 371.13 218.59C371.483 218.797 371.747 219.1 371.92 219.5C372.073 219.113 372.327 218.813 372.68 218.6C373.033 218.387 373.427 218.28 373.86 218.28ZM382.573 220.91C382.573 221.083 382.563 221.267 382.543 221.46H378.163C378.196 222 378.379 222.423 378.713 222.73C379.053 223.03 379.463 223.18 379.943 223.18C380.336 223.18 380.663 223.09 380.923 222.91C381.189 222.723 381.376 222.477 381.483 222.17H382.463C382.316 222.697 382.023 223.127 381.583 223.46C381.143 223.787 380.596 223.95 379.943 223.95C379.423 223.95 378.956 223.833 378.543 223.6C378.136 223.367 377.816 223.037 377.583 222.61C377.349 222.177 377.233 221.677 377.233 221.11C377.233 220.543 377.346 220.047 377.573 219.62C377.799 219.193 378.116 218.867 378.523 218.64C378.936 218.407 379.409 218.29 379.943 218.29C380.463 218.29 380.923 218.403 381.323 218.63C381.723 218.857 382.029 219.17 382.243 219.57C382.463 219.963 382.573 220.41 382.573 220.91ZM381.633 220.72C381.633 220.373 381.556 220.077 381.403 219.83C381.249 219.577 381.039 219.387 380.773 219.26C380.513 219.127 380.223 219.06 379.903 219.06C379.443 219.06 379.049 219.207 378.723 219.5C378.403 219.793 378.219 220.2 378.173 220.72H381.633ZM386.444 218.28C387.111 218.28 387.651 218.483 388.064 218.89C388.477 219.29 388.684 219.87 388.684 220.63V223.86H387.784V220.76C387.784 220.213 387.647 219.797 387.374 219.51C387.101 219.217 386.727 219.07 386.254 219.07C385.774 219.07 385.391 219.22 385.104 219.52C384.824 219.82 384.684 220.257 384.684 220.83V223.86H383.774V218.38H384.684V219.16C384.864 218.88 385.107 218.663 385.414 218.51C385.727 218.357 386.071 218.28 386.444 218.28ZM391.28 219.13V222.36C391.28 222.627 391.337 222.817 391.45 222.93C391.564 223.037 391.76 223.09 392.04 223.09H392.71V223.86H391.89C391.384 223.86 391.004 223.743 390.75 223.51C390.497 223.277 390.37 222.893 390.37 222.36V219.13H389.66V218.38H390.37V217H391.28V218.38H392.71V219.13H391.28Z" fill="white"/>
<path d="M294.68 246.63V248.96H297.22V249.71H294.68V252.11H297.52V252.86H293.77V245.88H297.52V246.63H294.68ZM301.567 247.28C302.234 247.28 302.774 247.483 303.187 247.89C303.6 248.29 303.807 248.87 303.807 249.63V252.86H302.907V249.76C302.907 249.213 302.77 248.797 302.497 248.51C302.224 248.217 301.85 248.07 301.377 248.07C300.897 248.07 300.514 248.22 300.227 248.52C299.947 248.82 299.807 249.257 299.807 249.83V252.86H298.897V247.38H299.807V248.16C299.987 247.88 300.23 247.663 300.537 247.51C300.85 247.357 301.194 247.28 301.567 247.28ZM307.333 252.02L309.033 247.38H310.003L307.853 252.86H306.793L304.643 247.38H305.623L307.333 252.02ZM311.369 246.49C311.196 246.49 311.049 246.43 310.929 246.31C310.809 246.19 310.749 246.043 310.749 245.87C310.749 245.697 310.809 245.55 310.929 245.43C311.049 245.31 311.196 245.25 311.369 245.25C311.536 245.25 311.676 245.31 311.789 245.43C311.909 245.55 311.969 245.697 311.969 245.87C311.969 246.043 311.909 246.19 311.789 246.31C311.676 246.43 311.536 246.49 311.369 246.49ZM311.809 247.38V252.86H310.899V247.38H311.809ZM314.27 248.27C314.43 247.957 314.656 247.713 314.95 247.54C315.25 247.367 315.613 247.28 316.04 247.28V248.22H315.8C314.78 248.22 314.27 248.773 314.27 249.88V252.86H313.36V247.38H314.27V248.27ZM319.48 252.95C318.967 252.95 318.5 252.833 318.08 252.6C317.667 252.367 317.34 252.037 317.1 251.61C316.867 251.177 316.75 250.677 316.75 250.11C316.75 249.55 316.87 249.057 317.11 248.63C317.357 248.197 317.69 247.867 318.11 247.64C318.53 247.407 319 247.29 319.52 247.29C320.04 247.29 320.51 247.407 320.93 247.64C321.35 247.867 321.68 248.193 321.92 248.62C322.167 249.047 322.29 249.543 322.29 250.11C322.29 250.677 322.164 251.177 321.91 251.61C321.664 252.037 321.327 252.367 320.9 252.6C320.474 252.833 320 252.95 319.48 252.95ZM319.48 252.15C319.807 252.15 320.114 252.073 320.4 251.92C320.687 251.767 320.917 251.537 321.09 251.23C321.27 250.923 321.36 250.55 321.36 250.11C321.36 249.67 321.274 249.297 321.1 248.99C320.927 248.683 320.7 248.457 320.42 248.31C320.14 248.157 319.837 248.08 319.51 248.08C319.177 248.08 318.87 248.157 318.59 248.31C318.317 248.457 318.097 248.683 317.93 248.99C317.764 249.297 317.68 249.67 317.68 250.11C317.68 250.557 317.76 250.933 317.92 251.24C318.087 251.547 318.307 251.777 318.58 251.93C318.854 252.077 319.154 252.15 319.48 252.15ZM326.157 247.28C326.823 247.28 327.363 247.483 327.777 247.89C328.19 248.29 328.397 248.87 328.397 249.63V252.86H327.497V249.76C327.497 249.213 327.36 248.797 327.087 248.51C326.813 248.217 326.44 248.07 325.967 248.07C325.487 248.07 325.103 248.22 324.817 248.52C324.537 248.82 324.397 249.257 324.397 249.83V252.86H323.487V247.38H324.397V248.16C324.577 247.88 324.82 247.663 325.127 247.51C325.44 247.357 325.783 247.28 326.157 247.28ZM336.473 247.28C336.9 247.28 337.28 247.37 337.613 247.55C337.947 247.723 338.21 247.987 338.403 248.34C338.597 248.693 338.693 249.123 338.693 249.63V252.86H337.793V249.76C337.793 249.213 337.657 248.797 337.383 248.51C337.117 248.217 336.753 248.07 336.293 248.07C335.82 248.07 335.443 248.223 335.163 248.53C334.883 248.83 334.743 249.267 334.743 249.84V252.86H333.843V249.76C333.843 249.213 333.707 248.797 333.433 248.51C333.167 248.217 332.803 248.07 332.343 248.07C331.87 248.07 331.493 248.223 331.213 248.53C330.933 248.83 330.793 249.267 330.793 249.84V252.86H329.883V247.38H330.793V248.17C330.973 247.883 331.213 247.663 331.513 247.51C331.82 247.357 332.157 247.28 332.523 247.28C332.983 247.28 333.39 247.383 333.743 247.59C334.097 247.797 334.36 248.1 334.533 248.5C334.687 248.113 334.94 247.813 335.293 247.6C335.647 247.387 336.04 247.28 336.473 247.28ZM345.186 249.91C345.186 250.083 345.176 250.267 345.156 250.46H340.776C340.809 251 340.993 251.423 341.326 251.73C341.666 252.03 342.076 252.18 342.556 252.18C342.949 252.18 343.276 252.09 343.536 251.91C343.803 251.723 343.989 251.477 344.096 251.17H345.076C344.929 251.697 344.636 252.127 344.196 252.46C343.756 252.787 343.209 252.95 342.556 252.95C342.036 252.95 341.569 252.833 341.156 252.6C340.749 252.367 340.429 252.037 340.196 251.61C339.963 251.177 339.846 250.677 339.846 250.11C339.846 249.543 339.959 249.047 340.186 248.62C340.413 248.193 340.729 247.867 341.136 247.64C341.549 247.407 342.023 247.29 342.556 247.29C343.076 247.29 343.536 247.403 343.936 247.63C344.336 247.857 344.643 248.17 344.856 248.57C345.076 248.963 345.186 249.41 345.186 249.91ZM344.246 249.72C344.246 249.373 344.169 249.077 344.016 248.83C343.863 248.577 343.653 248.387 343.386 248.26C343.126 248.127 342.836 248.06 342.516 248.06C342.056 248.06 341.663 248.207 341.336 248.5C341.016 248.793 340.833 249.2 340.786 249.72H344.246ZM349.057 247.28C349.724 247.28 350.264 247.483 350.677 247.89C351.091 248.29 351.297 248.87 351.297 249.63V252.86H350.397V249.76C350.397 249.213 350.261 248.797 349.987 248.51C349.714 248.217 349.341 248.07 348.867 248.07C348.387 248.07 348.004 248.22 347.717 248.52C347.437 248.82 347.297 249.257 347.297 249.83V252.86H346.387V247.38H347.297V248.16C347.477 247.88 347.721 247.663 348.027 247.51C348.341 247.357 348.684 247.28 349.057 247.28ZM353.894 248.13V251.36C353.894 251.627 353.95 251.817 354.064 251.93C354.177 252.037 354.374 252.09 354.654 252.09H355.324V252.86H354.504C353.997 252.86 353.617 252.743 353.364 252.51C353.11 252.277 352.984 251.893 352.984 251.36V248.13H352.274V247.38H352.984V246H353.894V247.38H355.324V248.13H353.894ZM361.302 252.93C360.842 252.93 360.429 252.85 360.062 252.69C359.702 252.523 359.419 252.297 359.212 252.01C359.006 251.717 358.899 251.38 358.892 251H359.862C359.896 251.327 360.029 251.603 360.262 251.83C360.502 252.05 360.849 252.16 361.302 252.16C361.736 252.16 362.076 252.053 362.322 251.84C362.576 251.62 362.702 251.34 362.702 251C362.702 250.733 362.629 250.517 362.482 250.35C362.336 250.183 362.152 250.057 361.932 249.97C361.712 249.883 361.416 249.79 361.042 249.69C360.582 249.57 360.212 249.45 359.932 249.33C359.659 249.21 359.422 249.023 359.222 248.77C359.029 248.51 358.932 248.163 358.932 247.73C358.932 247.35 359.029 247.013 359.222 246.72C359.416 246.427 359.686 246.2 360.032 246.04C360.386 245.88 360.789 245.8 361.242 245.8C361.896 245.8 362.429 245.963 362.842 246.29C363.262 246.617 363.499 247.05 363.552 247.59H362.552C362.519 247.323 362.379 247.09 362.132 246.89C361.886 246.683 361.559 246.58 361.152 246.58C360.772 246.58 360.462 246.68 360.222 246.88C359.982 247.073 359.862 247.347 359.862 247.7C359.862 247.953 359.932 248.16 360.072 248.32C360.219 248.48 360.396 248.603 360.602 248.69C360.816 248.77 361.112 248.863 361.492 248.97C361.952 249.097 362.322 249.223 362.602 249.35C362.882 249.47 363.122 249.66 363.322 249.92C363.522 250.173 363.622 250.52 363.622 250.96C363.622 251.3 363.532 251.62 363.352 251.92C363.172 252.22 362.906 252.463 362.552 252.65C362.199 252.837 361.782 252.93 361.302 252.93ZM369.961 249.91C369.961 250.083 369.951 250.267 369.931 250.46H365.551C365.585 251 365.768 251.423 366.101 251.73C366.441 252.03 366.851 252.18 367.331 252.18C367.725 252.18 368.051 252.09 368.311 251.91C368.578 251.723 368.765 251.477 368.871 251.17H369.851C369.705 251.697 369.411 252.127 368.971 252.46C368.531 252.787 367.985 252.95 367.331 252.95C366.811 252.95 366.345 252.833 365.931 252.6C365.525 252.367 365.205 252.037 364.971 251.61C364.738 251.177 364.621 250.677 364.621 250.11C364.621 249.543 364.735 249.047 364.961 248.62C365.188 248.193 365.505 247.867 365.911 247.64C366.325 247.407 366.798 247.29 367.331 247.29C367.851 247.29 368.311 247.403 368.711 247.63C369.111 247.857 369.418 248.17 369.631 248.57C369.851 248.963 369.961 249.41 369.961 249.91ZM369.021 249.72C369.021 249.373 368.945 249.077 368.791 248.83C368.638 248.577 368.428 248.387 368.161 248.26C367.901 248.127 367.611 248.06 367.291 248.06C366.831 248.06 366.438 248.207 366.111 248.5C365.791 248.793 365.608 249.2 365.561 249.72H369.021ZM372.273 248.13V251.36C372.273 251.627 372.329 251.817 372.443 251.93C372.556 252.037 372.753 252.09 373.033 252.09H373.703V252.86H372.883C372.376 252.86 371.996 252.743 371.743 252.51C371.489 252.277 371.363 251.893 371.363 251.36V248.13H370.653V247.38H371.363V246H372.273V247.38H373.703V248.13H372.273ZM379.665 247.38V252.86H378.755V252.05C378.582 252.33 378.338 252.55 378.025 252.71C377.718 252.863 377.378 252.94 377.005 252.94C376.578 252.94 376.195 252.853 375.855 252.68C375.515 252.5 375.245 252.233 375.045 251.88C374.852 251.527 374.755 251.097 374.755 250.59V247.38H375.655V250.47C375.655 251.01 375.792 251.427 376.065 251.72C376.338 252.007 376.712 252.15 377.185 252.15C377.672 252.15 378.055 252 378.335 251.7C378.615 251.4 378.755 250.963 378.755 250.39V247.38H379.665ZM382.112 248.39C382.292 248.077 382.558 247.817 382.912 247.61C383.272 247.397 383.688 247.29 384.162 247.29C384.648 247.29 385.088 247.407 385.482 247.64C385.882 247.873 386.195 248.203 386.422 248.63C386.648 249.05 386.762 249.54 386.762 250.1C386.762 250.653 386.648 251.147 386.422 251.58C386.195 252.013 385.882 252.35 385.482 252.59C385.088 252.83 384.648 252.95 384.162 252.95C383.695 252.95 383.282 252.847 382.922 252.64C382.568 252.427 382.298 252.163 382.112 251.85V255.46H381.202V247.38H382.112V248.39ZM385.832 250.1C385.832 249.687 385.748 249.327 385.582 249.02C385.415 248.713 385.188 248.48 384.902 248.32C384.622 248.16 384.312 248.08 383.972 248.08C383.638 248.08 383.328 248.163 383.042 248.33C382.762 248.49 382.535 248.727 382.362 249.04C382.195 249.347 382.112 249.703 382.112 250.11C382.112 250.523 382.195 250.887 382.362 251.2C382.535 251.507 382.762 251.743 383.042 251.91C383.328 252.07 383.638 252.15 383.972 252.15C384.312 252.15 384.622 252.07 384.902 251.91C385.188 251.743 385.415 251.507 385.582 251.2C385.748 250.887 385.832 250.52 385.832 250.1Z" fill="white"/>
</g>
</g>
</g>
<defs>
<filter id="filter0_d_0_10504" x="236.312" y="25.86" width="355.55" height="342.402" filterUnits="userSpaceOnUse" color-interpolation-filters="sRGB">
<feFlood flood-opacity="0" result="BackgroundImageFix"/>
<feColorMatrix in="SourceAlpha" type="matrix" values="0 0 0 0 0 0 0 0 0 0 0 0 0 0 0 0 0 0 127 0" result="hardAlpha"/>
<feOffset dx="-12" dy="20"/>
<feGaussianBlur stdDeviation="10"/>
<feComposite in2="hardAlpha" operator="out"/>
<feColorMatrix type="matrix" values="0 0 0 0 0 0 0 0 0 0 0 0 0 0 0 0 0 0 0.4 0"/>
<feBlend mode="normal" in2="BackgroundImageFix" result="effect1_dropShadow_0_10504"/>
<feBlend mode="normal" in="SourceGraphic" in2="effect1_dropShadow_0_10504" result="shape"/>
</filter>
<linearGradient id="paint0_linear_0_10504" x1="47.8315" y1="134.078" x2="47.8315" y2="154.305" gradientUnits="userSpaceOnUse">
<stop stop-color="#3B1C4B"/>
<stop offset="1" stop-color="#4043D9"/>
</linearGradient>
<linearGradient id="paint1_linear_0_10504" x1="275.391" y1="25.86" x2="569.133" y2="149.582" gradientUnits="userSpaceOnUse">
<stop stop-color="white" stop-opacity="0.06"/>
<stop offset="1" stop-color="white" stop-opacity="0"/>
</linearGradient>
<clipPath id="clip0_0_10504">
<rect width="561.19" height="320.66" fill="white" transform="translate(1 1.85999)"/>
</clipPath>
<clipPath id="clip1_0_10504">
<rect width="537.19" height="293.3" fill="white" transform="translate(25 25.86)"/>
</clipPath>
<clipPath id="clip2_0_10504">
<rect width="536.03" height="293.3" fill="white" transform="translate(25.5812 25.86)"/>
</clipPath>
</defs>
</svg>
